<svg width="21" height="21" viewBox="0 0 21 21" fill="none" xmlns="http://www.w3.org/2000/svg">
<path d="M19.445 9.33333H10.8894V0.777778C10.8894 0.571498 10.8075 0.373668 10.6616 0.227806C10.5157 0.0819444 10.3179 0 10.1116 0C9.90534 0 9.70751 0.0819444 9.56165 0.227806C9.41579 0.373668 9.33384 0.571498 9.33384 0.777778V9.33333H0.778288C0.572008 9.33333 0.374177 9.41528 0.228316 9.56114C0.082454 9.707 0.000509664 9.90483 0.000509664 10.1111C-0.00332838 10.2122 0.0145461 10.3129 0.0529282 10.4065C0.0913103 10.5001 0.149308 10.5844 0.223014 10.6537C0.296719 10.723 0.38442 10.7756 0.480205 10.8082C0.57599 10.8407 0.677634 10.8523 0.778288 10.8422H9.33384V19.4444C9.33384 19.6507 9.41579 19.8486 9.56165 19.9944C9.70751 20.1403 9.90534 20.2222 10.1116 20.2222C10.3179 20.2222 10.5157 20.1403 10.6616 19.9944C10.8075 19.8486 10.8894 19.6507 10.8894 19.4444V10.8889H19.445C19.6512 10.8889 19.8491 10.8069 19.9949 10.6611C20.1408 10.5152 20.2227 10.3174 20.2227 10.1111C20.2227 9.90483 20.1408 9.707 19.9949 9.56114C19.8491 9.41528 19.6512 9.33333 19.445 9.33333Z" fill="#9098B1"/>
</svg>
