<svg width="24" height="24" viewBox="0 0 24 24" fill="none" xmlns="http://www.w3.org/2000/svg">
<path d="M7.19995 12C7.19995 11.8408 7.26317 11.6882 7.37569 11.5757C7.48821 11.4632 7.64082 11.4 7.79995 11.4H11.4V7.79995C11.4 7.64082 11.4632 7.48821 11.5757 7.37569C11.6882 7.26317 11.8408 7.19995 12 7.19995C12.1591 7.19995 12.3117 7.26317 12.4242 7.37569C12.5367 7.48821 12.6 7.64082 12.6 7.79995V11.4H16.1999C16.3591 11.4 16.5117 11.4632 16.6242 11.5757C16.7367 11.6882 16.7999 11.8408 16.7999 12C16.7999 12.1591 16.7367 12.3117 16.6242 12.4242C16.5117 12.5367 16.3591 12.6 16.1999 12.6H12.6V16.1999C12.6 16.3591 12.5367 16.5117 12.4242 16.6242C12.3117 16.7367 12.1591 16.7999 12 16.7999C11.8408 16.7999 11.6882 16.7367 11.5757 16.6242C11.4632 16.5117 11.4 16.3591 11.4 16.1999V12.6H7.79995C7.64082 12.6 7.48821 12.5367 7.37569 12.4242C7.26317 12.3117 7.19995 12.1591 7.19995 12Z" fill="#6A359F"/>
<path d="M11.9999 21.5999C14.546 21.5999 16.9878 20.5885 18.7881 18.7881C20.5885 16.9878 21.5999 14.546 21.5999 11.9999C21.5999 9.45382 20.5885 7.01203 18.7881 5.21168C16.9878 3.41133 14.546 2.3999 11.9999 2.3999C9.45382 2.3999 7.01203 3.41133 5.21168 5.21168C3.41133 7.01203 2.3999 9.45382 2.3999 11.9999C2.3999 14.546 3.41133 16.9878 5.21168 18.7881C7.01203 20.5885 9.45382 21.5999 11.9999 21.5999ZM11.9999 20.3999C10.8968 20.3999 9.8045 20.1826 8.78536 19.7605C7.76623 19.3383 6.84022 18.7196 6.0602 17.9396C5.28019 17.1596 4.66145 16.2336 4.23931 15.2144C3.81717 14.1953 3.5999 13.103 3.5999 11.9999C3.5999 10.8968 3.81717 9.8045 4.23931 8.78536C4.66145 7.76623 5.28019 6.84022 6.0602 6.0602C6.84022 5.28019 7.76623 4.66145 8.78536 4.23931C9.8045 3.81717 10.8968 3.5999 11.9999 3.5999C14.2277 3.5999 16.3643 4.4849 17.9396 6.0602C19.5149 7.63551 20.3999 9.77208 20.3999 11.9999C20.3999 14.2277 19.5149 16.3643 17.9396 17.9396C16.3643 19.5149 14.2277 20.3999 11.9999 20.3999Z" fill="#6A359F"/>
</svg>
