<svg width="90" height="90" viewBox="0 0 90 90" fill="none" xmlns="http://www.w3.org/2000/svg">
<path d="M36.675 35.75C44.9593 35.75 51.675 29.0343 51.675 20.75C51.675 12.4657 44.9593 5.75 36.675 5.75C28.3907 5.75 21.675 12.4657 21.675 20.75C21.675 29.0343 28.3907 35.75 36.675 35.75Z" fill="#F58415"/>
<path d="M41.1 79.5499C40.2738 78.7328 39.7347 77.6699 39.5634 76.5206C39.3922 75.3713 39.598 74.1975 40.15 73.1749L41.475 70.6749L38.75 69.8499C37.6388 69.5021 36.6714 68.8013 35.9946 67.8538C35.3178 66.9063 34.9686 65.7639 35 64.5999V59.475C34.9979 58.3161 35.3686 57.1874 36.0574 56.2554C36.7462 55.3235 37.7166 54.6379 38.825 54.2999L41.55 53.4749L40.25 50.9749C39.7142 49.9664 39.5103 48.8145 39.6674 47.6833C39.8245 46.5521 40.3346 45.4993 41.125 44.675C39.2017 44.4228 37.2647 44.2892 35.325 44.2749C29.5958 44.1401 23.9074 45.2711 18.6656 47.5874C13.4238 49.9036 8.75763 53.348 5 57.6749V77.0499C5 77.713 5.26339 78.3489 5.73223 78.8177C6.20107 79.2866 6.83696 79.5499 7.5 79.5499H41.1V79.5499Z" fill="#F58415"/>
<path d="M84.25 58.65L79.25 57.15C78.9035 55.9152 78.417 54.7242 77.8 53.6L80.3 48.95C80.3966 48.7774 80.4319 48.5771 80.4001 48.3819C80.3683 48.1867 80.2714 48.008 80.125 47.875L76.5 44.225C76.3604 44.0891 76.1823 43.9994 75.99 43.9681C75.7977 43.9368 75.6005 43.9654 75.425 44.05L70.8 46.55C69.6615 45.9315 68.4638 45.429 67.225 45.05L65.7 40.05C65.6329 39.8656 65.5103 39.7065 65.3492 39.5946C65.188 39.4827 64.9962 39.4234 64.8 39.425H59.6C59.405 39.4304 59.2165 39.4957 59.06 39.612C58.9034 39.7283 58.7865 39.8899 58.725 40.075L57.225 45.075C55.9621 45.4424 54.7457 45.9541 53.6 46.6L49.075 44.1C48.899 44.0065 48.6982 43.9706 48.5008 43.9976C48.3034 44.0245 48.1194 44.1128 47.975 44.25L44.3 47.85C44.1553 47.9894 44.0599 48.1722 44.0283 48.3707C43.9968 48.5691 44.0307 48.7725 44.125 48.95L46.625 53.5C45.9553 54.6292 45.4104 55.8279 45 57.075L40 58.6C39.8108 58.6546 39.6449 58.7698 39.5274 58.9279C39.41 59.0859 39.3477 59.2781 39.35 59.475V64.6C39.3477 64.7968 39.41 64.989 39.5274 65.1471C39.6449 65.3051 39.8108 65.4203 40 65.475L45 67C45.3748 68.2244 45.8775 69.4059 46.5 70.525L44 75.275C43.9057 75.4524 43.8718 75.6558 43.9033 75.8542C43.9349 76.0527 44.0303 76.2355 44.175 76.375L47.9 80C48.0444 80.1371 48.2284 80.2254 48.4258 80.2524C48.6232 80.2793 48.8241 80.2435 49 80.15L53.675 77.65C54.7875 78.2483 55.9609 78.726 57.175 79.075L58.675 84.2C58.7379 84.389 58.8586 84.5535 59.0201 84.6701C59.1817 84.7867 59.3757 84.8497 59.575 84.85H64.7C64.8949 84.8445 65.0834 84.7792 65.24 84.6629C65.3965 84.5467 65.5135 84.385 65.575 84.2L67.075 79.075C68.2746 78.7304 69.4318 78.2524 70.525 77.65L75.25 80.15C75.4259 80.2435 75.6268 80.2793 75.8242 80.2524C76.0216 80.2254 76.2055 80.1371 76.35 80L80 76.375C80.1372 76.2305 80.2255 76.0465 80.2524 75.8491C80.2793 75.6517 80.2435 75.4509 80.15 75.275L77.65 70.575C78.248 69.4797 78.7258 68.323 79.075 67.125L84.075 65.6C84.2628 65.5395 84.4279 65.4236 84.5484 65.2673C84.6689 65.1111 84.7392 64.922 84.75 64.725V59.55C84.7561 59.3687 84.7128 59.1892 84.6247 59.0307C84.5366 58.8721 84.4071 58.7405 84.25 58.65V58.65ZM62.175 70.45C60.5224 70.4549 58.9056 69.9694 57.5292 69.0549C56.1527 68.1404 55.0786 66.838 54.4428 65.3127C53.807 63.7874 53.638 62.1077 53.9574 60.4863C54.2767 58.8649 55.07 57.3748 56.2368 56.2045C57.4036 55.0342 58.8913 54.2365 60.5118 53.9123C62.1322 53.5881 63.8124 53.7519 65.3396 54.3832C66.8668 55.0145 68.1724 56.0847 69.091 57.4584C70.0096 58.832 70.5 60.4474 70.5 62.1C70.5 64.3102 69.6237 66.4303 68.0632 67.9955C66.5026 69.5607 64.3852 70.4433 62.175 70.45Z" fill="#6A359F"/>
</svg>
