<svg width="54" height="54" viewBox="0 0 54 54" fill="none" xmlns="http://www.w3.org/2000/svg">
<rect width="54" height="54" rx="8" fill="#F58415" fill-opacity="0.1"/>
<g clip-path="url(#clip0_1095_6255)">
<path d="M31.3082 11.8127C31.0745 11.822 30.8491 11.8641 30.6142 11.9225L14.7328 15.7918C12.8542 16.2521 11.6789 18.147 12.1404 20.0268L14.3671 29.1182C14.5021 29.6598 14.7648 30.1611 15.1333 30.5802C15.5018 30.9993 15.9654 31.3241 16.4852 31.5272V29.3367C16.4852 26.1158 19.1056 23.4954 22.3265 23.4954H37.0397L34.8492 14.4775C34.6555 13.6936 34.1974 13.0005 33.5521 12.5151C32.9068 12.0296 32.1139 11.7816 31.307 11.8127H31.3082ZM32.7312 16.8514L33.681 20.8305L29.738 21.7792L28.752 17.8363L32.7312 16.8514ZM22.3265 25.8319C20.3919 25.8319 18.8217 27.4021 18.8217 29.3367V38.6829C18.8217 40.6175 20.3919 42.1877 22.3265 42.1877H38.6823C40.617 42.1877 42.1871 40.6175 42.1871 38.6829V29.3367C42.1871 27.4021 40.617 25.8319 38.6823 25.8319H22.3265ZM22.3265 27.6941H38.6823C39.5831 27.6941 40.3249 28.436 40.3249 29.3367V30.505H20.684V29.3367C20.684 28.436 21.4258 27.6941 22.3265 27.6941ZM20.684 34.0098H40.3249V38.6829C40.3249 39.5836 39.5831 40.3254 38.6823 40.3254H22.3265C21.8917 40.323 21.4753 40.1491 21.1678 39.8416C20.8603 39.5341 20.6864 39.1177 20.684 38.6829V34.0098Z" fill="#F58415"/>
</g>
<defs>
<clipPath id="clip0_1095_6255">
<rect width="30.375" height="30.375" fill="white" transform="translate(11.8125 11.8125)"/>
</clipPath>
</defs>
</svg>
