<svg width="18" height="18" viewBox="0 0 18 18" fill="none" xmlns="http://www.w3.org/2000/svg">
<path d="M16.815 8.50504L15.42 6.90754L15.615 4.79254C15.6525 4.41754 15.3975 4.07254 15.0375 3.99004L12.9675 3.52504L11.8875 1.69504C11.6925 1.37254 11.295 1.23754 10.9425 1.38754L9.00001 2.22004L7.05751 1.38754C6.71251 1.23754 6.30751 1.37254 6.12001 1.69504L5.03251 3.51754L2.97001 3.98254C2.60251 4.06504 2.34751 4.40254 2.38501 4.77754L2.58001 6.90004L1.17751 8.50504C0.930007 8.79004 0.930007 9.21004 1.17751 9.49504L2.58001 11.0925L2.38501 13.215C2.34751 13.59 2.60251 13.935 2.96251 14.0175L5.03251 14.49L6.11251 16.3125C6.30751 16.635 6.71251 16.77 7.05751 16.62L9.00001 15.7725L10.9425 16.605C11.2875 16.755 11.6925 16.62 11.88 16.2975L12.96 14.475L15.03 14.0025C15.3975 13.92 15.645 13.575 15.6075 13.2L15.4125 11.085L16.8075 9.48754C16.9298 9.35355 16.9982 9.1791 16.9995 8.99772C17.0009 8.81635 16.9352 8.64087 16.815 8.50504V8.50504ZM7.67251 11.1225L6.08251 9.53254C6.01307 9.4631 5.95799 9.38067 5.92041 9.28994C5.88283 9.19922 5.86349 9.10198 5.86349 9.00379C5.86349 8.90559 5.88283 8.80835 5.92041 8.71763C5.95799 8.62691 6.01307 8.54447 6.08251 8.47504C6.15194 8.4056 6.23438 8.35052 6.3251 8.31294C6.41582 8.27536 6.51306 8.25602 6.61126 8.25602C6.70945 8.25602 6.80669 8.27536 6.89741 8.31294C6.98814 8.35052 7.07057 8.4056 7.14001 8.47504L8.19751 9.53254L10.8525 6.87754C10.9219 6.8081 11.0044 6.75302 11.0951 6.71544C11.1858 6.67786 11.2831 6.65852 11.3813 6.65852C11.4795 6.65852 11.5767 6.67786 11.6674 6.71544C11.7581 6.75302 11.8406 6.8081 11.91 6.87754C11.9794 6.94697 12.0345 7.0294 12.0721 7.12013C12.1097 7.21085 12.129 7.30809 12.129 7.40629C12.129 7.50448 12.1097 7.60172 12.0721 7.69244C12.0345 7.78317 11.9794 7.8656 11.91 7.93504L8.73001 11.115C8.44501 11.415 7.96501 11.415 7.67251 11.1225V11.1225Z" fill="#5CE069"/>
</svg>
