<svg width="24" height="24" viewBox="0 0 24 24" fill="none" xmlns="http://www.w3.org/2000/svg">
<path d="M12.6668 20H2.66683C2.31321 20 1.97407 19.8595 1.72402 19.6095C1.47397 19.3594 1.3335 19.0203 1.3335 18.6667V5.33333C1.3335 4.97971 1.47397 4.64057 1.72402 4.39052C1.97407 4.14048 2.31321 4 2.66683 4H21.3335C21.6871 4 22.0263 4.14048 22.2763 4.39052C22.5264 4.64057 22.6668 4.97971 22.6668 5.33333V12.2467C21.7787 11.1155 20.4868 10.3725 19.0624 10.1736C17.638 9.9748 16.192 10.3356 15.028 11.1804C13.8641 12.0251 13.0727 13.288 12.8201 14.7038C12.5675 16.1196 12.8734 17.5782 13.6735 18.7733L13.0535 19.5333L12.6668 20ZM4.66683 8V9.06667H16.0002V8H4.66683ZM4.66683 11.7333H12.0002V10.6667H4.66683V11.7333ZM4.66683 16.4H11.3335V15.3333H4.66683V16.4Z" fill="#F58415"/>
<path d="M22.5534 15.7267C22.5552 15.0237 22.3824 14.3314 22.0507 13.7116C21.7189 13.0919 21.2385 12.5642 20.6525 12.1759C20.0666 11.7877 19.3934 11.5509 18.6934 11.4869C17.9934 11.4229 17.2884 11.5336 16.6418 11.8092C15.9951 12.0848 15.427 12.5166 14.9883 13.0659C14.5497 13.6152 14.2543 14.2648 14.1285 14.9564C14.0028 15.648 14.0507 16.36 14.268 17.0285C14.4853 17.697 14.8651 18.3011 15.3734 18.7867L14.08 20.3667L14.68 22.7733L17.12 19.8C17.8924 20.0284 18.7144 20.0284 19.4867 19.8L21.9267 22.7733L22.5267 20.3667L21.2334 18.7867C21.6493 18.3927 21.9808 17.9183 22.2077 17.3923C22.4346 16.8662 22.5522 16.2996 22.5534 15.7267ZM15.3934 15.7267C15.3854 15.1488 15.5495 14.5817 15.8648 14.0974C16.1801 13.613 16.6322 13.2334 17.1638 13.0068C17.6954 12.7801 18.2824 12.7167 18.8502 12.8245C19.4179 12.9324 19.9407 13.2067 20.3522 13.6125C20.7636 14.0183 21.0451 14.5372 21.1608 15.1034C21.2765 15.6696 21.2212 16.2575 21.0019 16.7921C20.7826 17.3268 20.4093 17.7842 19.9294 18.1061C19.4494 18.428 18.8846 18.6 18.3067 18.6C17.541 18.6018 16.8057 18.3007 16.2612 17.7624C15.7166 17.2241 15.4071 16.4923 15.4 15.7267H15.3934Z" fill="#F58415"/>
</svg>
