<svg width="84" height="84" viewBox="0 0 84 84" fill="none" xmlns="http://www.w3.org/2000/svg">
<path d="M16.8 12.6C14.5722 12.6 12.4356 13.485 10.8603 15.0603C9.28499 16.6356 8.39999 18.7722 8.39999 21V54.6C8.39999 56.8278 9.28499 58.9644 10.8603 60.5397C12.4356 62.115 14.5722 63 16.8 63H48.3V60.1818C47.9405 59.7368 47.6014 59.2757 47.2836 58.8H16.8C15.6861 58.8 14.6178 58.3575 13.8301 57.5698C13.0425 56.7822 12.6 55.7139 12.6 54.6V21C12.6 19.8861 13.0425 18.8178 13.8301 18.0301C14.6178 17.2425 15.6861 16.8 16.8 16.8H67.2C68.3139 16.8 69.3822 17.2425 70.1698 18.0301C70.9575 18.8178 71.4 19.8861 71.4 21V31.3656C72.9288 32.1216 74.34 33.0876 75.6 34.2132V21C75.6 18.7722 74.715 16.6356 73.1397 15.0603C71.5644 13.485 69.4278 12.6 67.2 12.6H16.8Z" fill="#F58415"/>
<path d="M77.7 48.3C77.7 52.1987 76.1513 55.9377 73.3945 58.6944C70.6377 61.4512 66.8987 63 63 63C59.1013 63 55.3623 61.4512 52.6055 58.6944C49.8487 55.9377 48.3 52.1987 48.3 48.3C48.3 44.4013 49.8487 40.6623 52.6055 37.9055C55.3623 35.1487 59.1013 33.6 63 33.6C66.8987 33.6 70.6377 35.1487 73.3945 37.9055C76.1513 40.6623 77.7 44.4013 77.7 48.3V48.3Z" fill="#6A359F"/>
<path d="M63 67.2C66.885 67.2 70.497 66.024 73.5 64.0164V75.6C73.5 75.99 73.3914 76.3722 73.1864 76.704C72.9813 77.0357 72.688 77.3039 72.3391 77.4783C71.9903 77.6527 71.5998 77.7265 71.2114 77.6915C70.823 77.6565 70.452 77.514 70.14 77.28L64.26 72.87C63.8965 72.5973 63.4544 72.45 63 72.45C62.5456 72.45 62.1035 72.5973 61.74 72.87L55.86 77.28C55.548 77.514 55.177 77.6565 54.7886 77.6915C54.4002 77.7265 54.0097 77.6527 53.6609 77.4783C53.312 77.3039 53.0187 77.0357 52.8136 76.704C52.6086 76.3722 52.5 75.99 52.5 75.6V64.0164C55.6058 66.0976 59.2614 67.206 63 67.2Z" fill="#6A359F"/>
<path d="M21 27.3C21 26.743 21.2212 26.2089 21.6151 25.815C22.0089 25.4212 22.543 25.2 23.1 25.2H60.9C61.457 25.2 61.9911 25.4212 62.3849 25.815C62.7788 26.2089 63 26.743 63 27.3C63 27.8569 62.7788 28.391 62.3849 28.7849C61.9911 29.1787 61.457 29.4 60.9 29.4H23.1C22.543 29.4 22.0089 29.1787 21.6151 28.7849C21.2212 28.391 21 27.8569 21 27.3Z" fill="#F58415"/>
<path d="M23.1 46.2C22.543 46.2 22.0089 46.4212 21.6151 46.815C21.2212 47.2089 21 47.743 21 48.3C21 48.8569 21.2212 49.3911 21.6151 49.7849C22.0089 50.1787 22.543 50.4 23.1 50.4H39.9C40.457 50.4 40.9911 50.1787 41.3849 49.7849C41.7788 49.3911 42 48.8569 42 48.3C42 47.743 41.7788 47.2089 41.3849 46.815C40.9911 46.4212 40.457 46.2 39.9 46.2H23.1Z" fill="#F58415"/>
</svg>
