<svg width="16" height="16" viewBox="0 0 16 16" fill="none" xmlns="http://www.w3.org/2000/svg">
<path d="M13.3333 0C14.0406 0 14.7189 0.280952 15.219 0.781049C15.719 1.28115 16 1.95942 16 2.66667V13.3333C16 14.0406 15.719 14.7189 15.219 15.219C14.7189 15.719 14.0406 16 13.3333 16H2.66667C1.95942 16 1.28115 15.719 0.781049 15.219C0.280952 14.7189 0 14.0406 0 13.3333V2.66667C0 1.95942 0.280952 1.28115 0.781049 0.781049C1.28115 0.280952 1.95942 0 2.66667 0H13.3333ZM11.9733 4.41778L6.22222 10.1689L4.02667 7.97333C3.90029 7.85557 3.73314 7.79146 3.56042 7.79451C3.38771 7.79756 3.22293 7.86753 3.10078 7.98967C2.97864 8.11181 2.90867 8.2766 2.90562 8.44931C2.90258 8.62203 2.96668 8.78918 3.08444 8.91556L5.75111 11.5822C5.87611 11.7071 6.04556 11.7772 6.22222 11.7772C6.39889 11.7772 6.56833 11.7071 6.69333 11.5822L12.9156 5.36C13.0333 5.23362 13.0974 5.06647 13.0944 4.89376C13.0913 4.72105 13.0214 4.55626 12.8992 4.43411C12.7771 4.31197 12.6123 4.242 12.4396 4.23896C12.2669 4.23591 12.0997 4.30002 11.9733 4.41778Z" fill="#F58415"/>
</svg>
