<svg width="90" height="90" viewBox="0 0 90 90" fill="none" xmlns="http://www.w3.org/2000/svg">
<path d="M49.7 7.5H15.3C13.8944 7.5 12.5463 8.05839 11.5523 9.05233C10.5584 10.0463 10 11.3944 10 12.8V82.5H55V12.8C55 11.3944 54.4416 10.0463 53.4477 9.05233C52.4537 8.05839 51.1056 7.5 49.7 7.5V7.5ZM50 77.5H42.5V70H22.5V77.5H15V12.8C15 12.7606 15.0078 12.7216 15.0228 12.6852C15.0379 12.6488 15.06 12.6157 15.0879 12.5879C15.1157 12.56 15.1488 12.5379 15.1852 12.5228C15.2216 12.5078 15.2606 12.5 15.3 12.5H49.7C49.7394 12.5 49.7784 12.5078 49.8148 12.5228C49.8512 12.5379 49.8843 12.56 49.9121 12.5879C49.94 12.6157 49.9621 12.6488 49.9772 12.6852C49.9922 12.7216 50 12.7606 50 12.8V77.5Z" fill="#F58415"/>
<path d="M20 20H25V25H20V20Z" fill="#F58415"/>
<path d="M30 20H35V25H30V20Z" fill="#F58415"/>
<path d="M40 20H45V25H40V20Z" fill="#F58415"/>
<path d="M20 32.5H25V37.5H20V32.5Z" fill="#F58415"/>
<path d="M30 32.5H35V37.5H30V32.5Z" fill="#F58415"/>
<path d="M40 32.5H45V37.5H40V32.5Z" fill="#F58415"/>
<path d="M20 45H25V50H20V45Z" fill="#F58415"/>
<path d="M30 45H35V50H30V45Z" fill="#F58415"/>
<path d="M40 45H45V50H40V45Z" fill="#F58415"/>
<path d="M20 57.5H25V62.5H20V57.5Z" fill="#F58415"/>
<path d="M30 57.5H35V62.5H30V57.5Z" fill="#F58415"/>
<path d="M40 57.5H45V62.5H40V57.5Z" fill="#F58415"/>
<path d="M57.5 32.5H62.5V37.5H57.5V32.5Z" fill="#F58415"/>
<path d="M67.5 32.5H72.5V37.5H67.5V32.5Z" fill="#F58415"/>
<path d="M57.5 45H62.5V50H57.5V45Z" fill="#F58415"/>
<path d="M67.5 45H72.5V50H67.5V45Z" fill="#F58415"/>
<path d="M57.5 57.5H62.5V62.5H57.5V57.5Z" fill="#F58415"/>
<path d="M67.5 57.5H72.5V62.5H67.5V57.5Z" fill="#F58415"/>
<path d="M77.5 33.575V77.5001H57.5V82.5001H82.5V32.175C80.9069 32.8729 79.2239 33.3441 77.5 33.575V33.575Z" fill="#F58415"/>
<path d="M75 27.5C81.9036 27.5 87.5 21.9036 87.5 15C87.5 8.09644 81.9036 2.5 75 2.5C68.0964 2.5 62.5 8.09644 62.5 15C62.5 21.9036 68.0964 27.5 75 27.5Z" fill="#6A359F"/>
</svg>
