<svg width="83" height="83" viewBox="0 0 83 83" fill="none" xmlns="http://www.w3.org/2000/svg">
<path d="M24.9 12.45H58.1C59.2007 12.45 60.2562 12.8873 61.0345 13.6656C61.8128 14.4438 62.25 15.4994 62.25 16.6V37.4413C63.6735 37.57 65.0637 37.8314 66.4 38.2091V16.6C66.4 14.3988 65.5256 12.2876 63.969 10.7311C62.4125 9.17451 60.3013 8.30005 58.1 8.30005H24.9C22.6987 8.30005 20.5876 9.17451 19.031 10.7311C17.4745 12.2876 16.6 14.3988 16.6 16.6V66.4C16.6 68.6013 17.4745 70.7125 19.031 72.269C20.5876 73.8256 22.6987 74.7 24.9 74.7H42.5666C41.5096 73.4199 40.5953 72.0284 39.84 70.55H24.9C23.7994 70.55 22.7438 70.1128 21.9655 69.3345C21.1872 68.5563 20.75 67.5007 20.75 66.4H38.2091C37.8251 65.0435 37.568 63.6542 37.4413 62.25H20.75V16.6C20.75 15.4994 21.1872 14.4438 21.9655 13.6656C22.7438 12.8873 23.7994 12.45 24.9 12.45Z" fill="#F58415"/>
<path d="M29.05 16.6001C27.9494 16.6001 26.8938 17.0373 26.1155 17.8156C25.3373 18.5939 24.9 19.6494 24.9 20.7501V24.9001C24.9 26.0007 25.3373 27.0563 26.1155 27.8346C26.8938 28.6129 27.9494 29.0501 29.05 29.0501H53.95C55.0507 29.0501 56.1063 28.6129 56.8845 27.8346C57.6628 27.0563 58.1 26.0007 58.1 24.9001V20.7501C58.1 19.6494 57.6628 18.5939 56.8845 17.8156C56.1063 17.0373 55.0507 16.6001 53.95 16.6001H29.05ZM53.95 20.7501V24.9001H29.05V20.7501H53.95Z" fill="#F58415"/>
<path d="M78.8501 60.175C78.8501 65.128 76.8825 69.878 73.3803 73.3803C69.878 76.8825 65.128 78.8501 60.175 78.8501C55.2221 78.8501 50.472 76.8825 46.9698 73.3803C43.4675 69.878 41.5 65.128 41.5 60.175C41.5 55.2221 43.4675 50.472 46.9698 46.9698C50.472 43.4675 55.2221 41.5 60.175 41.5C65.128 41.5 69.878 43.4675 73.3803 46.9698C76.8825 50.472 78.8501 55.2221 78.8501 60.175V60.175ZM58.183 52.0161C57.9139 51.8313 57.6012 51.7199 57.2759 51.693C56.9505 51.6661 56.6238 51.7245 56.328 51.8626C56.0865 51.9688 55.868 52.1211 55.6847 52.3108C55.2981 52.7069 55.0821 53.2388 55.083 53.7923V66.5536C55.0804 66.8287 55.1323 67.1015 55.2356 67.3565C55.3388 67.6115 55.4915 67.8435 55.6847 68.0393C55.8742 68.2276 56.0945 68.3821 56.3363 68.4958C56.7573 68.6887 57.2351 68.7183 57.6767 68.5788C57.868 68.5158 58.0496 68.4264 58.2162 68.3132L67.7446 61.8101C68.0346 61.6191 68.2681 61.354 68.4211 61.0424C68.5787 60.7284 68.6598 60.3816 68.6577 60.0304C68.6555 59.6791 68.5702 59.3333 68.4086 59.0213C68.2464 58.7142 68.0077 58.454 67.7156 58.266L58.183 52.0161V52.0161Z" fill="#6A359F"/>
</svg>
