<svg width="215" height="190" viewBox="0 0 215 190" fill="none" xmlns="http://www.w3.org/2000/svg">
<path d="M158.412 46.6572C157.913 46.2559 157.314 45.9981 156.679 45.9113C156.044 45.8245 155.397 45.9119 154.808 46.1644L97.4521 71.0009C94.9584 72.0875 91.8353 72.6041 88.629 72.6041C84.1581 72.6219 79.5328 71.5828 76.3087 70.1697C75.3262 69.7559 74.3907 69.2383 73.5181 68.6259C73.7556 68.5072 74.0525 68.3766 74.379 68.2459L126.546 45.6597L134.324 48.9847V39.265C134.336 38.5719 134.191 37.885 133.9 37.2558C133.609 36.6266 133.179 36.0712 132.644 35.6313C132.146 35.2304 131.549 34.9728 130.916 34.8859C130.283 34.7991 129.639 34.8864 129.052 35.1384L71.6953 59.975C69.9259 60.6875 68.4059 61.5662 67.1234 62.8428C65.6383 64.308 64.7948 66.3023 64.7781 68.3884C64.7781 68.4478 64.7959 68.5487 64.7959 68.5487V156.008L64.784 156.127C64.784 156.151 64.8018 156.162 64.8018 156.186V156.281H64.8137C64.9325 159.339 66.4762 161.287 67.9487 162.664C72.58 166.749 80.3581 169.035 88.635 169.154C92.5537 169.154 96.5318 168.56 100.213 166.981L157.587 142.138C159.101 141.485 160.093 139.864 160.093 138.029V50.2909C160.102 49.5982 159.956 48.9122 159.665 48.2834C159.374 47.6546 158.946 47.0989 158.412 46.6572ZM122.033 30.0322C121.932 28.7259 121.392 27.4791 120.43 26.7309C119.931 26.3297 119.331 26.0718 118.697 25.985C118.062 25.8982 117.415 25.9857 116.826 26.2381L59.47 51.0628C56.9762 52.1434 53.8471 52.6659 50.6468 52.6659C46.1759 52.6778 41.5506 51.6387 38.3265 50.2197C37.343 49.8128 36.4072 49.2991 35.5359 48.6878C35.7734 48.5691 36.0703 48.4384 36.3968 48.3078L88.5696 25.7216L96.3478 29.0466V19.3388C96.3583 18.6452 96.2122 17.9582 95.9202 17.329C95.6282 16.6998 95.198 16.1447 94.6615 15.705C94.1629 15.3043 93.5646 15.0467 92.9308 14.9599C92.2969 14.8731 91.6515 14.9603 91.0634 15.2122L33.7071 40.0547C31.9378 40.7672 30.4237 41.64 29.1353 42.9225C27.6523 44.3886 26.8111 46.3828 26.7959 48.4681C26.7959 48.5394 26.8137 48.6344 26.8137 48.6344V136.373H26.8256C26.9443 139.431 28.4881 141.378 29.9606 142.756C34.5918 146.841 42.37 149.121 50.6528 149.239C52.9021 149.226 55.1443 148.983 57.3443 148.515V68.5428C57.285 64.3866 58.9475 60.3966 61.8687 57.5228C63.8926 55.5596 66.2972 54.032 68.9343 53.0341L122.033 30.0322Z" fill="#C8C8C8"/>
<circle cx="176.961" cy="46.5689" r="35.7549" fill="#C8C8C8" stroke="white" stroke-width="3"/>
<path d="M166.37 46.1027C166.37 41.4036 167.271 37.7017 169.074 34.997C170.905 32.2923 173.842 30.9399 177.885 30.9399C181.929 30.9399 184.852 32.2923 186.655 34.997C188.485 37.7017 189.401 41.4036 189.401 46.1027C189.401 50.8564 188.485 54.5856 186.655 57.2903C184.852 59.995 181.929 61.3474 177.885 61.3474C173.842 61.3474 170.905 59.995 169.074 57.2903C167.271 54.5856 166.37 50.8564 166.37 46.1027ZM182.516 46.1027C182.516 43.3433 182.215 41.226 181.614 39.7507C181.013 38.2481 179.77 37.4968 177.885 37.4968C176 37.4968 174.757 38.2481 174.156 39.7507C173.555 41.226 173.254 43.3433 173.254 46.1027C173.254 47.9605 173.364 49.5041 173.582 50.7335C173.801 51.9356 174.238 52.9191 174.894 53.6841C175.577 54.4217 176.574 54.7905 177.885 54.7905C179.196 54.7905 180.18 54.4217 180.836 53.6841C181.519 52.9191 181.969 51.9356 182.188 50.7335C182.407 49.5041 182.516 47.9605 182.516 46.1027Z" fill="white"/>
</svg>
