<svg width="20" height="20" viewBox="0 0 20 20" fill="none" xmlns="http://www.w3.org/2000/svg">
<path d="M17.0712 6.46417C17.54 5.99531 17.8034 5.35941 17.8034 4.69635C17.8034 4.0333 17.54 3.39739 17.0712 2.92854C16.6023 2.45969 15.9664 2.19629 15.3034 2.19629C14.6403 2.19629 14.0044 2.45969 13.5356 2.92854L12.6587 3.80604L16.1937 7.34104L17.0712 6.46417Z" fill="#F58415"/>
<path d="M15.31 8.22494L7.83808 15.6981C7.43755 16.0985 6.93571 16.3826 6.38621 16.5199L3.52246 17.2362C3.41772 17.2624 3.30797 17.2611 3.20391 17.2323C3.09984 17.2035 3.00501 17.1482 2.92866 17.0719C2.85231 16.9955 2.79705 16.9007 2.76825 16.7966C2.73945 16.6926 2.7381 16.5828 2.76433 16.4781L3.48058 13.6143C3.61791 13.0648 3.90199 12.563 4.30246 12.1624L11.7743 4.68994L15.31 8.22557V8.22494Z" fill="#F58415"/>
</svg>
