<svg width="90" height="90" viewBox="0 0 90 90" fill="none" xmlns="http://www.w3.org/2000/svg">
<path d="M42.15 40.4751C51.0694 40.4751 58.3 33.2444 58.3 24.325C58.3 15.4056 51.0694 8.17505 42.15 8.17505C33.2306 8.17505 26 15.4056 26 24.325C26 33.2444 33.2306 40.4751 42.15 40.4751Z" fill="#F58415"/>
<path d="M52.5 70.0001H70V73.5001H52.5V70.0001Z" fill="#6A359F"/>
<path d="M37.5 75.0001V82.5001C37.5 83.1631 37.7634 83.799 38.2322 84.2679C38.7011 84.7367 39.337 85.0001 40 85.0001H82.5C83.1631 85.0001 83.7989 84.7367 84.2678 84.2679C84.7366 83.799 85 83.1631 85 82.5001V57.5001C85 56.8371 84.7366 56.2012 84.2678 55.7323C83.7989 55.2635 83.1631 55.0001 82.5 55.0001H65V51.3251C65 50.6621 64.7366 50.0262 64.2678 49.5573C63.7989 49.0885 63.1631 48.8251 62.5 48.8251C61.837 48.8251 61.2011 49.0885 60.7322 49.5573C60.2634 50.0262 60 50.6621 60 51.3251V55.0001H55V46.0501C50.7517 45.3562 46.4546 45.0051 42.15 45.0001C32.657 44.9597 23.2704 46.9992 14.65 50.9751C13.2312 51.6446 12.0343 52.7071 11.2012 54.0365C10.3681 55.3659 9.9339 56.9063 9.95002 58.4751V75.0001H37.5ZM80 80.0001H42.5V60.0001H60V61.0501C60 61.7131 60.2634 62.349 60.7322 62.8179C61.2011 63.2867 61.837 63.5501 62.5 63.5501C63.1631 63.5501 63.7989 63.2867 64.2678 62.8179C64.7366 62.349 65 61.7131 65 61.0501V60.0001H80V80.0001Z" fill="#F58415"/>
</svg>
