<svg width="22" height="22" viewBox="0 0 22 22" fill="none" xmlns="http://www.w3.org/2000/svg">
<path d="M11.0009 1.83521C5.93906 1.83521 1.83514 5.93912 1.83514 11.001C1.83514 15.5751 5.18648 19.3665 9.56906 20.0567V13.651H7.24073V11.001H9.56906V8.98154C9.56906 6.68254 10.9376 5.41479 13.0304 5.41479C14.0332 5.41479 15.0837 5.59354 15.0837 5.59354V7.84762H13.9251C12.7884 7.84762 12.4327 8.55529 12.4327 9.28037V10.9991H14.9728L14.5667 13.6492H12.4327V20.0549C16.8153 19.3683 20.1666 15.576 20.1666 11.001C20.1666 5.93912 16.0627 1.83521 11.0009 1.83521V1.83521Z" fill="white"/>
</svg>
