<svg width="434" height="311" viewBox="0 0 434 311" fill="none" xmlns="http://www.w3.org/2000/svg">
<path d="M322.257 157.046C313.937 182.23 296.007 209.841 269.615 218.827C229.746 232.414 226.169 265.063 153.827 264.841C143.263 264.856 132.728 263.726 122.408 261.472C117.363 260.352 112.394 258.912 107.532 257.161C64.6654 241.72 41.197 205 37.8355 165.761C33.4256 114.148 68.5943 88.1139 91.4953 72.7594C114.396 57.405 140.548 0.421556 211.687 0.0828086C222.547 -0.0144036 233.381 1.14088 243.975 3.52571C268.128 9.06884 292.985 22.4155 307.917 42.7588C309.033 44.2862 310.106 45.8383 311.143 47.452C331.305 78.7583 333.606 122.703 322.257 157.046Z" fill="#E9EAEB"/>
<path d="M9.74875 299.44C9.74875 299.44 16.6788 264.296 16.6788 261.526C16.6788 258.756 16.2457 248.629 13.9068 236.077C11.5679 223.613 4.63781 192.624 2.81866 187.604C0.999512 182.497 7.9296 173.321 9.74875 162.674C11.5679 152.027 15.7259 141.9 21.27 135.408C26.8141 128.916 46.7381 114.633 46.7381 114.633H56.8733C56.8733 114.633 53.1484 175.572 58.2594 184.834C63.3703 194.096 72.5527 213.485 73.5055 221.795C74.4584 230.105 68.9144 243.954 69.7806 251.831C70.7335 259.708 62.8505 272.606 61.0314 278.146C59.2122 283.686 60.0785 301.257 60.0785 301.257" fill="white"/>
<path d="M9.74875 299.44C9.74875 299.44 16.6788 264.296 16.6788 261.526C16.6788 258.756 16.2457 248.629 13.9068 236.077C11.5679 223.613 4.63781 192.624 2.81866 187.604C0.999512 182.497 7.9296 173.321 9.74875 162.674C11.5679 152.027 15.7259 141.9 21.27 135.408C26.8141 128.916 46.7381 114.633 46.7381 114.633H56.8733C56.8733 114.633 53.1484 175.572 58.2594 184.834C63.3703 194.096 72.5527 213.485 73.5055 221.795C74.4584 230.105 68.9144 243.954 69.7806 251.831C70.7335 259.708 62.8505 272.606 61.0314 278.146C59.2122 283.686 60.0785 301.257 60.0785 301.257" stroke="#263238" stroke-miterlimit="10" stroke-linecap="round" stroke-linejoin="round"/>
<path d="M45.7855 131.772L38.4222 140.342C38.4222 140.342 36.6031 150.209 35.6502 154.884C34.6973 159.471 32.8782 163.194 32.8782 163.194C32.8782 163.194 36.0833 170.551 37.9891 173.321C39.8083 176.091 40.7611 178.861 40.7611 178.861L45.8721 182.064V131.772C45.7855 131.772 49.9435 129.002 45.7855 131.772Z" fill="#263238" stroke="#263238" stroke-miterlimit="10" stroke-linecap="round" stroke-linejoin="round"/>
<path d="M20.2307 164.319C20.2307 164.319 23.9556 163.8 27.6806 163.8" stroke="#263238" stroke-miterlimit="10" stroke-linecap="round" stroke-linejoin="round"/>
<path d="M33.0515 136.62C33.0515 136.62 38.4223 138.178 38.4223 140.342" stroke="#263238" stroke-miterlimit="10" stroke-linecap="round" stroke-linejoin="round"/>
<path d="M1 305.413C1 305.413 3.3389 283.513 3.3389 281.176C3.3389 278.839 3.3389 276.588 3.3389 274.251C3.3389 271.914 5.67781 270.182 5.67781 270.182C5.67781 270.182 28.2006 265.595 50.7234 273.039C73.2462 280.57 68.0486 292.688 68.0486 292.688L66.9224 310" fill="white"/>
<path d="M1 305.413C1 305.413 3.3389 283.513 3.3389 281.176C3.3389 278.839 3.3389 276.588 3.3389 274.251C3.3389 271.914 5.67781 270.182 5.67781 270.182C5.67781 270.182 28.2006 265.595 50.7234 273.039C73.2462 280.57 68.0486 292.688 68.0486 292.688L66.9224 310" stroke="#263238" stroke-miterlimit="10" stroke-linecap="round" stroke-linejoin="round"/>
<path d="M320.911 222.314H51.7639C47.1727 222.314 43.4478 218.592 43.4478 214.005V54.1277C43.4478 49.54 47.1727 45.8179 51.7639 45.8179H320.824C325.416 45.8179 329.141 49.54 329.141 54.1277V214.005C329.227 218.592 325.502 222.314 320.911 222.314Z" fill="#263238" stroke="#263238" stroke-miterlimit="10" stroke-linecap="round" stroke-linejoin="round"/>
<path d="M310.863 212.62H61.8127C57.2215 212.62 53.4966 208.898 53.4966 204.31V63.8225C53.4966 59.2348 57.2215 55.5127 61.8127 55.5127H310.949C315.54 55.5127 319.265 59.2348 319.265 63.8225V204.31C319.179 208.898 315.454 212.62 310.863 212.62Z" fill="white" stroke="#263238" stroke-miterlimit="10" stroke-linecap="round" stroke-linejoin="round"/>
<path d="M299.6 61.918H228.653V107.276H299.6V61.918Z" fill="white" stroke="#263238" stroke-miterlimit="10" stroke-linecap="round" stroke-linejoin="round"/>
<path d="M299.6 102.255H228.653V107.275H299.6V102.255Z" fill="#263238" stroke="#263238" stroke-miterlimit="10" stroke-linecap="round" stroke-linejoin="round"/>
<path d="M299.6 103.986H228.653V105.458H299.6V103.986Z" fill="white" stroke="#263238" stroke-miterlimit="10" stroke-linecap="round" stroke-linejoin="round"/>
<path d="M263.757 94.7772C269.525 94.2913 273.808 89.2246 273.321 83.4603C272.835 77.696 267.764 73.417 261.996 73.9029C256.227 74.3888 251.945 79.4556 252.431 85.2199C252.917 90.9841 257.988 95.2631 263.757 94.7772Z" fill="#F58415"/>
<path d="M268.934 84.5966L259.838 79.3164V89.8768L268.934 84.5966Z" fill="white"/>
<path d="M299.6 112.209H228.653V157.567H299.6V112.209Z" fill="white" stroke="#263238" stroke-miterlimit="10" stroke-linecap="round" stroke-linejoin="round"/>
<path d="M299.6 152.46H228.653V157.48H299.6V152.46Z" fill="#263238" stroke="#263238" stroke-miterlimit="10" stroke-linecap="round" stroke-linejoin="round"/>
<path d="M299.6 154.278H228.653V155.749H299.6V154.278Z" fill="white" stroke="#263238" stroke-miterlimit="10" stroke-linecap="round" stroke-linejoin="round"/>
<path d="M263.76 145.07C269.528 144.584 273.811 139.518 273.324 133.753C272.838 127.989 267.767 123.71 261.999 124.196C256.23 124.682 251.948 129.749 252.434 135.513C252.92 141.277 257.991 145.556 263.76 145.07Z" fill="#F58415"/>
<path d="M268.935 134.888L259.839 129.608V140.082L268.935 134.888Z" fill="white"/>
<path d="M299.6 162.415H228.653V207.772H299.6V162.415Z" fill="white" stroke="#263238" stroke-miterlimit="10" stroke-linecap="round" stroke-linejoin="round"/>
<path d="M299.6 202.751H228.653V207.772H299.6V202.751Z" fill="#263238" stroke="#263238" stroke-miterlimit="10" stroke-linecap="round" stroke-linejoin="round"/>
<path d="M299.6 204.569H228.653V206.041H299.6V204.569Z" fill="white" stroke="#263238" stroke-miterlimit="10" stroke-linecap="round" stroke-linejoin="round"/>
<path d="M273.293 186.216C274.019 180.478 269.952 175.237 264.209 174.511C258.466 173.785 253.221 177.849 252.495 183.587C251.768 189.326 255.835 194.567 261.578 195.293C267.322 196.019 272.566 191.955 273.293 186.216Z" fill="#F58415"/>
<path d="M268.935 185.093L259.84 179.899V190.373L268.935 185.093Z" fill="white"/>
<path fill-rule="evenodd" clip-rule="evenodd" d="M204.485 209.936H83.642C80.87 209.936 78.6177 207.685 78.6177 204.916V82.0864C78.6177 79.3165 80.87 77.0659 83.642 77.0659H204.485C207.257 77.0659 209.51 79.3165 209.51 82.0864V204.916C209.51 207.685 207.257 209.936 204.485 209.936Z" fill="#6A359F"/>
<path d="M31.0596 196.952C31.0596 196.952 39.3757 178.861 40.3286 171.936C41.2814 165.011 39.3757 148.825 41.7146 142.333C44.0535 135.841 42.6675 127.531 48.2115 124.328C53.7556 121.125 61.1188 121.991 62.5048 134.975C63.8909 147.872 62.5048 168.214 62.938 175.139C63.3711 182.064 75.4121 192.191 75.8453 206.993C76.2784 221.795 71.2541 237.03 69.8681 243.522C68.482 250.014 62.938 265.248 62.938 265.248" fill="white"/>
<path d="M31.0596 196.952C31.0596 196.952 39.3757 178.861 40.3286 171.936C41.2814 165.011 39.3757 148.825 41.7146 142.333C44.0535 135.841 42.6675 127.531 48.2115 124.328C53.7556 121.125 61.1188 121.991 62.5048 134.975C63.8909 147.872 62.5048 168.214 62.938 175.139C63.3711 182.064 75.4121 192.191 75.8453 206.993C76.2784 221.795 71.2541 237.03 69.8681 243.522C68.482 250.014 62.938 265.248 62.938 265.248" stroke="#263238" stroke-miterlimit="10" stroke-linecap="round" stroke-linejoin="round"/>
<path d="M43.9667 139.303C43.9667 139.303 47.6916 138.178 52.2828 139.13C56.874 140.082 59.646 140.948 59.646 140.948C59.646 140.948 60.0791 136.36 59.646 131.686C59.646 131.686 60.2524 126.405 57.0472 124.241C53.8421 122.077 47.4317 122.683 45.2661 127.444C43.187 132.378 43.9667 139.303 43.9667 139.303Z" stroke="#263238" stroke-miterlimit="10" stroke-linecap="round" stroke-linejoin="round"/>
<path d="M55.4881 147.786C55.4881 147.786 44.8331 144.583 42.1477 148.824" stroke="#263238" stroke-miterlimit="10" stroke-linecap="round" stroke-linejoin="round"/>
<path d="M44.8333 150.469C44.8333 150.469 48.0384 151.508 54.9685 150.989" stroke="#263238" stroke-miterlimit="10" stroke-linecap="round" stroke-linejoin="round"/>
<path d="M323.163 72.6514C323.163 72.6514 311.122 76.3735 312.074 79.5762C313.027 82.7789 335.204 110.565 338.929 109.613C342.653 108.66 346.811 96.7151 346.811 88.4053C346.811 80.0956 323.163 72.6514 323.163 72.6514Z" fill="#263238" stroke="#263238" stroke-miterlimit="10" stroke-linecap="round" stroke-linejoin="round"/>
<path d="M421.397 154.278L410.049 140.601C410.049 140.601 395.236 105.977 391.078 99.0523C386.92 92.1274 377.651 72.2186 374.445 71.353C371.24 70.4008 366.562 69.968 365.176 69.0158C363.79 68.0637 358.246 66.2459 350.883 65.8131C343.52 65.3803 328.274 62.091 321.777 60.2732C315.28 58.4555 314.847 60.2732 306.964 63.0432C299.081 65.8131 275.518 74.1229 273.699 75.5079C271.88 76.8928 274.132 81.0477 280.196 83.3849C286.173 85.722 288.945 83.8177 295.875 82.9521C302.806 81.9999 313.461 80.1821 314.847 80.1821C316.233 80.1821 326.368 81.5671 328.274 82.5193C330.093 83.4714 334.771 90.829 334.771 94.5511C334.771 98.2732 333.818 102.428 333.818 102.428L333.644 134.542C333.644 134.542 348.284 151.075 358.42 156.701C368.555 162.328 373.406 162.674 373.406 162.674L389.172 177.303" fill="white"/>
<path d="M421.397 154.278L410.049 140.601C410.049 140.601 395.236 105.977 391.078 99.0523C386.92 92.1274 377.651 72.2186 374.445 71.353C371.24 70.4008 366.562 69.968 365.176 69.0158C363.79 68.0637 358.246 66.2459 350.883 65.8131C343.52 65.3803 328.274 62.091 321.777 60.2732C315.28 58.4555 314.847 60.2732 306.964 63.0432C299.081 65.8131 275.518 74.1229 273.699 75.5079C271.88 76.8928 274.132 81.0477 280.196 83.3849C286.173 85.722 288.945 83.8177 295.875 82.9521C302.806 81.9999 313.461 80.1821 314.847 80.1821C316.233 80.1821 326.368 81.5671 328.274 82.5193C330.093 83.4714 334.771 90.829 334.771 94.5511C334.771 98.2732 333.818 102.428 333.818 102.428L333.644 134.542C333.644 134.542 348.284 151.075 358.42 156.701C368.555 162.328 373.406 162.674 373.406 162.674L389.172 177.303" stroke="#263238" stroke-miterlimit="10" stroke-linecap="round" stroke-linejoin="round"/>
<path d="M365.263 68.9292C365.263 68.9292 369.854 73.5169 372.626 79.5761L365.263 68.9292Z" fill="white"/>
<path d="M365.263 68.9292C365.263 68.9292 369.854 73.5169 372.626 79.5761" stroke="#263238" stroke-miterlimit="10" stroke-linecap="round" stroke-linejoin="round"/>
<path d="M408.749 206.474L373.579 166.916C373.579 166.916 357.38 159.991 346.725 153.066C336.07 146.141 323.162 123.982 319.871 118.875C316.666 113.768 309.735 103.64 304.191 99.9179C298.647 96.1958 288.512 84.6833 286.173 80.0956C283.834 75.5079 287.992 69.4487 293.103 69.0159C298.214 68.5831 319.438 78.7106 323.162 84.2505C326.887 89.7038 337.542 101.303 337.542 101.303" fill="white"/>
<path d="M408.749 206.474L373.579 166.916C373.579 166.916 357.38 159.991 346.725 153.066C336.07 146.141 323.162 123.982 319.871 118.875C316.666 113.768 309.735 103.64 304.191 99.9179C298.647 96.1958 288.512 84.6833 286.173 80.0956C283.834 75.5079 287.992 69.4487 293.103 69.0159C298.214 68.5831 319.438 78.7106 323.162 84.2505C326.887 89.7038 337.542 101.303 337.542 101.303" stroke="#263238" stroke-miterlimit="10" stroke-linecap="round" stroke-linejoin="round"/>
<path d="M311.641 85.1162C311.641 85.1162 306.097 90.6561 305.664 93.426" stroke="#263238" stroke-miterlimit="10" stroke-linecap="round" stroke-linejoin="round"/>
<path d="M315.799 85.5493C315.799 85.5493 311.641 92.0413 308.869 94.2919" stroke="#263238" stroke-miterlimit="10" stroke-linecap="round" stroke-linejoin="round"/>
<path d="M306.964 76.3737C300.986 80.5286 296.828 88.319 296.828 88.319C296.828 88.319 286.953 84.6835 286.173 80.0092C285.394 75.2484 286.953 70.5741 293.103 68.9295C299.341 67.2848 306.964 76.3737 306.964 76.3737Z" stroke="#263238" stroke-miterlimit="10" stroke-linecap="round" stroke-linejoin="round"/>
<path d="M420.877 234.173C419.145 231.316 380.423 185.959 378.69 180.246C376.958 174.446 383.888 161.202 394.889 149.084C400.693 142.679 415.16 132.291 423.216 140.774C426.594 144.323 429.366 148.565 433.005 152.027" fill="white"/>
<path d="M420.877 234.173C419.145 231.316 380.423 185.959 378.69 180.246C376.958 174.446 383.888 161.202 394.889 149.084C400.693 142.679 415.16 132.291 423.216 140.774C426.594 144.323 429.366 148.565 433.005 152.027" stroke="#263238" stroke-miterlimit="10" stroke-linecap="round" stroke-linejoin="round"/>
<path d="M176.764 212.447L178.324 187.777C178.324 187.777 179.363 192.018 180.143 193.576C180.922 195.134 197.121 187.777 197.121 187.777C197.121 187.777 192.877 159.125 190.191 148.825C187.506 138.437 186.726 124.934 184.387 124.155C181.962 123.376 151.989 109.267 151.21 109.267C150.43 109.267 134.231 110.825 134.231 110.825L107.983 126.752L111.881 212.447H176.764Z" fill="white" stroke="#263238" stroke-miterlimit="10" stroke-linecap="round" stroke-linejoin="round"/>
<path d="M155.974 146.141C155.974 147.007 155.887 147.872 155.8 148.651" stroke="#263238" stroke-miterlimit="10" stroke-linecap="round" stroke-linejoin="round"/>
<path d="M154.415 123.29C154.415 123.29 155.887 133.071 156.061 142.333" stroke="#263238" stroke-miterlimit="10" stroke-linecap="round" stroke-linejoin="round"/>
<path d="M175.378 143.891L175.465 139.736" stroke="#263238" stroke-miterlimit="10" stroke-linecap="round" stroke-linejoin="round"/>
<path d="M174.599 186.132L175.292 147.007" stroke="#263238" stroke-miterlimit="10" stroke-linecap="round" stroke-linejoin="round"/>
<path d="M200.5 212.447L198.594 196.26L180.403 199.722L186.553 212.447H200.5Z" fill="white" stroke="#263238" stroke-miterlimit="10" stroke-linecap="round" stroke-linejoin="round"/>
<path d="M177.457 192.191C177.457 192.191 181.528 190.46 186.726 187.258C191.923 184.055 196.861 183.189 198.247 185.786C199.72 188.383 202.838 195.567 201.712 196.779C200.586 197.904 183.521 203.444 181.788 203.444C180.056 203.444 176.85 197.645 176.85 197.645C176.85 197.645 176.331 195.135 177.457 192.191Z" fill="white" stroke="#263238" stroke-miterlimit="10" stroke-linecap="round" stroke-linejoin="round"/>
<path d="M137.523 103.121C137.523 103.121 134.491 105.544 133.538 107.102C132.238 109.266 131.372 112.902 131.372 112.902L142.807 128.829L149.997 117.663L152.682 116.105L164.117 123.808C164.117 123.808 160.132 110.045 155.887 105.804C151.556 101.476 139.861 102.082 137.523 103.121Z" fill="white" stroke="#263238" stroke-miterlimit="10" stroke-linecap="round" stroke-linejoin="round"/>
<path d="M151.556 47.8955C151.556 47.8955 157.534 52.7429 158.14 55.4263C158.746 58.1096 157.1 64.0823 157.1 64.0823L149.131 48.5014L151.556 47.8955Z" fill="#263238" stroke="#263238" stroke-miterlimit="10" stroke-linecap="round" stroke-linejoin="round"/>
<path d="M149.737 45.5581C149.737 45.5581 160.652 69.1891 162.211 77.1526C163.77 85.1162 162.991 92.5604 160.045 98.1002C157.1 103.64 153.982 102.861 153.982 102.861V120.866C153.982 120.866 139.948 109.699 139.082 108.401C138.302 107.103 136.916 104.679 136.916 104.679C136.916 104.679 135.357 92.9932 130.246 89.5308C130.246 89.5308 123.576 90.5695 122.017 84.5103C120.457 78.451 121.757 76.287 126.001 75.7677C126.001 75.7677 122.536 67.0251 121.757 61.139C120.977 55.3394 130.766 53.4351 136.656 49.713C142.547 46.0775 149.737 45.5581 149.737 45.5581Z" fill="white" stroke="#263238" stroke-miterlimit="10" stroke-linecap="round" stroke-linejoin="round"/>
<path d="M153.982 102.861L148.784 100.87L153.635 109.786L153.982 102.861Z" fill="#263238" stroke="#263238" stroke-miterlimit="10" stroke-linecap="round" stroke-linejoin="round"/>
<path d="M125.568 77.672C125.568 77.672 122.103 76.3736 118.378 71.6128C114.654 66.852 113.614 63.1299 118.638 55.1663C123.663 47.2028 141.767 39.7586 146.792 40.5376C151.816 41.3167 155.021 47.7222 148.957 51.7039C142.894 55.6857 135.444 57.2438 135.444 57.2438C135.444 57.2438 138.389 54.8201 135.184 54.3007C131.979 53.7814 125.655 56.9841 126.175 59.5809C126.695 62.2643 130.679 61.3987 130.419 65.6401C130.16 69.8816 126.435 74.3827 127.734 76.0274C129.033 77.5855 132.239 78.9704 129.553 79.7495C126.868 80.5285 125.568 77.672 125.568 77.672Z" fill="#263238" stroke="#263238" stroke-miterlimit="10" stroke-linecap="round" stroke-linejoin="round"/>
<path d="M144.106 81.9136L140.121 85.0297" stroke="#263238" stroke-miterlimit="10" stroke-linecap="round" stroke-linejoin="round"/>
<path d="M142.287 83.9907C142.287 83.9907 147.311 88.7515 156.061 84.7698" stroke="#263238" stroke-miterlimit="10" stroke-linecap="round" stroke-linejoin="round"/>
<path d="M144.106 85.6357C144.106 85.6357 145.665 89.0981 149.91 90.1369C154.155 91.1756 152.076 86.4148 152.076 86.4148C152.076 86.4148 146.272 86.4148 144.106 85.6357Z" fill="#263238" stroke="#263238" stroke-miterlimit="10" stroke-linecap="round" stroke-linejoin="round"/>
<path d="M139.602 69.6218C140.035 70.8336 139.862 72.0455 139.342 72.2186C138.822 72.3917 137.956 71.5261 137.609 70.3143C137.176 69.1024 137.349 67.8906 137.869 67.7175C138.389 67.4578 139.169 68.3234 139.602 69.6218Z" fill="#263238"/>
<path d="M153.376 65.6403C153.809 66.8522 153.635 68.064 153.116 68.2372C152.596 68.4103 151.73 67.5447 151.383 66.3328C150.95 65.121 151.123 63.9091 151.643 63.736C152.163 63.4763 152.942 64.3419 153.376 65.6403Z" fill="#263238"/>
<path d="M146.359 71.6129L135.531 75.1619C134.578 75.5082 133.625 74.9888 133.279 74.0366L131.719 69.2758C131.373 68.3237 131.893 67.3715 132.845 67.0253L143.674 63.4763C144.627 63.13 145.579 63.6494 145.926 64.6016L147.485 69.3624C147.745 70.3145 147.312 71.2667 146.359 71.6129Z" stroke="#263238" stroke-miterlimit="10" stroke-linecap="round" stroke-linejoin="round"/>
<path d="M145.666 63.7359L149.564 62.4375" stroke="#263238" stroke-miterlimit="10" stroke-linecap="round" stroke-linejoin="round"/>
<path d="M131.719 69.2759L124.789 76.1142" stroke="#263238" stroke-miterlimit="10" stroke-linecap="round" stroke-linejoin="round"/>
<path d="M162.731 58.4556L157.534 62.7836" stroke="#263238" stroke-miterlimit="10" stroke-linecap="round" stroke-linejoin="round"/>
<path d="M163.857 66.2461L153.029 69.8816C152.076 70.2279 151.123 69.7085 150.776 68.7564L149.217 63.9955C148.871 63.0434 149.39 62.0912 150.343 61.745L161.171 58.196C162.124 57.8498 163.077 58.3691 163.424 59.3213L164.983 64.0821C165.33 64.9477 164.81 65.9864 163.857 66.2461Z" stroke="#263238" stroke-miterlimit="10" stroke-linecap="round" stroke-linejoin="round"/>
<path d="M133.798 65.2074C133.798 65.2074 137.003 61.2256 141.768 61.745" stroke="#263238" stroke-width="2" stroke-miterlimit="10" stroke-linecap="round" stroke-linejoin="round"/>
<path d="M148.351 59.5808C148.351 59.5808 150.517 57.4168 154.415 58.5421" stroke="#263238" stroke-width="2" stroke-miterlimit="10" stroke-linecap="round" stroke-linejoin="round"/>
<path d="M149.217 64.6016C149.217 64.6016 157.187 80.0093 156.407 81.048C155.628 82.0867 150.343 81.048 150.343 81.048" fill="white"/>
<path d="M149.217 64.6016C149.217 64.6016 157.187 80.0093 156.407 81.048C155.628 82.0867 150.343 81.048 150.343 81.048" stroke="#263238" stroke-miterlimit="10" stroke-linecap="round" stroke-linejoin="round"/>
<path d="M111.188 125.107C111.188 125.107 106.684 125.107 105.384 129.089C104.085 133.07 91.6108 178.428 92.9102 179.727C94.2096 181.025 110.928 182.15 112.834 181.544C114.653 181.025 122.623 150.469 122.623 150.469" fill="white"/>
<path d="M111.188 125.107C111.188 125.107 106.684 125.107 105.384 129.089C104.085 133.07 91.6108 178.428 92.9102 179.727C94.2096 181.025 110.928 182.15 112.834 181.544C114.653 181.025 122.623 150.469 122.623 150.469" stroke="#263238" stroke-miterlimit="10" stroke-linecap="round" stroke-linejoin="round"/>
<path d="M117.858 180.592C117.858 180.592 118.898 175.312 114.393 173.148C109.889 170.984 102.439 171.33 97.9345 174.706C93.43 178.169 92.6503 177.39 91.5242 183.968C90.4847 190.633 94.9892 194.875 98.7141 195.654C102.439 196.433 105.644 197.212 110.149 192.711C114.653 188.21 117.858 180.592 117.858 180.592Z" fill="white" stroke="#263238" stroke-miterlimit="10" stroke-linecap="round" stroke-linejoin="round"/>
<path d="M145.839 152.633C145.839 152.633 144.019 193.23 137.089 208.378C137.089 208.378 143.76 210.542 154.588 209.417C165.503 208.378 175.551 202.492 175.551 202.492C175.551 202.492 179.276 180.246 181.095 169.339C182.915 158.433 184.041 152.374 184.041 152.374C184.041 152.374 181.615 154.191 168.101 155.057C154.588 155.836 145.839 152.633 145.839 152.633Z" fill="white" stroke="#263238" stroke-miterlimit="10" stroke-linecap="round" stroke-linejoin="round"/>
<path d="M128.514 185.872C128.514 185.872 113.095 176.351 111.016 176.351C108.85 176.351 102.526 178.515 99.841 184.574C97.1556 190.633 97.4155 193.836 100.881 194.961C104.346 196 126.608 198.164 129.294 198.164C131.979 198.164 138.303 199.462 142.028 199.462C145.753 199.462 155.542 198.423 156.928 196.259C158.227 194.095 147.399 194.961 146.532 194.701C145.753 194.442 156.494 192.364 157.967 192.018C159.44 191.672 161.432 189.594 158.487 188.815C158.487 188.815 163.511 186.392 160.306 184.314L145.493 181.717L150.084 180.765C150.084 180.765 160.479 183.535 160.306 180.332C160.219 179.034 151.817 176.351 149.131 176.351C146.446 176.351 132.412 185.872 132.412 185.872H128.514Z" fill="white" stroke="#263238" stroke-miterlimit="10" stroke-linecap="round" stroke-linejoin="round"/>
<path d="M158.487 188.815L144.886 187.69" stroke="#263238" stroke-miterlimit="10" stroke-linecap="round" stroke-linejoin="round"/>
<path d="M175.119 45.8175C178.237 49.7127 182.742 52.8289 188.113 54.5601L177.631 72.9109L197.035 55.9451C197.209 55.9451 197.382 55.9451 197.642 55.9451C206.997 55.9451 215.227 51.8767 220.078 45.731H175.119V45.8175Z" fill="#263238" stroke="#263238" stroke-miterlimit="10" stroke-linecap="round" stroke-linejoin="round"/>
<path d="M197.208 8.68311C182.309 8.68311 170.181 18.9838 170.181 31.6216C170.181 41.4895 177.458 49.7993 187.766 53.0886L177.284 71.4394L196.602 54.5601C196.775 54.5601 196.949 54.5601 197.208 54.5601C212.108 54.5601 224.236 44.2594 224.236 31.6216C224.236 18.9838 212.108 8.68311 197.208 8.68311Z" fill="#6A359F"/>
<path d="M187.593 32.1409C187.593 30.4963 186.207 29.1113 184.561 29.1113C182.915 29.1113 181.529 30.4963 181.529 32.1409C181.529 33.7856 182.915 35.1706 184.561 35.1706C186.294 35.084 187.593 33.7856 187.593 32.1409Z" fill="white"/>
<path d="M201.02 32.1409C201.02 30.4963 199.634 29.1113 197.988 29.1113C196.342 29.1113 194.956 30.4963 194.956 32.1409C194.956 33.7856 196.342 35.1706 197.988 35.1706C199.634 35.084 201.02 33.7856 201.02 32.1409Z" fill="white"/>
<path d="M211.415 35.1706C213.09 35.1706 214.447 33.8141 214.447 32.1409C214.447 30.4677 213.09 29.1113 211.415 29.1113C209.741 29.1113 208.384 30.4677 208.384 32.1409C208.384 33.8141 209.741 35.1706 211.415 35.1706Z" fill="white"/>
</svg>
