<svg width="661" height="445" viewBox="0 0 661 445" fill="none" xmlns="http://www.w3.org/2000/svg">
<path d="M531.68 167.022V168.853" stroke="#263238" stroke-linecap="round" stroke-linejoin="round"/>
<path d="M531.68 173.37V180.084" stroke="#263238" stroke-linecap="round" stroke-linejoin="round" stroke-dasharray="3.67 3.67"/>
<path d="M531.68 182.281V184.112H529.85" stroke="#263238" stroke-linecap="round" stroke-linejoin="round"/>
<path d="M526.312 184.112H464.46" stroke="#263238" stroke-linecap="round" stroke-linejoin="round" stroke-dasharray="2.89 2.89"/>
<path d="M462.752 184.112H460.922V185.943" stroke="#263238" stroke-linecap="round" stroke-linejoin="round"/>
<path d="M460.922 189.24V220.857" stroke="#263238" stroke-linecap="round" stroke-linejoin="round" stroke-dasharray="2.73 2.73"/>
<path d="M460.922 222.566V224.397" stroke="#263238" stroke-linecap="round" stroke-linejoin="round"/>
<path d="M231.571 169.463V171.295" stroke="#263238" stroke-linecap="round" stroke-linejoin="round"/>
<path d="M231.571 174.835V223.176" stroke="#263238" stroke-linecap="round" stroke-linejoin="round" stroke-dasharray="2.93 2.93"/>
<path d="M231.571 225.007V226.839H233.401" stroke="#263238" stroke-linecap="round" stroke-linejoin="round"/>
<path d="M236.939 226.839H371.866" stroke="#263238" stroke-linecap="round" stroke-linejoin="round" stroke-dasharray="2.95 2.95"/>
<path d="M373.696 226.839H375.526" stroke="#263238" stroke-linecap="round" stroke-linejoin="round"/>
<path d="M419.536 8.10181H154.357V180.628H419.536V8.10181Z" fill="#F58415"/>
<path d="M428.96 1H165.938V169.463H428.96V1Z" fill="white" stroke="#263238" stroke-miterlimit="10" stroke-linecap="round" stroke-linejoin="round"/>
<path d="M412.49 9.17896H196.315V121.366H412.49V9.17896Z" fill="white" stroke="#263238" stroke-miterlimit="10" stroke-linecap="round" stroke-linejoin="round"/>
<path d="M343.319 27.124H376.014" stroke="#263238" stroke-miterlimit="10" stroke-linecap="round" stroke-linejoin="round"/>
<path d="M325.752 27.124H339.781" stroke="#263238" stroke-miterlimit="10" stroke-linecap="round" stroke-linejoin="round"/>
<path d="M364.302 34.5707H376.014" stroke="#263238" stroke-miterlimit="10" stroke-linecap="round" stroke-linejoin="round"/>
<path d="M325.752 34.5707H359.788" stroke="#263238" stroke-miterlimit="10" stroke-linecap="round" stroke-linejoin="round"/>
<path d="M370.036 41.8951H376.014" stroke="#263238" stroke-miterlimit="10" stroke-linecap="round" stroke-linejoin="round"/>
<path d="M342.343 41.8951H364.546" stroke="#263238" stroke-miterlimit="10" stroke-linecap="round" stroke-linejoin="round"/>
<path d="M325.752 41.8951H339.781" stroke="#263238" stroke-miterlimit="10" stroke-linecap="round" stroke-linejoin="round"/>
<path d="M339.049 49.2196H376.014" stroke="#263238" stroke-miterlimit="10" stroke-linecap="round" stroke-linejoin="round"/>
<path d="M325.752 49.2196H335.755" stroke="#263238" stroke-miterlimit="10" stroke-linecap="round" stroke-linejoin="round"/>
<path d="M372.354 73.8787H376.014" stroke="#263238" stroke-miterlimit="10" stroke-linecap="round" stroke-linejoin="round"/>
<path d="M325.752 73.8787H369.06" stroke="#263238" stroke-miterlimit="10" stroke-linecap="round" stroke-linejoin="round"/>
<path d="M354.054 81.2031H376.014" stroke="#263238" stroke-miterlimit="10" stroke-linecap="round" stroke-linejoin="round"/>
<path d="M325.752 81.2031H349.297" stroke="#263238" stroke-miterlimit="10" stroke-linecap="round" stroke-linejoin="round"/>
<path d="M345.271 88.5277H376.014" stroke="#263238" stroke-miterlimit="10" stroke-linecap="round" stroke-linejoin="round"/>
<path d="M325.752 88.5277H339.781" stroke="#263238" stroke-miterlimit="10" stroke-linecap="round" stroke-linejoin="round"/>
<path d="M360.276 95.9742H376.014" stroke="#263238" stroke-miterlimit="10" stroke-linecap="round" stroke-linejoin="round"/>
<path d="M337.341 95.9742H355.518" stroke="#263238" stroke-miterlimit="10" stroke-linecap="round" stroke-linejoin="round"/>
<path d="M325.752 95.9742H334.779" stroke="#263238" stroke-miterlimit="10" stroke-linecap="round" stroke-linejoin="round"/>
<path d="M259.508 32.7395C259.508 32.7395 260.972 33.594 262.924 30.5421C264.876 27.4903 265.73 21.1424 262.924 16.1373C260.118 11.1322 253.53 11.2543 249.992 11.4985C246.455 11.6205 244.381 7.34792 235.109 11.6205C225.837 15.8932 224.739 22.2411 224.373 27.6124C224.007 32.9837 227.179 37.9887 225.349 41.0406C223.519 44.0925 214.736 45.1911 212.906 51.7832C211.076 58.3752 215.102 62.1595 214.98 63.7465C214.858 65.4556 212.784 67.8971 209.002 69.8503C205.22 71.8035 202.048 82.424 210.1 88.1615C218.152 93.899 227.667 94.6315 238.403 88.8939C249.138 83.1564 256.58 72.2918 257.434 66.4322C258.288 60.4505 255.97 58.8635 259.264 56.5441C262.558 54.2247 266.584 50.0741 264.51 45.0691C262.436 40.064 259.02 36.4017 259.02 35.181C259.02 33.8382 259.508 32.7395 259.508 32.7395Z" fill="#263238"/>
<path d="M223.519 116.117C223.519 116.117 218.762 123.197 218.03 136.015C217.298 148.833 222.177 166.289 222.177 166.289H267.682C267.682 166.289 271.098 148.344 269.756 136.869C268.414 125.394 265.974 120.389 265.974 120.389L262.314 112.21L224.617 113.187L223.519 116.117Z" fill="#263238"/>
<path d="M238.403 42.3834C238.403 42.3834 238.281 55.9338 237.671 57.5207C237.061 59.2298 234.621 61.6713 227.545 64.7232C227.545 64.7232 232.059 93.5328 232.913 102.078C233.767 110.623 233.767 116.239 233.767 116.239C233.767 116.239 244.015 117.704 248.895 117.46C253.896 117.215 259.752 114.163 259.752 114.163L257.922 63.1362L250.236 58.6194L249.87 49.7079C249.87 49.7079 241.453 41.651 240.477 41.1627C239.745 40.6744 238.403 42.3834 238.403 42.3834Z" fill="white" stroke="#263238" stroke-miterlimit="10" stroke-linecap="round" stroke-linejoin="round"/>
<path d="M241.453 45.4353C241.453 45.4353 247.431 54.9571 250.48 57.8869L250.114 49.7079L241.941 43.1158L241.453 45.4353Z" fill="#263238" stroke="#263238" stroke-miterlimit="10" stroke-linecap="round" stroke-linejoin="round"/>
<path d="M258.41 71.3152L228.887 73.0242C230.351 82.1798 232.425 96.5847 233.035 102.2C233.889 110.745 233.889 116.361 233.889 116.361C233.889 116.361 244.137 117.826 249.016 117.582C254.018 117.337 259.874 114.286 259.874 114.286L258.41 71.3152Z" fill="white" stroke="#263238" stroke-miterlimit="10" stroke-linecap="round" stroke-linejoin="round"/>
<path d="M254.872 23.2177C254.872 23.2177 246.943 34.0823 238.403 36.768L236.207 37.0121C236.207 37.0121 233.767 33.594 232.547 36.768C231.327 39.9419 233.767 43.4821 235.231 44.2145C236.695 44.947 238.159 43.9704 238.159 43.9704L239.135 42.9938C239.135 42.9938 244.015 48.6092 247.309 50.4404C250.724 52.3936 252.188 53.8585 253.774 52.1494C255.482 50.4404 258.41 46.1677 259.142 41.2847C259.874 36.4017 259.874 28.9552 259.874 28.9552C259.874 28.9552 255.604 23.2177 254.872 23.2177Z" fill="white" stroke="#263238" stroke-miterlimit="10" stroke-linecap="round" stroke-linejoin="round"/>
<path d="M254.872 31.1525C254.872 31.1525 254.628 35.7913 256.092 36.7679C257.556 37.7445 257.556 39.4536 256.58 39.6977C255.604 39.9419 254.384 39.6977 254.384 39.6977" stroke="#263238" stroke-miterlimit="10" stroke-linecap="round" stroke-linejoin="round"/>
<path d="M248.772 41.2848C248.772 41.2848 250.968 43.7263 254.994 42.5055" stroke="#263238" stroke-miterlimit="10" stroke-linecap="round" stroke-linejoin="round"/>
<path d="M249.504 33.8382C249.504 34.6927 249.138 35.3031 248.772 35.3031C248.406 35.3031 248.04 34.5706 248.04 33.8382C248.04 32.9837 248.406 32.3733 248.772 32.3733C249.138 32.3733 249.504 32.9837 249.504 33.8382Z" fill="#263238"/>
<path d="M258.532 33.2278C258.532 34.0823 258.166 34.6927 257.8 34.6927C257.434 34.6927 257.068 33.9602 257.068 33.2278C257.068 32.3732 257.434 31.7629 257.8 31.7629C258.288 31.6408 258.532 32.3732 258.532 33.2278Z" fill="#263238"/>
<path d="M202.292 140.165C202.292 140.165 201.316 145.659 201.072 146.88C200.706 148.1 202.292 154.082 202.292 154.082C202.292 154.082 206.196 156.523 206.806 156.646C207.538 156.768 208.758 156.279 208.636 155.425C208.514 154.448 207.05 154.448 207.05 154.448L205.586 152.373L205.952 151.152C205.952 151.152 206.684 153.594 207.172 152.251C207.66 150.908 207.538 150.176 208.026 147.978C208.514 145.781 207.904 143.95 207.538 142.729C207.172 141.508 206.562 140.043 206.562 140.043L207.05 137.602L202.414 136.747L202.292 140.165Z" fill="white" stroke="#263238" stroke-miterlimit="10" stroke-linecap="round" stroke-linejoin="round"/>
<path d="M206.074 151.152L206.44 147.246" stroke="#263238" stroke-miterlimit="10" stroke-linecap="round" stroke-linejoin="round"/>
<path d="M233.767 61.3051C233.767 61.3051 239.867 114.163 239.135 130.644C239.135 130.644 225.715 130.033 216.932 128.202C216.932 128.202 226.935 101.834 227.057 98.9041C227.301 95.9743 224.739 91.5796 224.739 91.5796L208.514 139.433L202.048 137.48L218.884 69.7282L233.767 61.3051Z" fill="white" stroke="#263238" stroke-miterlimit="10" stroke-linecap="round" stroke-linejoin="round"/>
<path d="M299.279 76.6865L301.596 74.9774C301.596 74.9774 304.402 74.1229 305.378 73.0242C306.354 71.9256 306.476 71.5593 306.476 71.5593C306.476 71.5593 308.916 71.3152 309.77 69.7282C310.746 68.0192 310.502 63.3803 310.502 63.3803C310.502 63.3803 311.966 61.5492 311.844 60.4505C311.722 59.3518 310.746 59.1077 309.526 59.9622C308.306 60.8167 307.818 61.183 307.818 61.183L301.596 67.4088L299.523 69.1178C299.523 69.1178 299.035 71.071 298.425 72.1697C297.815 73.2684 296.351 75.2216 296.351 75.2216L299.279 76.6865Z" fill="white" stroke="#263238" stroke-miterlimit="10" stroke-linecap="round" stroke-linejoin="round"/>
<path d="M296.473 74.1228L298.791 70.4606C298.791 70.4606 300.255 66.5542 300.499 65.9438C300.865 65.3334 304.402 62.1595 304.646 61.9153C305.012 61.5491 306.476 58.4973 307.208 58.131C307.94 57.7648 308.306 59.1076 308.306 60.3284C308.306 61.5491 305.622 65.5776 305.622 65.5776C305.622 65.5776 305.378 69.2398 304.28 70.8268C303.182 72.5359 300.743 73.1462 300.743 73.1462" fill="white"/>
<path d="M296.473 74.1228L298.791 70.4606C298.791 70.4606 300.255 66.5542 300.499 65.9438C300.865 65.3334 304.402 62.1595 304.646 61.9153C305.012 61.5491 306.476 58.4973 307.208 58.131C307.94 57.7648 308.306 59.1076 308.306 60.3284C308.306 61.5491 305.622 65.5776 305.622 65.5776C305.622 65.5776 305.378 69.2398 304.28 70.8268C303.182 72.5359 300.743 73.1462 300.743 73.1462" stroke="#263238" stroke-miterlimit="10" stroke-linecap="round" stroke-linejoin="round"/>
<path d="M316.724 39.9419L303.792 74.367" stroke="#263238" stroke-miterlimit="10" stroke-linecap="round" stroke-linejoin="round"/>
<path d="M306.354 71.5593C306.354 71.5593 305.256 72.4138 305.988 68.3854" stroke="#263238" stroke-miterlimit="10" stroke-linecap="round" stroke-linejoin="round"/>
<path d="M310.38 63.3802C310.38 63.3802 308.672 64.8451 308.062 64.1127" stroke="#263238" stroke-miterlimit="10" stroke-linecap="round" stroke-linejoin="round"/>
<path d="M253.53 60.8168C253.53 60.8168 256.946 103.543 256.946 114.652C256.946 125.761 257.19 130.155 257.19 130.155C257.19 130.155 259.142 129.423 262.558 128.812C265.974 128.202 270.61 126.371 270.61 126.371C270.61 126.371 261.46 101.101 261.46 99.3924C261.46 97.6834 262.558 90.603 262.558 90.603C262.558 90.603 279.149 104.153 281.101 103.421C283.053 102.688 300.011 76.8086 300.011 76.8086L296.595 74.3671L277.929 88.2836C277.929 88.2836 265.486 64.9673 264.754 64.6011C264.022 64.2349 253.53 60.8168 253.53 60.8168Z" fill="white" stroke="#263238" stroke-miterlimit="10" stroke-linecap="round" stroke-linejoin="round"/>
<path d="M262.436 90.4809L264.632 79.3721L266.462 93.2886L262.436 90.4809Z" fill="#263238" stroke="#263238" stroke-miterlimit="10" stroke-linecap="round" stroke-linejoin="round"/>
<path d="M224.739 91.5795L220.836 83.0343" stroke="#263238" stroke-miterlimit="10" stroke-linecap="round" stroke-linejoin="round"/>
<path d="M428.96 150.664H165.938V169.463H428.96V150.664Z" fill="#263238" stroke="#263238" stroke-miterlimit="10" stroke-linecap="round" stroke-linejoin="round"/>
<path d="M428.96 157.378H165.938V162.871H428.96V157.378Z" fill="white" stroke="#263238" stroke-miterlimit="10" stroke-linecap="round" stroke-linejoin="round"/>
<path d="M466.9 444.376L456.165 334.631L447.747 336.462L462.996 444.376H466.9Z" fill="#263238" stroke="#263238" stroke-miterlimit="10" stroke-linecap="round" stroke-linejoin="round"/>
<path d="M342.831 444.376L358.08 336.462L349.663 334.631L338.927 444.376H342.831Z" fill="#263238" stroke="#263238" stroke-miterlimit="10" stroke-linecap="round" stroke-linejoin="round"/>
<path d="M352.103 347.937L346.735 219.514C346.369 211.823 352.469 205.475 360.154 205.475H450.065C457.872 205.475 464.094 212.19 463.484 220.002L453.481 347.937H352.103Z" fill="#263238" stroke="#263238" stroke-miterlimit="10" stroke-linecap="round" stroke-linejoin="round"/>
<path d="M462.02 319.738H342.709V347.815H462.02V319.738Z" fill="white" stroke="#263238" stroke-miterlimit="10" stroke-linecap="round" stroke-linejoin="round"/>
<path d="M352.103 347.937H343.075L336.731 295.078C336.731 290.806 340.147 287.388 344.417 287.388C348.687 287.388 352.103 290.806 352.103 295.078V347.937V347.937Z" fill="#263238" stroke="#263238" stroke-miterlimit="10" stroke-linecap="round" stroke-linejoin="round"/>
<path d="M453.481 347.937H462.508L468.852 295.078C468.852 290.806 465.436 287.388 461.166 287.388C456.896 287.388 453.481 290.806 453.481 295.078V347.937V347.937Z" fill="#263238" stroke="#263238" stroke-miterlimit="10" stroke-linecap="round" stroke-linejoin="round"/>
<path d="M364.058 248.446L368.328 291.904H435.669L439.939 248.446H364.058Z" fill="white" stroke="#263238" stroke-miterlimit="10" stroke-linecap="round" stroke-linejoin="round"/>
<path d="M391.385 177.276L355.518 197.418L335.999 256.869H476.294C476.294 256.869 453.847 199.128 449.455 196.076C445.063 193.024 410.538 176.91 410.538 176.91L391.385 177.276Z" fill="white" stroke="#263238" stroke-miterlimit="10" stroke-linecap="round" stroke-linejoin="round"/>
<path d="M390.043 172.271C390.043 172.271 386.993 174.59 386.383 177.032C385.651 179.351 383.333 198.517 383.333 198.517C383.333 198.517 396.143 190.094 399.803 189.484C403.463 188.751 421.64 199.86 421.64 199.86C421.64 199.86 417.248 178.009 413.954 173.37C410.538 168.487 395.777 166.778 390.043 172.271Z" fill="white" stroke="#263238" stroke-miterlimit="10" stroke-linecap="round" stroke-linejoin="round"/>
<path d="M392.117 179.962C392.117 179.962 401.145 210.48 401.877 207.184C402.609 203.766 410.66 180.938 410.66 180.938C410.66 180.938 395.411 182.281 392.117 179.962Z" fill="white" stroke="#263238" stroke-miterlimit="10" stroke-linecap="round" stroke-linejoin="round"/>
<path d="M385.163 158.721C385.163 158.721 387.359 170.44 389.067 175.079C390.897 179.718 397.241 189.362 402.243 188.263C407.244 187.164 415.418 176.91 416.516 172.882C417.614 168.975 418.956 152.495 418.956 148.955C418.956 145.415 415.418 140.043 404.317 143.217C393.337 146.635 385.529 151.64 385.163 158.721Z" fill="white" stroke="#263238" stroke-miterlimit="10" stroke-linecap="round" stroke-linejoin="round"/>
<path d="M392.117 179.962C392.117 179.962 395.777 174.346 403.097 175.689C410.538 177.032 412.612 179.596 412.612 179.596C412.612 179.596 408.342 188.873 402.365 189.85C396.265 190.949 391.873 182.403 392.117 179.962Z" fill="#263238" stroke="#263238" stroke-miterlimit="10" stroke-linecap="round" stroke-linejoin="round"/>
<path d="M397.119 179.84C397.119 179.84 400.535 181.671 406.879 179.84" stroke="white" stroke-miterlimit="10" stroke-linecap="round" stroke-linejoin="round"/>
<path d="M394.923 165.679C394.923 167.022 394.435 168.121 393.703 168.121C392.971 168.121 392.483 167.022 392.483 165.679C392.483 164.336 392.971 163.238 393.703 163.238C394.435 163.238 394.923 164.336 394.923 165.679Z" fill="#263238"/>
<path d="M409.684 165.679C409.684 167.022 409.196 168.121 408.464 168.121C407.732 168.121 407.244 167.022 407.244 165.679C407.244 164.336 407.732 163.238 408.464 163.238C409.074 163.238 409.684 164.336 409.684 165.679Z" fill="#263238"/>
<path d="M404.195 164.947L404.561 174.102H400.169" fill="white"/>
<path d="M404.195 164.947L404.561 174.102H400.169" stroke="#263238" stroke-miterlimit="10" stroke-linecap="round" stroke-linejoin="round"/>
<path d="M405.17 161.406C405.17 161.406 408.708 159.209 411.758 161.162Z" fill="white"/>
<path d="M405.17 161.406C405.17 161.406 408.708 159.209 411.758 161.162" stroke="#263238" stroke-miterlimit="10" stroke-linecap="round" stroke-linejoin="round"/>
<path d="M399.559 161.651C399.559 161.651 396.021 158.721 390.531 161.04Z" fill="white"/>
<path d="M399.559 161.651C399.559 161.651 396.021 158.721 390.531 161.04" stroke="#263238" stroke-miterlimit="10" stroke-linecap="round" stroke-linejoin="round"/>
<path d="M376.38 148.833L378.331 132.963C379.307 125.028 384.309 118.192 391.629 115.018C396.997 112.699 403.097 112.576 408.586 114.652L408.83 114.774C417.37 118.07 423.104 126.127 423.226 135.282L423.47 148.1" stroke="#263238" stroke-miterlimit="10" stroke-linecap="round" stroke-linejoin="round"/>
<path d="M381.503 163.238C379.429 163.726 377.356 162.383 376.868 160.43L375.16 152.983C374.672 150.908 376.014 148.833 377.966 148.344C380.039 147.856 382.113 149.199 382.601 151.152L384.309 158.599C384.797 160.674 383.577 162.749 381.503 163.238Z" fill="white" stroke="#263238" stroke-miterlimit="10" stroke-linecap="round" stroke-linejoin="round"/>
<path d="M422.372 163.36C420.298 163.238 418.712 161.406 418.834 159.331L419.444 151.763C419.566 149.687 421.396 148.1 423.47 148.222C425.544 148.344 427.13 150.176 427.008 152.251L426.398 159.82C426.276 161.895 424.446 163.482 422.372 163.36Z" fill="white" stroke="#263238" stroke-miterlimit="10" stroke-linecap="round" stroke-linejoin="round"/>
<path d="M412.246 147.002C412.246 147.002 406.878 152.007 397.973 158.11C389.067 164.214 381.259 161.651 381.625 159.942C381.991 158.11 383.455 155.669 383.455 155.669C383.455 155.669 380.283 156.768 379.551 150.664C378.819 144.56 377.356 131.01 384.187 125.761C391.019 120.389 406.268 118.314 413.1 120.389C419.932 122.587 422.738 132.475 422.738 137.114C422.738 141.752 421.274 151.03 421.274 151.03C421.274 151.03 422.738 153.227 418.834 154.937C414.93 156.768 412.002 154.937 412.734 151.763C413.222 148.467 412.246 147.002 412.246 147.002Z" fill="#263238" stroke="#263238" stroke-miterlimit="10" stroke-linecap="round" stroke-linejoin="round"/>
<path d="M342.099 240.755C342.099 240.755 346.125 239.046 353.201 241.732C360.276 244.417 374.306 248.446 376.38 248.446C378.454 248.446 389.799 249.422 389.799 249.422L390.165 256.869C390.165 256.869 339.171 257.846 336.121 256.869C333.071 255.892 334.047 246.126 342.099 240.755Z" fill="white" stroke="#263238" stroke-miterlimit="10" stroke-linecap="round" stroke-linejoin="round"/>
<path d="M377.966 252.718C377.966 252.718 386.871 245.028 389.677 243.319C392.361 241.61 400.169 253.817 400.413 254.794C400.657 255.77 398.461 256.259 398.461 256.259C398.461 256.259 392.483 255.038 391.263 254.794C390.043 254.55 388.823 255.77 385.529 255.77C382.235 255.77 376.624 255.77 376.624 255.77" fill="white"/>
<path d="M377.966 252.718C377.966 252.718 386.871 245.028 389.677 243.319C392.361 241.61 400.169 253.817 400.413 254.794C400.657 255.77 398.461 256.259 398.461 256.259C398.461 256.259 392.483 255.038 391.263 254.794C390.043 254.55 388.823 255.77 385.529 255.77C382.235 255.77 376.624 255.77 376.624 255.77" stroke="#263238" stroke-miterlimit="10" stroke-linecap="round" stroke-linejoin="round"/>
<path d="M471.78 240.755C471.78 240.755 467.754 239.046 460.678 241.732C453.603 244.417 439.573 248.446 437.499 248.446C435.425 248.446 424.08 249.422 424.08 249.422L423.714 256.869C423.714 256.869 474.708 257.846 477.758 256.869C480.808 255.892 479.832 246.126 471.78 240.755Z" fill="white" stroke="#263238" stroke-miterlimit="10" stroke-linecap="round" stroke-linejoin="round"/>
<path d="M432.863 252.718C432.863 252.718 423.958 245.028 421.152 243.319C418.468 241.61 410.66 253.817 410.416 254.794C410.172 255.77 412.368 256.259 412.368 256.259C412.368 256.259 418.346 255.038 419.566 254.794C420.786 254.55 422.006 255.77 425.3 255.77C428.594 255.77 434.205 255.77 434.205 255.77" fill="white"/>
<path d="M432.863 252.718C432.863 252.718 423.958 245.028 421.152 243.319C418.468 241.61 410.66 253.817 410.416 254.794C410.172 255.77 412.368 256.259 412.368 256.259C412.368 256.259 418.346 255.038 419.566 254.794C420.786 254.55 422.006 255.77 425.3 255.77C428.594 255.77 434.205 255.77 434.205 255.77" stroke="#263238" stroke-miterlimit="10" stroke-linecap="round" stroke-linejoin="round"/>
<path d="M433.107 291.905H368.328V319.982H433.107V291.905Z" fill="white" stroke="#263238" stroke-miterlimit="10" stroke-linecap="round" stroke-linejoin="round"/>
<path d="M374.306 290.195C374.306 290.195 393.093 295.323 396.509 308.995" stroke="#263238" stroke-miterlimit="10" stroke-linecap="round" stroke-linejoin="round"/>
<path d="M428.838 291.905C428.838 291.905 413.466 291.05 408.342 308.141" stroke="#263238" stroke-miterlimit="10" stroke-linecap="round" stroke-linejoin="round"/>
<path d="M381.503 308.141C382.113 297.886 375.282 288.242 365.034 286.533C361.984 286.045 358.69 286.167 355.518 287.754C342.709 293.736 355.274 433.267 355.274 433.267H365.522C365.4 433.145 378.819 350.623 381.503 308.141Z" fill="white" stroke="#263238" stroke-miterlimit="10" stroke-linecap="round" stroke-linejoin="round"/>
<path d="M354.054 424.844L351.127 437.784L340.879 444.254H366.742L367.23 424.844H354.054Z" fill="white" stroke="#263238" stroke-miterlimit="10" stroke-linecap="round" stroke-linejoin="round"/>
<path d="M351.127 437.784C351.127 437.784 357.592 433.633 362.228 437.784Z" fill="white"/>
<path d="M351.127 437.784C351.127 437.784 357.592 433.633 362.228 437.784" stroke="#263238" stroke-miterlimit="10" stroke-linecap="round" stroke-linejoin="round"/>
<path d="M424.202 308.141C423.592 297.886 430.423 288.242 440.671 286.533C443.721 286.045 447.015 286.167 450.187 287.754C462.996 293.736 450.431 433.267 450.431 433.267H440.183C440.183 433.145 426.886 350.623 424.202 308.141Z" fill="white" stroke="#263238" stroke-miterlimit="10" stroke-linecap="round" stroke-linejoin="round"/>
<path d="M451.529 424.844L454.579 437.784L464.704 444.254H438.841L438.475 424.844H451.529Z" fill="white" stroke="#263238" stroke-miterlimit="10" stroke-linecap="round" stroke-linejoin="round"/>
<path d="M454.579 437.784C454.579 437.784 448.113 433.633 443.477 437.784Z" fill="white"/>
<path d="M454.579 437.784C454.579 437.784 448.113 433.633 443.477 437.784" stroke="#263238" stroke-miterlimit="10" stroke-linecap="round" stroke-linejoin="round"/>
<path d="M444.297 257.306H360.43V210.827C360.43 209.123 361.777 207.785 363.491 207.785H441.236C442.95 207.785 444.297 209.123 444.297 210.827V257.306Z" fill="#6A359F"/>
<path d="M483.492 208.039C483.979 207.429 484.467 206.94 484.955 206.574" stroke="#263238" stroke-miterlimit="10" stroke-linecap="round" stroke-linejoin="round"/>
<path d="M487.639 225.252C487.639 225.252 491.421 221.345 485.565 217.561C482.028 215.242 481.54 212.556 482.393 210.236" stroke="#263238" stroke-miterlimit="10" stroke-linecap="round" stroke-linejoin="round"/>
<path d="M493.861 216.584C493.861 216.584 498.375 218.66 497.033 225.129" stroke="#263238" stroke-miterlimit="10" stroke-linecap="round" stroke-linejoin="round"/>
<path d="M503.987 228.303H484.955V256.503H503.987V228.303Z" fill="white" stroke="#263238" stroke-miterlimit="10" stroke-linecap="round" stroke-linejoin="round"/>
<path d="M503.255 252.718H501.181C500.327 252.718 499.595 251.986 499.595 251.131C499.595 250.277 500.327 249.545 501.181 249.545H503.133C504.719 249.545 506.061 248.202 506.061 246.615V239.779C506.061 238.192 504.719 236.849 503.133 236.849H500.571C499.717 236.849 498.985 236.116 498.985 235.262C498.985 234.407 499.717 233.675 500.571 233.675H503.133C506.549 233.675 509.232 236.483 509.232 239.779V246.615C509.354 249.911 506.549 252.718 503.255 252.718Z" fill="white" stroke="#263238" stroke-miterlimit="10" stroke-linecap="round" stroke-linejoin="round"/>
<path d="M290.141 232.546H273.368V257.306H290.141V232.546Z" fill="#263238" stroke="#263238" stroke-miterlimit="10" stroke-linecap="round" stroke-linejoin="round"/>
<path d="M553.395 444.376L543.513 271.274H534.973L549.613 444.376H553.395Z" fill="#263238" stroke="#263238" stroke-miterlimit="10" stroke-linecap="round" stroke-linejoin="round"/>
<path d="M584.626 444.376L574.622 271.274H566.204L580.722 444.376H584.626Z" fill="#263238" stroke="#263238" stroke-miterlimit="10" stroke-linecap="round" stroke-linejoin="round"/>
<path d="M261.216 444.376L273.66 271.274H265.12L257.434 444.376H261.216Z" fill="#263238" stroke="#263238" stroke-miterlimit="10" stroke-linecap="round" stroke-linejoin="round"/>
<path d="M226.325 444.376L238.769 271.274H230.229L222.543 444.376H226.325Z" fill="#263238" stroke="#263238" stroke-miterlimit="10" stroke-linecap="round" stroke-linejoin="round"/>
<path d="M585.479 261.508H224.739V276.645H585.479V261.508Z" fill="white" stroke="#263238" stroke-miterlimit="10" stroke-linecap="round" stroke-linejoin="round"/>
<path d="M585.479 261.508H224.739V266.757H585.479V261.508Z" fill="#263238" stroke="#263238" stroke-miterlimit="10" stroke-linecap="round" stroke-linejoin="round"/>
<path d="M590.237 256.381H220.104V262.118H590.237V256.381Z" fill="white" stroke="#263238" stroke-miterlimit="10" stroke-linecap="round" stroke-linejoin="round"/>
<path d="M558.397 1H450.065V70.4606H558.397V1Z" fill="white" stroke="#263238" stroke-miterlimit="10" stroke-linecap="round" stroke-linejoin="round"/>
<path d="M558.397 62.6478H450.065V70.3386H558.397V62.6478Z" fill="#263238" stroke="#263238" stroke-miterlimit="10" stroke-linecap="round" stroke-linejoin="round"/>
<path d="M558.397 65.4556H450.065V67.6529H558.397V65.4556Z" fill="white" stroke="#263238" stroke-miterlimit="10" stroke-linecap="round" stroke-linejoin="round"/>
<path d="M518.26 35.4252C518.26 26.6358 511.062 19.4333 502.279 19.4333C493.495 19.4333 486.297 26.6358 486.297 35.4252C486.297 44.2146 493.495 51.417 502.279 51.417C511.184 51.2949 518.26 44.2146 518.26 35.4252Z" fill="#6A359F"/>
<path d="M511.55 35.6692L497.643 27.7344V43.7262L511.55 35.6692Z" fill="white"/>
<path d="M558.397 92.312H450.065V161.773H558.397V92.312Z" fill="white" stroke="#263238" stroke-miterlimit="10" stroke-linecap="round" stroke-linejoin="round"/>
<path d="M558.397 154.082H450.065V161.773H558.397V154.082Z" fill="#263238" stroke="#263238" stroke-miterlimit="10" stroke-linecap="round" stroke-linejoin="round"/>
<path d="M558.397 156.768H450.065V158.965H558.397V156.768Z" fill="white" stroke="#263238" stroke-miterlimit="10" stroke-linecap="round" stroke-linejoin="round"/>
<path d="M518.26 126.737C518.26 117.948 511.062 110.745 502.279 110.745C493.495 110.745 486.297 117.948 486.297 126.737C486.297 135.527 493.495 142.729 502.279 142.729C511.184 142.729 518.26 135.527 518.26 126.737Z" fill="#6A359F"/>
<path d="M511.55 127.103L497.643 119.047V135.16L511.55 127.103Z" fill="white"/>
<path d="M603.535 201.325H573.158V165.679L578.404 160.674H603.535V201.325Z" fill="white" stroke="#263238" stroke-miterlimit="10" stroke-linecap="round" stroke-linejoin="round"/>
<path d="M573.158 166.656H582.918L579.014 162.627V165.679H573.28L573.158 165.801V166.656Z" fill="#263238"/>
<path d="M578.892 171.539H598.533" stroke="#263238" stroke-miterlimit="10" stroke-linecap="round" stroke-linejoin="round"/>
<path d="M578.892 176.544H598.533" stroke="#263238" stroke-miterlimit="10" stroke-linecap="round" stroke-linejoin="round"/>
<path d="M578.892 181.427H598.533" stroke="#263238" stroke-miterlimit="10" stroke-linecap="round" stroke-linejoin="round"/>
<path d="M578.892 186.432H598.533" stroke="#263238" stroke-miterlimit="10" stroke-linecap="round" stroke-linejoin="round"/>
<path d="M578.892 191.315H598.533" stroke="#263238" stroke-miterlimit="10" stroke-linecap="round" stroke-linejoin="round"/>
<path d="M641.963 227.693H611.587V191.925L616.832 186.92H641.963V227.693Z" fill="white" stroke="#263238" stroke-miterlimit="10" stroke-linecap="round" stroke-linejoin="round"/>
<path d="M611.587 193.024H621.346L617.442 188.873V191.925H611.709L611.587 192.047V193.024Z" fill="#263238"/>
<path d="M617.32 197.907H636.962" stroke="#263238" stroke-miterlimit="10" stroke-linecap="round" stroke-linejoin="round"/>
<path d="M617.32 202.79H636.962" stroke="#263238" stroke-miterlimit="10" stroke-linecap="round" stroke-linejoin="round"/>
<path d="M617.32 207.795H636.962" stroke="#263238" stroke-miterlimit="10" stroke-linecap="round" stroke-linejoin="round"/>
<path d="M617.32 212.678H636.962" stroke="#263238" stroke-miterlimit="10" stroke-linecap="round" stroke-linejoin="round"/>
<path d="M617.32 217.683H636.962" stroke="#263238" stroke-miterlimit="10" stroke-linecap="round" stroke-linejoin="round"/>
<path d="M121.775 328.039C124.337 329.137 130.681 329.015 130.681 329.015C130.803 329.015 129.339 324.865 129.217 324.621C127.875 321.691 123.483 316.93 119.945 317.418C117.383 317.784 115.92 320.348 116.53 322.789C117.14 325.353 119.701 327.184 121.775 328.039Z" fill="#263238"/>
<path d="M123.971 346.35C126.655 346.716 132.267 345.129 132.755 345.007C133.609 348.181 134.829 351.355 136.171 354.407C136.903 356.238 137.757 357.947 138.611 359.778C138.123 359.046 137.635 358.313 137.513 358.313C135.439 355.872 129.949 352.454 126.655 353.796C124.337 354.773 123.605 357.703 124.825 359.778C126.045 361.975 128.973 363.074 131.291 363.44C133.731 363.807 138.489 362.464 139.831 362.097C140.197 362.83 140.441 363.44 140.807 364.173C142.393 367.469 144.1 370.643 145.564 373.817C146.052 374.915 146.54 376.136 147.028 377.235C146.54 376.624 146.174 376.014 146.174 375.892C144.1 373.45 138.611 370.032 135.317 371.375C132.999 372.352 132.267 375.282 133.487 377.357C134.707 379.554 137.635 380.653 139.953 381.019C142.271 381.385 146.662 380.165 148.248 379.798C148.736 381.019 149.224 382.118 149.59 383.339C149.834 384.193 150.2 384.926 150.322 385.658C150.566 386.512 150.81 387.245 150.932 388.099C151.298 389.686 151.664 391.151 152.03 392.738C152.274 393.837 152.518 394.814 152.64 395.79C152.152 394.691 151.054 392.494 150.932 392.25C149.224 389.564 144.344 385.292 140.929 386.146C138.367 386.757 137.269 389.442 138.123 391.762C138.977 394.081 141.661 395.668 143.978 396.401C146.54 397.133 152.03 396.523 152.762 396.401C153.128 398.11 153.372 399.697 153.616 401.284C154.226 404.702 154.714 407.753 154.958 410.317H157.276C156.91 407.631 156.3 404.457 155.568 400.917C155.202 399.208 154.836 397.377 154.47 395.546C154.836 395.424 157.276 394.447 159.35 393.227C161.18 395.18 165.938 397.499 166.548 397.865C165.938 399.452 165.328 400.917 164.596 402.382C163.254 405.434 162.034 407.998 160.936 410.317H163.498C164.474 408.242 165.45 405.922 166.548 403.237C167.158 401.65 167.89 399.941 168.5 398.11C169.231 398.232 174.721 399.33 177.283 398.842C179.601 398.354 182.407 397.011 183.505 394.691C184.481 392.494 183.627 389.686 181.187 388.832C177.771 387.733 172.647 391.518 170.695 394.081C170.573 394.203 169.597 396.034 168.866 397.133C169.11 396.401 169.353 395.668 169.719 394.936C170.207 393.471 170.817 392.006 171.305 390.419C171.549 389.686 171.793 388.832 172.037 388.099C172.281 387.367 172.403 386.39 172.647 385.658C173.135 383.705 173.501 381.752 173.867 379.676C175.209 380.165 179.845 381.752 182.163 381.629C184.603 381.507 187.531 380.531 188.873 378.456C190.215 376.38 189.727 373.45 187.409 372.352C184.237 370.765 178.503 373.695 176.185 376.014C176.063 376.136 174.599 377.967 173.867 378.944C174.111 377.723 174.233 376.502 174.355 375.282C174.843 371.741 175.087 368.079 175.453 364.539C175.575 363.44 175.697 362.342 175.819 361.243C176.307 361.365 181.675 363.44 184.359 363.318C186.799 363.196 189.727 362.22 191.069 360.144C192.411 358.069 191.923 355.139 189.605 354.041C186.433 352.454 180.699 355.383 178.381 357.703C178.259 357.825 176.185 360.511 175.697 361.121C175.941 358.679 176.185 356.238 176.551 353.918C177.039 350.622 177.771 347.448 178.625 344.397C178.869 344.519 184.481 346.594 187.287 346.472C189.727 346.35 192.655 345.373 193.997 343.298C195.338 341.223 194.851 338.293 192.533 337.194C189.361 335.607 183.627 338.537 181.309 340.856C181.187 340.979 178.869 343.786 178.503 344.397C178.503 344.275 178.625 344.03 178.625 343.786C179.601 340.612 180.943 337.56 182.407 334.875C183.261 333.288 184.115 331.823 184.969 330.358C185.945 330.846 190.703 333.166 193.143 333.288C195.582 333.41 198.632 332.8 200.218 330.846C201.804 328.893 201.682 325.963 199.486 324.621C196.558 322.667 190.459 324.987 188.019 327.062C187.897 327.184 186.677 328.405 185.701 329.381C186.067 328.771 186.555 328.039 186.921 327.428C188.385 325.109 189.971 323.156 191.313 321.447C192.045 320.47 192.777 319.615 193.509 318.761C194.729 318.761 199.852 318.639 202.048 317.54C204.244 316.564 206.684 314.61 207.172 312.169C207.66 309.727 206.196 307.164 203.634 306.92C200.096 306.553 195.826 311.436 194.485 314.366C194.363 314.61 193.021 318.761 193.143 318.761H193.265C192.533 319.493 191.923 320.348 191.069 321.324C189.727 323.034 188.141 324.987 186.555 327.184C184.969 329.381 183.383 331.823 181.919 334.631C180.455 337.438 178.991 340.368 177.893 343.664V343.786C177.893 342.688 177.893 339.758 177.893 339.514C177.527 336.34 174.843 330.48 171.305 329.748C168.744 329.259 166.67 331.213 166.426 333.776C166.182 336.34 168.012 338.781 169.841 340.368C171.793 342.199 177.405 343.908 177.893 344.03C176.917 347.082 176.185 350.378 175.575 353.796C175.209 355.75 174.965 357.703 174.721 359.656C174.721 358.801 174.721 357.947 174.721 357.825C174.355 354.651 171.671 348.791 168.134 348.059C165.572 347.571 163.498 349.524 163.254 352.087C163.01 354.651 164.84 357.092 166.67 358.679C168.5 360.266 173.257 361.853 174.477 362.22C174.355 362.952 174.233 363.684 174.233 364.417C173.745 367.957 173.379 371.619 172.891 375.16C172.769 376.38 172.525 377.601 172.281 378.822C172.281 377.967 172.281 377.357 172.281 377.235C171.915 374.061 169.231 368.201 165.694 367.469C163.132 366.98 161.058 368.934 160.814 371.497C160.57 374.061 162.4 376.502 164.23 378.089C165.938 379.676 170.329 381.141 171.793 381.629C171.549 382.85 171.305 384.071 170.939 385.292C170.695 386.146 170.573 386.879 170.329 387.733C170.085 388.466 169.841 389.32 169.597 390.053C169.109 391.518 168.5 393.105 168.012 394.447C167.646 395.424 167.28 396.401 166.914 397.377C167.158 396.156 167.402 393.715 167.402 393.471C167.402 391.395 166.67 387.855 165.206 385.414C165.206 385.048 165.206 384.803 165.206 384.437C164.84 381.996 162.522 380.165 159.96 380.897C156.544 381.874 154.348 387.855 154.104 391.151C154.104 391.395 154.226 393.349 154.348 394.691C154.226 393.959 153.982 393.227 153.86 392.372C153.494 390.785 153.128 389.32 152.64 387.733C152.396 387.001 152.152 386.146 151.908 385.414C151.664 384.559 151.298 383.827 151.054 382.972C150.322 381.141 149.59 379.188 148.736 377.357C150.078 376.991 154.836 375.77 156.666 374.305C158.618 372.84 160.57 370.521 160.57 367.957C160.57 365.516 158.496 363.318 155.934 363.562C152.396 363.929 149.224 369.666 148.614 372.718C148.614 372.962 148.37 375.16 148.248 376.502C147.76 375.404 147.272 374.305 146.662 373.206C145.076 370.032 143.368 366.736 141.661 363.562C141.173 362.586 140.685 361.609 140.075 360.633C140.563 360.511 146.174 359.168 148.37 357.581C150.322 356.116 152.274 353.796 152.274 351.233C152.274 348.791 150.2 346.594 147.638 346.838C144.1 347.204 140.929 352.942 140.319 355.994C140.319 356.238 139.953 359.534 139.953 360.388C138.855 358.191 137.757 356.116 136.781 353.918C135.439 350.867 134.219 347.937 133.243 344.885C133.487 344.885 139.343 343.542 141.539 341.833C143.49 340.368 145.442 338.049 145.442 335.485C145.442 333.044 143.368 330.846 140.807 331.09C137.269 331.457 134.097 337.194 133.487 340.246C133.487 340.49 133.121 344.03 133.121 344.763C133.121 344.641 132.999 344.397 132.877 344.275C131.901 341.101 131.413 337.805 131.047 334.753C130.803 332.922 130.803 331.213 130.681 329.626C131.779 329.504 136.903 328.771 139.099 327.55C141.173 326.33 143.368 324.132 143.612 321.691C143.856 319.249 142.149 316.93 139.587 316.808C136.049 316.808 132.267 322.057 131.291 325.109C131.291 325.231 130.925 327.062 130.681 328.283C130.681 327.55 130.681 326.696 130.681 326.085C130.681 323.4 130.803 320.836 131.047 318.639C131.169 317.418 131.291 316.319 131.413 315.221C132.511 314.488 136.537 311.558 137.879 309.483C139.099 307.408 140.197 304.478 139.221 302.159C138.367 299.839 135.683 298.619 133.365 299.717C130.193 301.304 129.339 307.774 129.827 310.948C129.827 311.192 131.047 315.465 131.169 315.343C131.169 315.343 131.169 315.343 131.291 315.343C131.169 316.319 131.047 317.418 130.925 318.639C130.681 320.836 130.437 323.278 130.437 326.085C130.315 328.771 130.315 331.823 130.681 334.875C130.925 338.049 131.413 341.223 132.267 344.641V344.763C131.657 343.908 130.071 341.467 129.949 341.223C127.875 338.781 122.385 335.363 119.091 336.706C116.774 337.683 116.042 340.612 117.261 342.688C118.725 344.885 121.653 345.984 123.971 346.35Z" fill="#263238"/>
<path d="M185.457 329.503C185.457 329.503 186.555 325.353 186.677 324.987C187.165 321.813 186.067 315.465 182.895 313.878C180.577 312.779 178.015 314.122 177.161 316.441C176.307 318.761 177.405 321.691 178.747 323.766C180.089 326.085 185.457 329.503 185.457 329.503Z" fill="#263238"/>
<path d="M177.283 444.376H142.88L138.611 406.167H181.675L177.283 444.376Z" fill="white" stroke="#263238" stroke-miterlimit="10" stroke-linecap="round" stroke-linejoin="round"/>
<path d="M139.465 413.247L139.831 416.909H180.455L180.821 413.247H139.465Z" fill="#263238"/>
<path d="M179.479 425.088L179.967 421.304H140.319L140.807 425.088H179.479Z" fill="#263238"/>
<path d="M31.4988 444.376H1" stroke="#263238" stroke-miterlimit="10" stroke-linecap="round" stroke-linejoin="round"/>
<path d="M623.176 444.376H55.8979" stroke="#263238" stroke-miterlimit="10" stroke-linecap="round" stroke-linejoin="round"/>
<path d="M659.775 444.376H640.255" stroke="#263238" stroke-miterlimit="10" stroke-linecap="round" stroke-linejoin="round"/>
</svg>
