<svg width="598" height="319" viewBox="0 0 598 319" fill="none" xmlns="http://www.w3.org/2000/svg">
<path d="M582.021 116.514C582.021 116.514 570.499 55.4213 505.799 21.2737C441.098 -12.874 362.216 -3.89243 329.423 33.8123C296.629 71.517 299.288 138.034 264.722 136.255C230.156 134.477 216.861 86.8123 169 117.403C121.139 147.993 145.956 189.255 142.411 215.4C138.866 241.455 98.0952 200.993 65.3017 211.842C32.5082 222.603 17.4409 253.193 20.9861 271.156C24.5314 289.119 8.57776 311.618 8.57776 311.618H587.339C587.339 311.529 596.202 194.769 582.021 116.514Z" fill="#E9EAEB"/>
<path d="M1 312.02L597 312.02" stroke="#263238" stroke-miterlimit="10" stroke-linecap="round" stroke-linejoin="round"/>
<path d="M83.3824 214.51C85.9527 215.666 92.3342 215.489 92.3342 215.489C92.4228 215.489 91.0047 211.309 90.8275 211.042C89.4094 208.108 85.0664 203.306 81.4325 203.75C78.8622 204.106 77.4442 206.685 77.9759 209.175C78.5964 211.754 81.1667 213.621 83.3824 214.51Z" fill="#F58415"/>
<path d="M85.5096 233.007C88.1685 233.363 93.8409 231.762 94.2841 231.584C95.1704 234.785 96.3226 237.987 97.7407 241.099C98.5384 242.878 99.336 244.745 100.222 246.524C99.6906 245.723 99.2474 245.101 99.1588 245.012C97.0316 242.522 91.5365 239.054 88.1685 240.477C85.7755 241.455 85.0664 244.39 86.3073 246.613C87.5481 248.836 90.4729 249.992 92.866 250.348C95.259 250.703 100.134 249.369 101.463 249.014C101.818 249.725 102.172 250.348 102.438 251.059C104.122 254.349 105.717 257.64 107.224 260.841C107.756 261.997 108.288 263.153 108.731 264.309C108.288 263.598 107.845 263.064 107.845 262.975C105.717 260.485 100.222 257.017 96.8544 258.44C94.4613 259.418 93.7523 262.353 94.9931 264.576C96.234 266.799 99.1588 267.955 101.552 268.311C103.856 268.666 108.376 267.51 109.883 267.066C110.326 268.222 110.858 269.467 111.213 270.623C111.479 271.423 111.744 272.223 112.01 273.024C112.276 273.824 112.453 274.624 112.719 275.425C113.074 276.937 113.517 278.537 113.783 280.049C114.049 281.116 114.226 282.094 114.403 283.161C113.872 282.005 112.808 279.782 112.719 279.604C111.035 276.848 106.072 272.579 102.527 273.468C100.045 274.091 98.8929 276.848 99.6906 279.249C100.577 281.65 103.324 283.161 105.629 283.873C108.199 284.673 113.783 283.962 114.492 283.873C114.846 285.562 115.112 287.163 115.378 288.764C115.999 292.232 116.442 295.255 116.796 297.834H119.189C118.746 295.166 118.214 291.965 117.505 288.319C117.151 286.629 116.796 284.762 116.353 282.895C116.796 282.717 119.189 281.739 121.317 280.582C123.178 282.628 127.875 284.94 128.496 285.207C127.875 286.807 127.166 288.319 126.546 289.831C125.216 292.854 123.976 295.522 122.912 297.834H125.482C126.457 295.7 127.432 293.299 128.584 290.631C129.205 289.03 129.914 287.252 130.623 285.473C131.332 285.651 136.827 286.718 139.486 286.185C141.879 285.651 144.715 284.317 145.779 282.005C146.842 279.693 145.867 276.936 143.386 276.047C139.929 274.891 134.7 278.804 132.839 281.383C132.75 281.561 131.686 283.339 131.066 284.495C131.332 283.784 131.598 283.072 131.864 282.272C132.395 280.76 132.927 279.249 133.459 277.648C133.725 276.848 133.902 276.047 134.168 275.247C134.434 274.447 134.611 273.557 134.789 272.757C135.232 270.801 135.675 268.755 135.941 266.71C137.27 267.155 141.879 268.844 144.361 268.666C146.754 268.489 149.767 267.599 151.185 265.465C152.515 263.331 152.072 260.396 149.767 259.24C146.576 257.551 140.815 260.663 138.511 262.886C138.334 263.064 136.916 264.843 136.118 265.91C136.295 264.665 136.473 263.42 136.65 262.175C137.093 258.618 137.447 254.883 137.802 251.237C137.891 250.081 138.068 249.014 138.156 247.858C138.6 248.036 144.095 250.081 146.842 249.903C149.235 249.725 152.249 248.836 153.667 246.702C154.996 244.567 154.553 241.633 152.249 240.477C149.058 238.787 143.297 241.9 140.993 244.123C140.815 244.301 138.688 246.968 138.245 247.591C138.511 245.101 138.777 242.7 139.131 240.299C139.663 237.009 140.284 233.807 141.259 230.695C141.436 230.784 147.197 232.918 149.944 232.74C152.337 232.562 155.351 231.673 156.769 229.539C158.098 227.405 157.655 224.47 155.351 223.314C152.16 221.624 146.399 224.737 144.095 226.96C143.918 227.138 141.702 229.983 141.259 230.517C141.347 230.339 141.347 230.161 141.436 229.983C142.411 226.693 143.829 223.67 145.247 220.913C146.045 219.312 146.931 217.801 147.817 216.378C148.881 216.911 153.578 219.223 156.06 219.312C158.453 219.401 161.555 218.868 163.15 216.911C164.746 214.955 164.569 212.02 162.441 210.598C159.428 208.552 153.401 211.042 150.831 212.999C150.653 213.088 149.413 214.421 148.526 215.311C148.969 214.688 149.324 213.977 149.767 213.354C151.274 211.042 152.781 209.086 154.199 207.307C154.996 206.329 155.705 205.44 156.415 204.64C157.655 204.64 162.796 204.462 165.012 203.395C167.228 202.327 169.709 200.46 170.241 197.97C170.773 195.48 169.266 192.99 166.696 192.723C163.062 192.368 158.808 197.259 157.478 200.282C157.389 200.549 156.06 204.728 156.149 204.728H156.237C155.528 205.529 154.819 206.329 154.11 207.307C152.692 208.997 151.097 211.042 149.59 213.265C147.995 215.489 146.399 217.978 144.892 220.824C143.386 223.581 141.968 226.604 140.904 229.895V229.983C140.904 228.916 140.904 225.982 140.815 225.715C140.372 222.514 137.713 216.556 134.168 215.844C131.598 215.4 129.471 217.356 129.205 219.846C129.027 222.425 130.8 224.915 132.661 226.604C134.7 228.383 140.284 230.161 140.727 230.339C139.752 233.452 138.954 236.831 138.334 240.21C137.979 242.166 137.713 244.123 137.447 246.079C137.447 245.19 137.447 244.301 137.359 244.212C136.916 241.01 134.257 235.052 130.711 234.341C128.141 233.896 126.014 235.853 125.748 238.343C125.571 240.921 127.343 243.411 129.205 245.101C131.066 246.702 135.763 248.302 137.093 248.747C137.004 249.547 136.916 250.259 136.827 251.059C136.384 254.705 135.941 258.351 135.498 261.908C135.32 263.153 135.054 264.398 134.877 265.643C134.877 264.843 134.877 264.131 134.877 264.042C134.434 260.841 131.775 254.883 128.23 254.171C125.659 253.727 123.532 255.683 123.266 258.173C123.089 260.752 124.862 263.242 126.723 264.931C128.496 266.532 132.839 268.044 134.345 268.489C134.079 269.733 133.814 270.978 133.548 272.223C133.282 273.024 133.193 273.824 132.839 274.624C132.573 275.425 132.307 276.225 132.041 277.025C131.509 278.537 130.977 280.049 130.357 281.561C130.002 282.539 129.559 283.517 129.205 284.495C129.382 283.25 129.737 280.849 129.737 280.582C129.825 278.448 129.027 274.891 127.521 272.49C127.521 272.134 127.521 271.868 127.432 271.512C127.078 269.022 124.685 267.155 122.203 267.866C118.746 268.755 116.53 274.98 116.353 278.181C116.353 278.359 116.442 280.494 116.53 281.738C116.353 280.938 116.176 280.227 115.999 279.426C115.644 277.915 115.201 276.314 114.758 274.713C114.492 273.913 114.315 273.113 114.049 272.312C113.783 271.512 113.517 270.712 113.163 269.822C112.453 267.955 111.656 265.999 110.858 264.131C112.188 263.775 116.974 262.619 118.924 261.108C120.873 259.596 122.823 257.195 122.823 254.705C122.823 252.215 120.785 249.992 118.214 250.348C114.581 250.703 111.479 256.483 110.858 259.685C110.858 259.863 110.592 262.175 110.504 263.509C109.972 262.353 109.44 261.285 108.908 260.129C107.313 256.839 105.54 253.638 103.856 250.437C103.324 249.458 102.793 248.48 102.35 247.502C102.793 247.413 108.554 246.079 110.681 244.39C112.631 242.878 114.581 240.477 114.581 237.987C114.581 235.497 112.542 233.274 109.972 233.629C106.338 233.985 103.236 239.765 102.615 242.967C102.527 243.233 102.261 246.524 102.261 247.413C101.109 245.19 100.045 243.056 98.9815 240.832C97.5634 237.809 96.4112 234.697 95.4363 231.673C95.7022 231.584 101.64 230.25 103.856 228.561C105.806 227.049 107.756 224.648 107.756 222.158C107.756 219.668 105.717 217.445 103.147 217.801C99.5133 218.156 96.4112 223.936 95.7908 227.138C95.7022 227.405 95.4363 230.962 95.4363 231.673C95.3476 231.495 95.259 231.317 95.259 231.14C94.2841 227.849 93.7523 224.559 93.3978 221.447C93.2205 219.668 93.1319 217.89 93.0432 216.2C94.1954 216.022 99.4247 215.4 101.552 214.066C103.59 212.821 105.895 210.598 106.161 208.108C106.427 205.618 104.654 203.217 102.084 203.217C98.4497 203.217 94.7272 208.552 93.7523 211.665C93.6637 211.843 93.3091 213.621 93.1319 214.866C93.1319 214.066 93.1319 213.354 93.1319 212.554C93.1319 209.797 93.3091 207.307 93.4864 205.084C93.575 203.839 93.7523 202.683 93.8409 201.616C94.9045 200.905 99.0702 197.97 100.4 195.836C101.64 193.791 102.704 190.767 101.729 188.366C100.843 186.054 98.1838 184.72 95.8794 185.965C92.6887 187.655 91.8024 194.146 92.3342 197.348C92.4228 197.614 93.575 201.883 93.6637 201.794H93.7523C93.575 202.861 93.4864 203.928 93.3091 205.084C93.1319 207.307 92.866 209.797 92.7773 212.554C92.6887 215.311 92.6887 218.334 92.9546 221.447C93.2205 224.648 93.6637 227.938 94.6386 231.228V231.317C94.1068 230.428 92.4228 227.938 92.2456 227.76C90.1184 225.27 84.6233 221.802 81.2553 223.225C78.8623 224.203 78.1532 227.138 79.394 229.361C80.1917 231.495 83.1166 232.651 85.5096 233.007Z" fill="#F58415"/>
<path d="M147.551 215.933C147.64 215.933 148.704 211.665 148.704 211.398C149.147 208.197 148.172 201.705 144.892 200.104C142.588 198.948 139.929 200.371 139.043 202.683C138.156 205.084 139.309 208.019 140.55 210.064C142.145 212.554 147.551 215.933 147.551 215.933Z" fill="#F58415"/>
<path d="M539.656 261.819C541.251 262.53 544.974 262.441 544.974 262.441C544.974 262.441 544.176 259.952 544.087 259.774C543.29 257.995 540.631 255.15 538.503 255.416C536.997 255.594 536.11 257.195 536.465 258.618C536.819 260.129 538.415 261.196 539.656 261.819Z" fill="#F58415"/>
<path d="M540.985 272.846C542.58 273.113 545.948 272.134 546.214 272.045C546.746 273.913 547.455 275.869 548.253 277.737C548.696 278.804 549.228 279.871 549.76 280.938C549.494 280.493 549.139 280.049 549.139 280.049C547.898 278.626 544.619 276.492 542.58 277.381C541.162 278.004 540.719 279.693 541.428 281.027C542.137 282.361 543.91 283.072 545.328 283.25C546.746 283.428 549.671 282.717 550.469 282.45C550.646 282.895 550.912 283.25 551.089 283.695C552.064 285.651 553.039 287.608 553.925 289.564C554.28 290.275 554.546 290.898 554.812 291.609C554.546 291.165 554.28 290.898 554.28 290.809C553.039 289.386 549.76 287.252 547.721 288.141C546.303 288.764 545.86 290.453 546.569 291.787C547.278 293.121 549.051 293.832 550.469 294.01C551.887 294.188 554.546 293.477 555.432 293.299C555.698 294.01 555.964 294.722 556.23 295.433C556.407 295.878 556.584 296.411 556.673 296.856C556.85 297.301 556.939 297.834 557.116 298.279C557.382 299.168 557.559 300.146 557.736 301.035C557.914 301.658 558.002 302.28 558.091 302.903C557.736 302.191 557.116 300.858 557.116 300.769C556.052 299.168 553.128 296.589 551.089 297.123C549.582 297.478 548.873 299.168 549.405 300.591C549.937 302.014 551.532 302.992 552.95 303.348C554.457 303.792 557.825 303.348 558.268 303.348C558.445 304.326 558.623 305.304 558.8 306.282C559.154 308.327 559.42 310.195 559.598 311.707H561.016C560.75 310.106 560.484 308.15 560.041 306.015C559.864 304.948 559.598 303.881 559.332 302.814C559.598 302.725 561.016 302.103 562.257 301.391C563.32 302.636 566.156 303.97 566.599 304.148C566.245 305.126 565.802 306.015 565.447 306.905C564.65 308.683 563.941 310.284 563.231 311.707H564.738C565.27 310.462 565.89 309.039 566.599 307.438C566.954 306.46 567.397 305.393 567.84 304.326C568.283 304.415 571.563 305.126 573.158 304.77C574.576 304.415 576.26 303.614 576.881 302.28C577.501 300.947 576.969 299.257 575.463 298.723C573.424 298.012 570.322 300.324 569.17 301.925C569.081 302.014 568.461 303.081 568.106 303.792C568.283 303.348 568.461 302.903 568.638 302.458C568.993 301.569 569.258 300.68 569.613 299.702C569.79 299.257 569.879 298.723 570.056 298.279C570.233 297.834 570.322 297.301 570.411 296.767C570.677 295.611 570.942 294.366 571.12 293.21C571.917 293.477 574.665 294.455 576.172 294.366C577.59 294.277 579.451 293.743 580.249 292.41C581.046 291.165 580.78 289.386 579.362 288.675C577.412 287.697 573.956 289.475 572.626 290.898C572.538 290.987 571.651 292.054 571.208 292.676C571.297 291.965 571.474 291.254 571.563 290.453C571.829 288.319 572.006 286.096 572.272 283.962C572.36 283.25 572.449 282.628 572.449 282.005C572.715 282.094 575.994 283.339 577.678 283.25C579.096 283.161 580.958 282.628 581.755 281.294C582.553 280.049 582.287 278.27 580.869 277.559C578.919 276.581 575.463 278.359 574.133 279.782C574.044 279.871 572.804 281.472 572.449 281.916C572.626 280.493 572.804 278.982 572.981 277.559C573.247 275.603 573.69 273.646 574.222 271.868C574.31 271.957 577.767 273.202 579.451 273.113C580.869 273.024 582.73 272.49 583.528 271.156C584.326 269.911 584.06 268.133 582.642 267.421C580.692 266.443 577.235 268.222 575.906 269.645C575.817 269.733 574.488 271.423 574.222 271.779C574.222 271.69 574.31 271.512 574.31 271.423C574.931 269.467 575.729 267.688 576.615 265.999C577.147 265.02 577.59 264.131 578.121 263.242C578.742 263.509 581.578 264.931 583.085 265.02C584.503 265.109 586.364 264.754 587.339 263.598C588.314 262.441 588.225 260.663 586.896 259.774C585.123 258.618 581.49 260.04 579.983 261.197C579.894 261.285 579.096 261.997 578.565 262.619C578.831 262.264 579.096 261.819 579.274 261.463C580.16 260.129 581.135 258.884 581.933 257.817C582.376 257.195 582.819 256.661 583.262 256.217C584.06 256.217 587.073 256.128 588.403 255.505C589.732 254.883 591.239 253.727 591.505 252.215C591.771 250.703 590.884 249.191 589.378 249.014C587.251 248.747 584.68 251.77 583.883 253.549C583.794 253.727 582.996 256.217 583.085 256.217C583.085 256.217 583.085 256.217 583.173 256.217C582.73 256.661 582.376 257.195 581.844 257.728C581.046 258.795 580.071 259.952 579.096 261.285C578.122 262.619 577.147 264.131 576.26 265.821C575.374 267.51 574.488 269.289 573.867 271.245V271.334C573.867 270.712 573.867 268.933 573.867 268.755C573.601 266.799 572.006 263.242 569.879 262.886C568.372 262.619 567.043 263.775 566.954 265.287C566.865 266.799 567.929 268.311 568.993 269.289C570.233 270.356 573.601 271.423 573.867 271.512C573.247 273.379 572.804 275.336 572.449 277.381C572.272 278.537 572.095 279.693 571.917 280.938C571.917 280.405 571.917 279.871 571.917 279.871C571.651 277.915 570.056 274.358 567.929 274.002C566.422 273.735 565.093 274.891 565.004 276.403C564.915 277.915 565.979 279.426 567.043 280.405C568.106 281.383 571.031 282.361 571.74 282.539C571.651 282.983 571.651 283.428 571.563 283.873C571.297 286.007 571.031 288.23 570.765 290.364C570.676 291.076 570.499 291.876 570.411 292.587C570.411 292.143 570.411 291.698 570.411 291.609C570.145 289.653 568.549 286.096 566.422 285.74C564.916 285.473 563.586 286.629 563.497 288.141C563.409 289.653 564.472 291.165 565.536 292.143C566.599 293.032 569.17 294.01 570.145 294.277C569.967 294.988 569.79 295.789 569.613 296.5C569.436 296.945 569.347 297.478 569.17 297.923C568.993 298.368 568.904 298.901 568.727 299.346C568.372 300.235 568.106 301.124 567.752 302.014C567.486 302.636 567.309 303.17 567.043 303.792C567.131 303.081 567.397 301.569 567.397 301.48C567.397 300.235 566.954 298.101 566.068 296.589C566.068 296.411 566.068 296.233 566.068 296.056C565.802 294.544 564.472 293.477 562.966 293.921C560.838 294.455 559.509 298.19 559.42 300.057C559.42 300.146 559.509 301.391 559.509 302.191C559.42 301.747 559.332 301.302 559.154 300.858C558.977 299.968 558.711 298.99 558.445 298.012C558.268 297.567 558.18 297.034 558.002 296.589C557.825 296.145 557.648 295.611 557.47 295.166C557.027 294.01 556.584 292.943 556.052 291.787C556.85 291.609 559.686 290.898 560.838 290.009C561.991 289.119 563.232 287.697 563.143 286.185C563.143 284.673 561.902 283.428 560.395 283.517C558.268 283.784 556.407 287.163 555.964 289.119C555.964 289.208 555.787 290.631 555.787 291.431C555.521 290.72 555.166 290.098 554.812 289.386C553.837 287.43 552.862 285.473 551.798 283.606C551.444 282.983 551.178 282.45 550.912 281.827C551.178 281.738 554.634 280.938 555.875 279.96C557.027 279.071 558.268 277.648 558.18 276.136C558.18 274.624 556.939 273.379 555.432 273.468C553.305 273.735 551.444 277.114 551 279.071C551 279.249 550.823 281.205 550.735 281.738C550.025 280.405 549.405 279.16 548.785 277.826C547.987 276.047 547.278 274.18 546.657 272.312C546.835 272.312 550.38 271.423 551.709 270.445C552.862 269.556 554.103 268.133 554.014 266.621C554.014 265.109 552.773 263.864 551.266 263.953C549.139 264.22 547.278 267.599 546.835 269.556C546.835 269.733 546.569 271.868 546.569 272.223C546.569 272.134 546.48 272.046 546.48 271.868C545.86 269.911 545.594 267.955 545.417 266.087C545.328 265.02 545.239 263.953 545.239 262.975C545.948 262.886 549.051 262.441 550.291 261.73C551.532 261.019 552.862 259.685 553.039 258.173C553.216 256.661 552.153 255.238 550.557 255.238C548.43 255.238 546.126 258.44 545.594 260.307C545.594 260.396 545.328 261.463 545.239 262.264C545.239 261.819 545.239 261.374 545.239 260.93C545.239 259.329 545.328 257.817 545.417 256.483C545.505 255.683 545.594 255.061 545.594 254.438C546.214 253.993 548.696 252.215 549.494 250.97C550.203 249.725 550.823 247.947 550.291 246.524C549.76 245.101 548.164 244.389 546.746 245.101C544.796 246.079 544.353 249.992 544.619 251.859C544.619 252.037 545.417 254.527 545.417 254.527C545.328 255.15 545.239 255.772 545.151 256.483C545.062 257.817 544.885 259.329 544.885 260.93C544.885 262.619 544.885 264.398 544.973 266.265C545.151 268.133 545.417 270.178 545.948 272.134V272.223C545.594 271.69 544.619 270.178 544.53 270.089C543.29 268.666 540.01 266.532 537.972 267.421C536.554 268.044 536.11 269.733 536.819 271.067C537.794 271.957 539.567 272.579 540.985 272.846Z" fill="#F58415"/>
<path d="M578.122 262.619C578.122 262.619 578.831 260.129 578.831 259.952C579.097 257.995 578.476 254.171 576.526 253.193C575.108 252.482 573.513 253.371 573.07 254.705C572.538 256.128 573.247 257.906 573.956 259.151C574.842 260.574 578.122 262.619 578.122 262.619Z" fill="#F58415"/>
<path d="M357.519 265.821C357.519 265.821 372.409 263.597 388.274 263.331C404.139 263.064 409.368 264.131 413.268 265.465C417.167 266.799 420.713 277.737 415.572 288.23C410.431 298.723 392.439 307.349 367.977 305.215C343.515 303.081 325.966 298.19 316.66 291.076C307.265 284.05 315.596 280.049 326.054 274.358C336.424 268.577 350.517 265.465 357.519 265.821Z" fill="#263238" stroke="#263238" stroke-miterlimit="10" stroke-linecap="round" stroke-linejoin="round"/>
<path d="M337.133 290.008C337.133 290.008 373.649 269.822 386.412 266.176C399.175 262.53 413.799 261.73 420.535 266.176C427.271 270.623 425.765 285.029 422.662 290.542C419.56 296.055 394.212 307.527 380.208 311.706C366.116 315.886 311.076 315.619 296.009 316.953C280.853 318.287 244.425 317.487 239.196 314.641C233.967 311.795 237.069 308.594 244.691 306.816C252.225 304.948 277.307 304.948 289.007 301.569C300.706 298.101 328.536 294.455 337.133 290.008Z" fill="white" stroke="#263238" stroke-miterlimit="10" stroke-linecap="round" stroke-linejoin="round"/>
<path d="M422.662 290.542C424.169 287.874 425.321 283.072 425.321 278.359C415.838 285.829 401.125 294.81 380.829 302.102C361.507 309.039 306.91 315.175 284.309 317.576C288.829 317.487 292.818 317.309 296.009 317.042C311.164 315.708 366.116 315.975 380.208 311.795C394.3 307.527 419.56 296.055 422.662 290.542Z" fill="#263238" stroke="#263238" stroke-miterlimit="10" stroke-linecap="round" stroke-linejoin="round"/>
<path d="M396.871 305.482C400.771 303.792 404.582 302.013 408.127 300.235C408.925 296.411 409.811 285.117 401.568 263.331C396.605 263.775 391.376 264.753 386.412 266.176C386.412 266.176 401.923 283.961 396.871 305.482Z" fill="#263238" stroke="#263238" stroke-miterlimit="10" stroke-linecap="round" stroke-linejoin="round"/>
<path d="M301.504 298.634C296.629 299.612 292.197 300.591 288.918 301.48C277.219 304.859 252.136 304.859 244.602 306.727C237.069 308.594 233.878 311.706 239.107 314.552C244.337 317.398 280.853 318.198 295.92 316.864C297.693 316.686 300.086 316.597 302.833 316.42C296.806 309.928 299.554 302.28 301.504 298.634Z" fill="white" stroke="#263238" stroke-miterlimit="10" stroke-linecap="round" stroke-linejoin="round"/>
<path d="M277.751 257.017C277.751 257.017 253.997 259.862 242.032 260.93C230.067 261.997 208.441 271.69 204.009 281.116C199.578 290.542 212.873 301.747 220.406 304.148C227.94 306.46 250.629 311.706 263.126 310.906C275.623 310.106 312.671 299.168 319.141 297.034C325.7 294.899 337.133 290.008 337.133 290.008C337.133 290.008 326.143 290.008 307.708 280.582C289.184 271.156 286.348 261.463 277.751 257.017Z" fill="white" stroke="#263238" stroke-miterlimit="10" stroke-linecap="round" stroke-linejoin="round"/>
<path d="M226.788 264.487C226.788 264.487 245.489 262.53 254.086 268.755C262.683 274.98 268.09 294.188 268.09 294.188L307.708 280.493C307.708 280.493 304.783 277.292 297.338 268.311C289.893 259.329 268.09 254.26 255.238 256.928C242.387 259.863 226.788 264.487 226.788 264.487Z" fill="#263238" stroke="#263238" stroke-miterlimit="10" stroke-linecap="round" stroke-linejoin="round"/>
<path d="M317.28 297.656C318.078 297.389 318.698 297.212 319.141 297.034C325.7 294.9 337.133 290.009 337.133 290.009C337.133 290.009 328.713 290.009 314.178 283.695C316.305 287.163 318.344 292.232 317.28 297.656Z" fill="white" stroke="#263238" stroke-miterlimit="10" stroke-linecap="round" stroke-linejoin="round"/>
<path d="M331.372 292.41C321.357 293.655 303.985 296.411 284.221 302.014C261.708 308.416 234.499 306.104 221.292 304.415C229.712 306.905 251.073 311.707 263.038 310.906C275.535 310.106 312.583 299.168 319.053 297.034C322.687 295.967 327.561 294.01 331.372 292.41Z" fill="#263238" stroke="#263238" stroke-miterlimit="10" stroke-linecap="round" stroke-linejoin="round"/>
<path d="M356.101 180.985L350.783 233.896C350.783 233.896 353.353 246.613 355.037 251.681C356.721 256.75 358.405 264.931 357.607 265.821C356.721 266.71 356.189 266.087 350.251 267.777C344.313 269.467 337.311 279.693 328.27 283.606C319.23 287.607 311.962 285.562 303.454 282.183C295.034 278.804 279.257 258.173 275.801 257.55C272.433 257.017 262.24 255.327 258.074 253.904C253.82 252.482 248.768 246.524 248.768 246.524C248.768 246.524 247.882 246.524 247.882 243.411C247.882 240.299 248.148 240.032 248.148 240.032C248.148 240.032 245.932 238.076 245.312 235.497C244.78 232.918 250.629 219.401 250.629 210.864C250.629 202.416 254.884 170.403 254.884 166.49C254.884 162.488 260.822 161.688 267.026 159.109C273.23 156.53 305.935 144.436 306.467 141.057C306.999 137.678 309.303 113.935 309.303 113.935C309.303 113.935 326.852 132.787 329.068 134.299C331.904 136.255 333.322 138.3 333.322 138.3L331.372 147.638C331.372 147.638 339.792 153.863 345.465 157.242C351.137 160.621 358.671 163.733 359.025 166.045" fill="white"/>
<path d="M356.101 180.985L350.783 233.896C350.783 233.896 353.353 246.613 355.037 251.681C356.721 256.75 358.405 264.931 357.607 265.821C356.721 266.71 356.189 266.087 350.251 267.777C344.313 269.467 337.311 279.693 328.27 283.606C319.23 287.607 311.962 285.562 303.454 282.183C295.034 278.804 279.257 258.173 275.801 257.55C272.433 257.017 262.24 255.327 258.074 253.904C253.82 252.482 248.768 246.524 248.768 246.524C248.768 246.524 247.882 246.524 247.882 243.411C247.882 240.299 248.148 240.032 248.148 240.032C248.148 240.032 245.932 238.076 245.312 235.497C244.78 232.918 250.629 219.401 250.629 210.864C250.629 202.416 254.884 170.403 254.884 166.49C254.884 162.488 260.822 161.688 267.026 159.109C273.23 156.53 305.935 144.436 306.467 141.057C306.999 137.678 309.303 113.935 309.303 113.935C309.303 113.935 326.852 132.787 329.068 134.299C331.904 136.255 333.322 138.3 333.322 138.3L331.372 147.638C331.372 147.638 339.792 153.863 345.465 157.242C351.137 160.621 358.671 163.733 359.025 166.045" stroke="#263238" stroke-miterlimit="10" stroke-linecap="round" stroke-linejoin="round"/>
<path d="M267.558 243.233C268.887 244.212 270.128 245.545 271.281 247.235" stroke="#263238" stroke-miterlimit="10" stroke-linecap="round" stroke-linejoin="round"/>
<path d="M247.882 243.5C247.882 243.5 255.947 237.898 264.101 241.188" stroke="#263238" stroke-miterlimit="10" stroke-linecap="round" stroke-linejoin="round"/>
<path d="M336.336 151.284C333.411 149.238 331.284 147.638 331.284 147.638L333.234 138.3C333.234 138.3 331.816 136.344 328.979 134.299C326.764 132.787 309.215 113.935 309.215 113.935C309.215 113.935 306.999 137.678 306.378 141.057C306.201 142.124 302.656 144.17 297.693 146.482C298.579 151.906 301.681 161.066 312.583 164.534C323.661 168.091 332.081 158.042 336.336 151.284Z" fill="white" stroke="#263238" stroke-miterlimit="10" stroke-linecap="round" stroke-linejoin="round"/>
<path d="M331.372 147.727C331.372 147.638 331.284 147.638 331.372 147.727L333.234 138.3C333.234 138.3 331.816 136.344 328.979 134.299C327.739 133.409 321.534 127.007 316.394 121.582L315.064 127.807C315.242 127.807 315.242 145.592 331.372 147.727Z" fill="#263238"/>
<path d="M313.646 55.6881C313.646 55.6881 312.848 48.9297 307.442 47.5958C302.035 46.2619 289.716 47.0622 285.373 55.1545C281.03 63.2468 284.309 69.4716 285.905 70.5387C287.5 71.6059 288.829 72.1394 288.829 72.1394L290.159 65.381C290.159 65.381 290.691 71.3391 294.502 72.673C298.313 74.0069 306.113 72.673 306.113 72.673C306.113 72.673 312.848 67.8709 313.646 55.6881Z" fill="#263238" stroke="#263238" stroke-miterlimit="10" stroke-linecap="round" stroke-linejoin="round"/>
<path d="M363.457 79.7871C363.457 79.7871 373.029 86.0119 373.029 92.2368C373.029 98.4616 361.152 100.685 361.152 100.685L363.457 79.7871Z" fill="#263238" stroke="#263238" stroke-miterlimit="10" stroke-linecap="round" stroke-linejoin="round"/>
<path d="M365.584 81.0321C365.584 81.0321 364.52 94.0153 363.457 101.307C362.393 108.599 357.785 114.557 357.519 119.359C357.253 124.25 346.528 136.077 341.122 140.168C335.715 144.259 327.65 142.836 323.662 139.634C319.584 136.433 312.937 128.608 309.658 120.16C306.467 111.801 308.86 99.6176 309.658 95.8827C310.455 92.0589 330.663 77.2083 345.997 77.2083C361.33 77.2083 365.584 81.0321 365.584 81.0321Z" fill="white" stroke="#263238" stroke-miterlimit="10" stroke-linecap="round" stroke-linejoin="round"/>
<path d="M348.656 111.267C348.656 111.267 349.719 120.96 349.719 121.76C349.719 122.561 347.326 124.962 343.249 122.561" stroke="#263238" stroke-miterlimit="10" stroke-linecap="round" stroke-linejoin="round"/>
<path d="M332.525 122.65C332.525 122.65 336.868 128.074 343.869 127.807" stroke="#263238" stroke-miterlimit="10" stroke-linecap="round" stroke-linejoin="round"/>
<path d="M347.06 102.641C347.06 102.641 338.197 97.2166 326.852 98.8173C326.852 98.8173 323.662 98.8173 325.523 101.218C325.523 101.218 324.725 109.311 326.586 111.712C328.448 114.113 332.791 116.069 337.045 116.069C341.388 116.158 345.731 111 347.06 102.641Z" stroke="#263238" stroke-width="2" stroke-miterlimit="10" stroke-linecap="round" stroke-linejoin="round"/>
<path d="M325.257 99.1731L307.797 98.106" stroke="#263238" stroke-width="2" stroke-miterlimit="10" stroke-linecap="round" stroke-linejoin="round"/>
<path d="M347.06 102.641L351.669 103.975C351.669 103.975 349.808 113.935 350.871 116.692C351.58 118.47 353.087 119.715 354.86 120.249C356.366 120.604 358.139 121.049 359.203 121.049C361.33 121.049 365.939 116.692 367.002 109.133C367.002 109.133 368.332 108.599 367.8 107.799C367.268 106.999 360.798 103.175 351.846 104.064" stroke="#263238" stroke-width="2" stroke-miterlimit="10" stroke-linecap="round" stroke-linejoin="round"/>
<path d="M346.794 105.131C346.794 105.131 350.251 105.398 351.226 106.643" stroke="#263238" stroke-width="2" stroke-miterlimit="10" stroke-linecap="round" stroke-linejoin="round"/>
<path d="M337.488 108.155C337.133 109.933 336.336 111.267 335.538 111.089C334.74 110.911 334.386 109.4 334.74 107.621C335.095 105.842 335.893 104.509 336.69 104.686C337.399 104.864 337.754 106.376 337.488 108.155Z" fill="#263238"/>
<path d="M357.116 112.893C357.548 111.331 357.363 109.916 356.703 109.732C356.043 109.548 355.157 110.665 354.725 112.226C354.293 113.788 354.478 115.203 355.138 115.387C355.798 115.571 356.684 114.454 357.116 112.893Z" fill="#263238"/>
<path d="M331.904 101.841C331.904 101.841 338.64 99.6177 341.742 103.264" stroke="#263238" stroke-width="2" stroke-miterlimit="10" stroke-linecap="round" stroke-linejoin="round"/>
<path d="M354.151 106.91C354.151 106.91 357.253 104.064 359.823 108.066" stroke="#263238" stroke-width="2" stroke-miterlimit="10" stroke-linecap="round" stroke-linejoin="round"/>
<path d="M319.053 96.4163C319.053 96.4163 333.588 88.5908 345.997 86.1898C358.405 83.7888 367.8 84.8559 369.927 77.5639C372.054 70.272 357.519 58.0891 342.451 53.8207C327.384 49.4633 309.392 54.0874 302.124 64.8475C294.856 75.6076 297.249 88.5908 299.465 93.4817C301.592 98.3727 303.276 102.108 307.265 102.641C311.253 103.175 319.053 96.4163 319.053 96.4163Z" fill="#263238" stroke="#263238" stroke-miterlimit="10" stroke-linecap="round" stroke-linejoin="round"/>
<path d="M308.506 87.8794C306.91 88.8576 305.581 89.9247 304.606 91.1697" stroke="white" stroke-miterlimit="10" stroke-linecap="round" stroke-linejoin="round"/>
<path d="M359.114 69.4717C359.114 69.4717 363.014 71.8727 351.669 76.5858C343.426 80.0539 326.675 80.9432 314.976 84.9448" stroke="white" stroke-miterlimit="10" stroke-linecap="round" stroke-linejoin="round"/>
<path d="M344.047 66.715C345.022 65.6479 345.731 64.4919 346.174 63.158" stroke="white" stroke-miterlimit="10" stroke-linecap="round" stroke-linejoin="round"/>
<path d="M301.858 86.4566C301.858 86.4566 298.313 81.2989 310.455 77.8308C319.23 75.252 331.904 74.3627 339.704 70.0942" stroke="white" stroke-miterlimit="10" stroke-linecap="round" stroke-linejoin="round"/>
<path d="M311.519 106.732C311.519 106.732 309.392 96.2384 304.783 96.2384C300.174 96.2384 299.554 101.129 301.415 106.998C303.276 112.957 306.29 114.824 309.037 112.957" fill="white"/>
<path d="M311.519 106.732C311.519 106.732 309.392 96.2384 304.783 96.2384C300.174 96.2384 299.554 101.129 301.415 106.998C303.276 112.957 306.29 114.824 309.037 112.957" stroke="#263238" stroke-miterlimit="10" stroke-linecap="round" stroke-linejoin="round"/>
<path d="M275.801 257.639C275.801 257.639 276.953 256.217 276.953 251.681C276.953 247.146 273.851 232.206 272.433 221.713C271.015 211.22 269.596 191.211 269.596 182.675" stroke="#263238" stroke-miterlimit="10" stroke-linecap="round" stroke-linejoin="round"/>
<path d="M304.163 224.915C304.872 226.16 305.669 227.227 306.467 228.205" stroke="#263238" stroke-miterlimit="10" stroke-linecap="round" stroke-linejoin="round"/>
<path d="M288.475 172.804C288.475 172.804 293.527 204.017 302.213 221.269" stroke="#263238" stroke-miterlimit="10" stroke-linecap="round" stroke-linejoin="round"/>
<path d="M306.201 199.393C307.353 201.527 308.506 203.572 309.658 205.351" stroke="#263238" stroke-miterlimit="10" stroke-linecap="round" stroke-linejoin="round"/>
<path d="M291.843 164.089C291.843 164.089 297.515 181.608 304.163 195.569" stroke="#263238" stroke-miterlimit="10" stroke-linecap="round" stroke-linejoin="round"/>
<path d="M231.308 245.457C231.308 245.457 234.41 248.035 240.614 248.035C246.818 248.035 252.136 244.923 260.024 246.879C267.912 248.836 267.912 256.75 267.026 259.062C266.14 261.374 258.606 262.708 251.516 261.908C244.514 261.019 230.067 259.685 230.067 259.685C230.067 259.685 232.371 251.415 231.308 245.457Z" fill="white" stroke="#263238" stroke-miterlimit="10" stroke-linecap="round" stroke-linejoin="round"/>
<path d="M225.547 238.253C225.547 238.253 226.167 241.188 229.801 243.144C233.346 245.101 234.676 250.347 234.676 253.282C234.676 256.216 234.055 257.817 234.055 257.817C234.055 257.817 233.08 261.73 229.801 262.352C226.522 262.975 224.572 264.931 220.672 261.019C216.772 257.106 211.189 244.656 211.189 244.656L211.809 242.7C211.809 242.7 215.088 242.7 217.659 241.366C220.229 240.032 225.547 238.253 225.547 238.253Z" fill="white" stroke="#263238" stroke-miterlimit="10" stroke-linecap="round" stroke-linejoin="round"/>
<path d="M207.289 224.915L229.712 262.53" stroke="#263238" stroke-width="3" stroke-miterlimit="10" stroke-linecap="round" stroke-linejoin="round"/>
<path d="M214.113 262.175C214.113 262.175 216.684 264.754 221.292 264.754C225.901 264.754 230.422 261.819 228.117 260.841C225.813 259.863 224.217 258.884 222.533 259.507C220.938 260.218 214.113 262.175 214.113 262.175Z" fill="white" stroke="#263238" stroke-miterlimit="10" stroke-linecap="round" stroke-linejoin="round"/>
<path d="M210.834 257.284C210.834 257.284 212.784 262.886 214.379 263.509C215.975 264.131 222.888 262.53 224.838 261.196C226.788 259.863 223.508 257.639 220.583 257.639C217.659 257.639 210.834 257.284 210.834 257.284Z" fill="white" stroke="#263238" stroke-miterlimit="10" stroke-linecap="round" stroke-linejoin="round"/>
<path d="M209.505 248.747C209.505 248.747 208.175 255.594 210.834 257.284C213.404 258.884 223.508 259.596 224.572 257.639C225.547 255.683 222.002 254.705 218.368 253.104C214.734 251.414 209.505 248.747 209.505 248.747Z" fill="white" stroke="#263238" stroke-miterlimit="10" stroke-linecap="round" stroke-linejoin="round"/>
<path d="M219.609 239.321C219.609 239.321 219.963 252.037 221.204 253.371C222.533 254.705 225.458 254.972 226.079 253.993C226.699 253.015 227.408 241.899 225.458 238.253C223.597 234.696 219.609 239.321 219.609 239.321Z" fill="white" stroke="#263238" stroke-miterlimit="10" stroke-linecap="round" stroke-linejoin="round"/>
<path d="M211.809 242.878C211.809 242.878 207.555 241.899 207.555 246.168C207.555 250.436 213.404 253.015 216.063 253.371C218.634 253.727 221.647 252.748 219.343 250.792C217.038 248.747 213.759 244.478 211.809 242.878Z" fill="white" stroke="#263238" stroke-miterlimit="10" stroke-linecap="round" stroke-linejoin="round"/>
<path d="M243.805 263.598L262.063 261.019C262.063 261.019 259.758 257.64 253.732 257.64C247.705 257.64 244.071 260.485 243.273 261.552C242.564 262.53 243.805 263.598 243.805 263.598Z" fill="#263238" stroke="#263238" stroke-miterlimit="10" stroke-linecap="round" stroke-linejoin="round"/>
<path d="M280.587 285.295L309.746 275.069C309.746 275.069 302.744 260.129 289.45 254.883C276.155 249.636 256.39 250.97 248.059 254.171L251.073 257.551C251.073 257.551 257.099 257.817 263.57 265.376C270.128 272.935 276.598 285.029 276.598 285.029L280.587 285.295Z" fill="white" stroke="#263238" stroke-miterlimit="10" stroke-linecap="round" stroke-linejoin="round"/>
<path d="M262.329 255.594C262.329 255.594 273.939 253.905 286.082 279.96" stroke="#F58415" stroke-miterlimit="10" stroke-linecap="round" stroke-linejoin="round"/>
<path d="M268.09 254.438C268.09 254.438 279.7 252.749 291.843 278.804" stroke="#F58415" stroke-miterlimit="10" stroke-linecap="round" stroke-linejoin="round"/>
<path d="M272.876 253.549C272.876 253.549 284.487 251.859 296.629 277.915" stroke="#F58415" stroke-miterlimit="10" stroke-linecap="round" stroke-linejoin="round"/>
<path d="M202.857 281.916C202.857 281.916 215.886 262.53 240.171 264.131L243.805 263.597C243.805 263.597 246.109 258.084 252.934 259.418C259.67 260.752 277.219 287.697 277.219 287.697L280.587 285.384C280.587 285.384 271.369 269.733 264.367 260.841C257.365 251.948 248.148 252.215 245.223 255.505C243.45 257.462 240.969 261.997 240.969 261.997C240.969 261.997 238.221 257.906 230.244 259.774C220.406 261.997 215 266.443 212.164 269.467C208.086 273.913 199.844 279.871 200.641 279.426L202.857 281.916Z" fill="white" stroke="#263238" stroke-miterlimit="10" stroke-linecap="round" stroke-linejoin="round"/>
<path d="M277.219 287.608L308.24 276.936L309.746 275.069L280.587 285.295L277.219 287.608Z" fill="white" stroke="#263238" stroke-miterlimit="10" stroke-linecap="round" stroke-linejoin="round"/>
<path d="M353.707 161.955C353.707 161.955 364.875 165.868 366.559 171.737C368.243 177.695 376.663 210.153 378.879 214.955C381.094 219.757 386.235 222.602 386.235 226.248C386.235 229.894 386.501 232.74 386.501 232.74C386.501 232.74 392.439 233.007 392.971 237.809C393.503 242.611 394.655 248.836 394.655 248.836L417.167 283.873C417.167 283.873 430.639 284.94 433.741 284.673C436.844 284.406 446.061 284.94 449.429 286.718C450.759 287.43 453.329 289.653 455.367 296.856C456.342 300.413 458.647 307.349 457.229 307.082C455.811 306.816 454.127 302.903 453.506 302.014C452.974 301.124 451.29 296.322 451.29 296.322C451.29 296.322 452.443 304.503 452.708 306.193C452.974 307.883 452.177 309.572 452.177 309.572L452.088 309.661C450.67 310.195 449.163 310.284 447.745 309.928L446.593 309.572C445.529 310.195 444.2 310.284 443.048 309.928L441.807 309.572C441.807 309.572 439.946 303.792 438.262 301.48C436.578 299.257 431.26 296.767 431.26 296.767C431.26 296.767 437.021 303.347 436.755 307.616C436.666 309.305 437.021 310.728 435.603 309.839C434.185 308.95 432.501 304.77 429.398 303.347C426.296 301.925 418.94 299.968 416.192 298.279C413.356 296.589 408.836 290.364 408.836 290.364L371.877 257.017C371.877 257.017 368.243 253.371 367.623 251.326C367.091 249.369 367.091 249.369 367.091 249.369C367.091 249.369 362.039 246.257 360.621 244.567C359.203 242.878 358.671 239.232 358.671 239.232L351.049 230.428L356.101 182.052" fill="white"/>
<path d="M353.707 161.955C353.707 161.955 364.875 165.868 366.559 171.737C368.243 177.695 376.663 210.153 378.879 214.955C381.094 219.757 386.235 222.602 386.235 226.248C386.235 229.894 386.501 232.74 386.501 232.74C386.501 232.74 392.439 233.007 392.971 237.809C393.503 242.611 394.655 248.836 394.655 248.836L417.167 283.873C417.167 283.873 430.639 284.94 433.741 284.673C436.844 284.406 446.061 284.94 449.429 286.718C450.759 287.43 453.329 289.653 455.367 296.856C456.342 300.413 458.647 307.349 457.229 307.082C455.811 306.816 454.127 302.903 453.506 302.014C452.974 301.124 451.29 296.322 451.29 296.322C451.29 296.322 452.443 304.503 452.708 306.193C452.974 307.883 452.177 309.572 452.177 309.572L452.088 309.661C450.67 310.195 449.163 310.284 447.745 309.928L446.593 309.572C445.529 310.195 444.2 310.284 443.048 309.928L441.807 309.572C441.807 309.572 439.946 303.792 438.262 301.48C436.578 299.257 431.26 296.767 431.26 296.767C431.26 296.767 437.021 303.347 436.755 307.616C436.666 309.305 437.021 310.728 435.603 309.839C434.185 308.95 432.501 304.77 429.398 303.347C426.296 301.925 418.94 299.968 416.192 298.279C413.356 296.589 408.836 290.364 408.836 290.364L371.877 257.017C371.877 257.017 368.243 253.371 367.623 251.326C367.091 249.369 367.091 249.369 367.091 249.369C367.091 249.369 362.039 246.257 360.621 244.567C359.203 242.878 358.671 239.232 358.671 239.232L351.049 230.428L356.101 182.052" stroke="#263238" stroke-miterlimit="10" stroke-linecap="round" stroke-linejoin="round"/>
<path d="M353.264 193.346L351.049 230.517L358.671 239.321C358.671 239.321 359.203 242.967 360.621 244.656C362.039 246.346 367.091 249.458 367.091 249.458C367.091 249.458 367.091 249.458 367.623 251.415C368.154 253.371 371.877 257.106 371.877 257.106L377.372 262.086C379.588 257.728 384.994 249.814 394.566 248.48C394.301 247.057 393.414 241.988 392.971 237.809C392.439 233.007 386.501 232.74 386.501 232.74C386.501 232.74 386.235 229.894 386.235 226.248C386.235 222.602 381.183 219.757 378.879 214.955C376.663 210.153 368.243 177.695 366.559 171.737C364.875 165.779 353.707 161.955 353.707 161.955" fill="white"/>
<path d="M353.264 193.346L351.049 230.517L358.671 239.321C358.671 239.321 359.203 242.967 360.621 244.656C362.039 246.346 367.091 249.458 367.091 249.458C367.091 249.458 367.091 249.458 367.623 251.415C368.154 253.371 371.877 257.106 371.877 257.106L377.372 262.086C379.588 257.728 384.994 249.814 394.566 248.48C394.301 247.057 393.414 241.988 392.971 237.809C392.439 233.007 386.501 232.74 386.501 232.74C386.501 232.74 386.235 229.894 386.235 226.248C386.235 222.602 381.183 219.757 378.879 214.955C376.663 210.153 368.243 177.695 366.559 171.737C364.875 165.779 353.707 161.955 353.707 161.955" stroke="#263238" stroke-miterlimit="10" stroke-linecap="round" stroke-linejoin="round"/>
<path d="M352.821 204.55L356.544 236.386L351.049 230.517L352.821 204.55Z" fill="#263238"/>
<path d="M378.967 237.72C379.765 237.186 380.563 236.653 381.449 236.119" stroke="#263238" stroke-miterlimit="10" stroke-linecap="round" stroke-linejoin="round"/>
<path d="M369.927 248.035C369.927 248.035 371.7 244.034 376.131 240.032" stroke="#263238" stroke-miterlimit="10" stroke-linecap="round" stroke-linejoin="round"/>
<path d="M376.043 232.74C377.195 232.562 378.436 232.473 379.765 232.473" stroke="#263238" stroke-miterlimit="10" stroke-linecap="round" stroke-linejoin="round"/>
<path d="M362.305 239.587C362.305 239.587 366.027 235.941 371.7 233.896" stroke="#263238" stroke-miterlimit="10" stroke-linecap="round" stroke-linejoin="round"/>
<path d="M432.766 298.901C432.766 298.901 429.664 294.633 425.41 294.366" stroke="#263238" stroke-miterlimit="10" stroke-linecap="round" stroke-linejoin="round"/>
<path d="M434.185 289.564C434.185 289.564 437.553 290.453 441.807 295.789C446.061 301.124 447.125 309.039 447.125 309.039" stroke="#263238" stroke-miterlimit="10" stroke-linecap="round" stroke-linejoin="round"/>
<path d="M442.25 288.497C442.25 288.497 448.543 293.566 449.695 298.368C450.847 303.17 452.265 309.661 452.265 309.661" stroke="#263238" stroke-miterlimit="10" stroke-linecap="round" stroke-linejoin="round"/>
<path d="M451.379 296.411C451.379 296.411 450.227 291.342 447.391 287.341" stroke="#263238" stroke-miterlimit="10" stroke-linecap="round" stroke-linejoin="round"/>
<path d="M536.731 307.705H459.001L480.361 236.386H558.18L536.731 307.705Z" fill="white" stroke="#263238" stroke-miterlimit="10" stroke-linecap="round" stroke-linejoin="round"/>
<path d="M536.731 307.705L554.9 247.324C531.945 250.17 518.384 269.111 497.201 290.009C483.818 303.081 474.512 306.905 469.105 307.705H536.731Z" fill="#263238" stroke="#263238" stroke-miterlimit="10" stroke-linecap="round" stroke-linejoin="round"/>
<path d="M511.648 274.624C515.026 274.624 517.764 271.957 517.764 268.666C517.764 265.376 515.026 262.708 511.648 262.708C508.271 262.708 505.533 265.376 505.533 268.666C505.533 271.957 508.271 274.624 511.648 274.624Z" fill="white" stroke="#263238" stroke-miterlimit="10" stroke-linecap="round" stroke-linejoin="round"/>
<path d="M537.617 307.349H392.173V311.884H537.617V307.349Z" fill="white" stroke="#263238" stroke-miterlimit="10" stroke-linecap="round" stroke-linejoin="round"/>
<path d="M537.528 307.349H463.167V311.884H537.528V307.349Z" fill="#263238" stroke="#263238" stroke-miterlimit="10" stroke-linecap="round" stroke-linejoin="round"/>
<path d="M202.769 295.255H144.449C139.309 295.255 135.143 299.435 135.143 304.592V305.659C135.143 310.817 139.309 314.997 144.449 314.997H202.769C202.769 314.997 199.666 310.284 199.666 304.948C199.666 299.613 202.769 295.255 202.769 295.255Z" fill="white" stroke="#263238" stroke-miterlimit="10" stroke-linecap="round" stroke-linejoin="round"/>
<path d="M175.116 295.255H116.796C111.656 295.255 107.49 299.435 107.49 304.592V305.659C107.49 310.817 111.656 314.997 116.796 314.997H175.116C175.116 314.997 172.014 310.284 172.014 304.948C172.014 299.613 175.116 295.255 175.116 295.255Z" fill="white" stroke="#263238" stroke-miterlimit="10" stroke-linecap="round" stroke-linejoin="round"/>
<path d="M107.49 304.592V305.66C107.49 309.394 109.706 312.685 112.897 314.196L114.137 314.285V296.767L113.34 295.967C109.883 297.212 107.49 300.591 107.49 304.592Z" fill="white" stroke="#263238" stroke-miterlimit="10" stroke-linecap="round" stroke-linejoin="round"/>
<path d="M202.769 295.255H116.796C111.656 295.255 107.49 299.435 107.49 304.592V305.659C107.49 310.817 111.656 314.997 116.796 314.997H202.769" stroke="#263238" stroke-width="3" stroke-miterlimit="10" stroke-linecap="round" stroke-linejoin="round"/>
<path d="M114.403 299.613H142.943" stroke="#263238" stroke-miterlimit="10" stroke-linecap="round" stroke-linejoin="round"/>
<path d="M147.02 302.191H151.363" stroke="#263238" stroke-miterlimit="10" stroke-linecap="round" stroke-linejoin="round"/>
<path d="M119.987 302.191H143.208" stroke="#263238" stroke-miterlimit="10" stroke-linecap="round" stroke-linejoin="round"/>
<path d="M114.403 308.061H128.939" stroke="#263238" stroke-miterlimit="10" stroke-linecap="round" stroke-linejoin="round"/>
<path d="M158.099 311.262H161.289" stroke="#263238" stroke-miterlimit="10" stroke-linecap="round" stroke-linejoin="round"/>
<path d="M137.713 311.262H155.44" stroke="#263238" stroke-miterlimit="10" stroke-linecap="round" stroke-linejoin="round"/>
<path d="M119.987 311.262H132.484" stroke="#263238" stroke-miterlimit="10" stroke-linecap="round" stroke-linejoin="round"/>
<path d="M145.07 295.255H63.4404C58.2998 295.255 54.1342 299.435 54.1342 304.592V305.659C54.1342 310.817 58.2998 314.997 63.4404 314.997H145.07C145.07 314.997 141.968 310.284 141.968 304.948C141.968 299.613 145.07 295.255 145.07 295.255Z" fill="white" stroke="#263238" stroke-miterlimit="10" stroke-linecap="round" stroke-linejoin="round"/>
<path d="M95.3476 298.368V312.507" stroke="#263238" stroke-miterlimit="10" stroke-linecap="round" stroke-linejoin="round"/>
<path d="M95.7908 300.502H119.189" stroke="#263238" stroke-miterlimit="10" stroke-linecap="round" stroke-linejoin="round"/>
<path d="M95.7908 304.059H128.053" stroke="#263238" stroke-miterlimit="10" stroke-linecap="round" stroke-linejoin="round"/>
<path d="M105.717 308.061H114.137" stroke="#263238" stroke-miterlimit="10" stroke-linecap="round" stroke-linejoin="round"/>
<path d="M124.685 310.728H99.6019" stroke="#263238" stroke-miterlimit="10" stroke-linecap="round" stroke-linejoin="round"/>
<path d="M91.3592 305.659V304.592C91.3592 299.435 95.5249 295.255 100.666 295.255H63.4404C58.2998 295.255 54.1342 299.435 54.1342 304.592V305.659C54.1342 310.817 58.2998 314.997 63.4404 314.997H100.754C95.5249 314.997 91.3592 310.817 91.3592 305.659Z" fill="#263238" stroke="#263238" stroke-miterlimit="10" stroke-linecap="round" stroke-linejoin="round"/>
<path d="M140.727 295.255H63.4404C58.2998 295.255 54.1342 299.435 54.1342 304.592V305.659C54.1342 310.817 58.2998 314.997 63.4404 314.997H140.815" stroke="#263238" stroke-width="3" stroke-miterlimit="10" stroke-linecap="round" stroke-linejoin="round"/>
<path d="M146.754 295.255H100.843C95.7022 295.255 91.5365 299.435 91.5365 304.592V305.659C91.5365 310.817 95.7022 314.997 100.843 314.997H146.754" stroke="#263238" stroke-width="3" stroke-miterlimit="10" stroke-linecap="round" stroke-linejoin="round"/>
<path d="M193.462 275.691H135.143C130.002 275.691 125.837 279.871 125.837 285.029V286.096C125.837 291.253 130.002 295.433 135.143 295.433H193.462C193.462 295.433 190.36 290.72 190.36 285.384C190.36 280.138 193.462 275.691 193.462 275.691Z" fill="white" stroke="#263238" stroke-miterlimit="10" stroke-linecap="round" stroke-linejoin="round"/>
<path d="M165.809 275.691H107.49C102.35 275.691 98.1838 279.871 98.1838 285.029V286.096C98.1838 291.253 102.35 295.433 107.49 295.433H165.809C165.809 295.433 162.707 290.72 162.707 285.384C162.707 280.138 165.809 275.691 165.809 275.691Z" fill="white" stroke="#263238" stroke-miterlimit="10" stroke-linecap="round" stroke-linejoin="round"/>
<path d="M98.1838 285.118V286.185C98.1838 289.92 100.4 293.21 103.59 294.722L104.831 294.811V277.292L104.033 276.492C100.666 277.737 98.1838 281.116 98.1838 285.118Z" fill="white" stroke="#263238" stroke-miterlimit="10" stroke-linecap="round" stroke-linejoin="round"/>
<path d="M193.462 275.691H107.49C102.35 275.691 98.1838 279.871 98.1838 285.029V286.096C98.1838 291.253 102.35 295.433 107.49 295.433H193.462" stroke="#263238" stroke-width="3" stroke-miterlimit="10" stroke-linecap="round" stroke-linejoin="round"/>
<path d="M105.186 280.138H133.636" stroke="#263238" stroke-miterlimit="10" stroke-linecap="round" stroke-linejoin="round"/>
<path d="M137.713 282.717H142.145" stroke="#263238" stroke-miterlimit="10" stroke-linecap="round" stroke-linejoin="round"/>
<path d="M110.681 282.717H133.991" stroke="#263238" stroke-miterlimit="10" stroke-linecap="round" stroke-linejoin="round"/>
<path d="M105.186 288.586H119.721" stroke="#263238" stroke-miterlimit="10" stroke-linecap="round" stroke-linejoin="round"/>
<path d="M148.792 291.787H151.983" stroke="#263238" stroke-miterlimit="10" stroke-linecap="round" stroke-linejoin="round"/>
<path d="M128.407 291.787H146.222" stroke="#263238" stroke-miterlimit="10" stroke-linecap="round" stroke-linejoin="round"/>
<path d="M110.681 291.787H123.178" stroke="#263238" stroke-miterlimit="10" stroke-linecap="round" stroke-linejoin="round"/>
<path d="M423.815 223.225H403.873C402.986 223.225 402.366 222.514 402.366 221.713V215.933C402.366 215.044 403.075 214.421 403.873 214.421H430.551C431.437 214.421 432.057 215.133 432.057 215.933V218.245" stroke="#263238" stroke-miterlimit="10" stroke-linecap="round" stroke-linejoin="round"/>
<path d="M423.637 232.651V220.202C423.637 219.135 424.524 218.245 425.587 218.245H451.999C453.063 218.245 453.949 219.135 453.949 220.202V235.052" stroke="#263238" stroke-miterlimit="10" stroke-linecap="round" stroke-linejoin="round"/>
<path d="M454.038 247.413V262.886C454.038 263.953 453.152 264.842 452.088 264.842H425.587C424.524 264.842 423.637 263.953 423.637 262.886V235.675" stroke="#263238" stroke-miterlimit="10" stroke-linecap="round" stroke-linejoin="round"/>
<path d="M425.499 225.537H452.088" stroke="#263238" stroke-miterlimit="10" stroke-linecap="round" stroke-linejoin="round"/>
<path d="M438.173 233.629H452.088" stroke="#263238" stroke-miterlimit="10" stroke-linecap="round" stroke-linejoin="round"/>
<path d="M425.499 233.629H436.046" stroke="#263238" stroke-miterlimit="10" stroke-linecap="round" stroke-linejoin="round"/>
<path d="M425.499 241.633H452.088" stroke="#263238" stroke-miterlimit="10" stroke-linecap="round" stroke-linejoin="round"/>
<path d="M447.391 249.725H452.088" stroke="#263238" stroke-miterlimit="10" stroke-linecap="round" stroke-linejoin="round"/>
<path d="M425.499 249.725H444.998" stroke="#263238" stroke-miterlimit="10" stroke-linecap="round" stroke-linejoin="round"/>
<path d="M425.499 257.817H452.088" stroke="#263238" stroke-miterlimit="10" stroke-linecap="round" stroke-linejoin="round"/>
<path d="M407.684 218.601H422.219" stroke="#263238" stroke-miterlimit="10" stroke-linecap="round" stroke-linejoin="round"/>
<path d="M217.127 65.2922H192.487C191.424 65.2922 190.626 64.4029 190.626 63.4247V56.2217C190.626 55.1546 191.512 54.3542 192.487 54.3542H225.458C226.522 54.3542 227.319 55.2435 227.319 56.2217V59.0673" stroke="#263238" stroke-miterlimit="10" stroke-linecap="round" stroke-linejoin="round"/>
<path d="M216.861 77.0304V61.6462C216.861 60.3123 217.924 59.1562 219.343 59.1562H251.959C253.288 59.1562 254.441 60.2234 254.441 61.6462V80.0539" stroke="#263238" stroke-miterlimit="10" stroke-linecap="round" stroke-linejoin="round"/>
<path d="M254.441 95.1714V114.29C254.441 115.624 253.377 116.78 251.959 116.78H219.343C218.013 116.78 216.861 115.713 216.861 114.29V80.6764" stroke="#263238" stroke-miterlimit="10" stroke-linecap="round" stroke-linejoin="round"/>
<path d="M219.165 68.1378H252.048" stroke="#263238" stroke-miterlimit="10" stroke-linecap="round" stroke-linejoin="round"/>
<path d="M234.942 78.0975H252.048" stroke="#263238" stroke-miterlimit="10" stroke-linecap="round" stroke-linejoin="round"/>
<path d="M219.165 78.0975H232.194" stroke="#263238" stroke-miterlimit="10" stroke-linecap="round" stroke-linejoin="round"/>
<path d="M219.165 88.0573H252.048" stroke="#263238" stroke-miterlimit="10" stroke-linecap="round" stroke-linejoin="round"/>
<path d="M246.198 98.017H252.048" stroke="#263238" stroke-miterlimit="10" stroke-linecap="round" stroke-linejoin="round"/>
<path d="M219.165 98.017H243.184" stroke="#263238" stroke-miterlimit="10" stroke-linecap="round" stroke-linejoin="round"/>
<path d="M219.165 107.977H252.048" stroke="#263238" stroke-miterlimit="10" stroke-linecap="round" stroke-linejoin="round"/>
<path d="M197.273 59.6008H215.177" stroke="#263238" stroke-miterlimit="10" stroke-linecap="round" stroke-linejoin="round"/>
<path d="M259.315 96.1495C257.986 96.1495 256.568 95.616 255.504 94.6378L251.959 91.1696C251.516 90.725 251.427 90.1025 251.782 89.569C251.959 89.2133 252.313 89.0354 252.668 88.9465C253.022 88.8576 253.377 89.0354 253.732 89.3022L254.441 89.9247L250.895 82.6327C250.718 82.277 250.718 81.8324 250.807 81.4767C250.984 81.121 251.25 80.7653 251.604 80.5874C252.313 80.2317 253.2 80.5874 253.554 81.2988L254.884 83.8777C255.15 83.6109 255.504 83.3441 255.859 83.3441C256.39 83.2552 256.922 83.522 257.277 83.7888C257.543 83.4331 257.897 83.2552 258.252 83.1663C258.695 83.0774 259.138 83.2552 259.404 83.4331C259.581 82.9884 259.936 82.8106 260.468 82.8106C260.911 82.8106 261.354 83.1663 261.62 83.522L264.101 88.1462C265.342 90.5472 264.633 93.4817 262.417 94.9935C261.531 95.7938 260.379 96.1495 259.315 96.1495ZM252.934 89.48H252.845C252.668 89.48 252.491 89.6579 252.313 89.8358C252.136 90.1025 252.136 90.4582 252.402 90.725L255.859 94.1931C257.543 95.8827 260.202 96.0606 262.063 94.6378C264.013 93.2149 264.633 90.6361 263.57 88.5019L261.088 83.8777C260.911 83.6109 260.645 83.4331 260.379 83.4331C260.113 83.4331 259.936 83.4331 259.847 83.9666V84.5002L259.493 84.1445C259.493 84.1445 258.961 83.6998 258.429 83.7888C258.163 83.7888 257.897 84.0555 257.631 84.4113L257.454 84.678L257.188 84.4113C257.188 84.4113 256.568 83.8777 256.036 83.9666C255.681 84.0555 255.416 84.2334 255.238 84.678L254.972 85.1227L253.2 81.6545C253.022 81.2099 252.491 81.0321 251.959 81.2099C251.693 81.2988 251.516 81.4767 251.427 81.7435C251.338 82.0102 251.338 82.277 251.427 82.4549L256.213 92.4146L253.377 89.7468C253.288 89.569 253.111 89.48 252.934 89.48Z" fill="#263238"/>
<path d="M256.213 87.8794C256.125 87.8794 256.036 87.7904 255.947 87.7015L254.618 84.5891C254.529 84.4112 254.618 84.3223 254.795 84.2334C254.972 84.1444 255.061 84.2334 255.15 84.4112L256.479 87.5236C256.568 87.7015 256.479 87.7904 256.302 87.8794C256.302 87.8794 256.302 87.8794 256.213 87.8794Z" fill="#263238"/>
<path d="M258.518 87.168C258.429 87.168 258.34 87.0791 258.252 86.9901L257.099 84.3224C257.011 84.1445 257.099 84.0556 257.277 83.9666C257.454 83.8777 257.543 83.9666 257.631 84.1445L258.783 86.8123C258.872 86.9901 258.783 87.0791 258.606 87.168C258.606 87.168 258.518 87.168 258.518 87.168Z" fill="#263238"/>
<path d="M260.733 86.6344C260.645 86.6344 260.556 86.5454 260.467 86.4565L259.404 84.0555C259.315 83.8777 259.404 83.7887 259.581 83.6998C259.758 83.6109 259.847 83.6998 259.936 83.8777L260.999 86.2787C261.088 86.4565 260.999 86.5454 260.822 86.6344C260.822 86.6344 260.822 86.6344 260.733 86.6344Z" fill="#263238"/>
<path d="M237.737 47.9691L234.666 51.0502L237.737 54.1313L240.808 51.0502L237.737 47.9691Z" stroke="#263238" stroke-miterlimit="10" stroke-linecap="round" stroke-linejoin="round"/>
<path d="M211.366 76.0522C211.366 74.8072 210.391 73.7401 209.061 73.7401C207.732 73.7401 206.757 74.7183 206.757 76.0522C206.757 77.2972 207.732 78.3643 209.061 78.3643C210.391 78.3643 211.366 77.2972 211.366 76.0522Z" stroke="#263238" stroke-miterlimit="10" stroke-linecap="round" stroke-linejoin="round"/>
<path d="M519.65 1.8172L510.876 10.6204L519.65 19.4235L528.424 10.6204L519.65 1.8172Z" stroke="#263238" stroke-miterlimit="10" stroke-linecap="round" stroke-linejoin="round"/>
<path d="M217.116 243.561L208.342 252.364L217.116 261.167L225.89 252.364L217.116 243.561Z" stroke="#263238" stroke-miterlimit="10" stroke-linecap="round" stroke-linejoin="round"/>
<path d="M178.834 226.448L170.06 235.251L178.834 244.054L187.608 235.251L178.834 226.448Z" stroke="#263238" stroke-miterlimit="10" stroke-linecap="round" stroke-linejoin="round"/>
<path d="M503.31 17.9487L498.547 22.7275L503.31 27.5064L508.073 22.7276L503.31 17.9487Z" stroke="#263238" stroke-miterlimit="10" stroke-linecap="round" stroke-linejoin="round"/>
<path d="M504.912 220.646C506.87 220.646 508.457 219.054 508.457 217.089C508.457 215.125 506.87 213.532 504.912 213.532C502.954 213.532 501.367 215.125 501.367 217.089C501.367 219.054 502.954 220.646 504.912 220.646Z" stroke="#263238" stroke-miterlimit="10" stroke-linecap="round" stroke-linejoin="round"/>
<path d="M210.834 189.789C212.792 189.789 214.379 188.196 214.379 186.232C214.379 184.267 212.792 182.675 210.834 182.675C208.876 182.675 207.289 184.267 207.289 186.232C207.289 188.196 208.876 189.789 210.834 189.789Z" stroke="#263238" stroke-miterlimit="10" stroke-linecap="round" stroke-linejoin="round"/>
<path d="M367.179 21.2736C369.137 21.2736 370.725 19.6811 370.725 17.7166C370.725 15.7521 369.137 14.1595 367.179 14.1595C365.221 14.1595 363.634 15.7521 363.634 17.7166C363.634 19.6811 365.221 21.2736 367.179 21.2736Z" stroke="#263238" stroke-miterlimit="10" stroke-linecap="round" stroke-linejoin="round"/>
<path d="M557.205 49.9078H385.26V205.529H557.205V49.9078Z" fill="#F58415"/>
<path d="M568.284 41.9045H395.01V198.237H568.284V41.9045Z" fill="white" stroke="#263238" stroke-miterlimit="10" stroke-linecap="round" stroke-linejoin="round"/>
<path d="M568.284 41.9045H440.655V63.069H568.284V41.9045Z" fill="#263238" stroke="#263238" stroke-miterlimit="10" stroke-linecap="round" stroke-linejoin="round"/>
<path d="M568.284 41.9045H395.01V52.9314H568.284V41.9045Z" fill="white" stroke="#263238" stroke-miterlimit="10" stroke-linecap="round" stroke-linejoin="round"/>
<path d="M508.28 78.3643H402.632V146.215H508.28V78.3643Z" fill="#263238" stroke="#263238" stroke-miterlimit="10" stroke-linecap="round" stroke-linejoin="round"/>
<path d="M508.28 138.656H402.632V146.215H508.28V138.656Z" fill="white" stroke="#263238" stroke-miterlimit="10" stroke-linecap="round" stroke-linejoin="round"/>
<path d="M508.28 141.324H402.632V143.547H508.28V141.324Z" fill="white" stroke="#263238" stroke-miterlimit="10" stroke-linecap="round" stroke-linejoin="round"/>
<path d="M466.886 120.167C471.389 112.798 469.086 103.162 461.741 98.6439C454.397 94.1258 444.793 96.4368 440.289 103.806C435.786 111.174 438.09 120.811 445.434 125.329C452.778 129.847 462.383 127.536 466.886 120.167Z" fill="#6A359F"/>
<path d="M462.635 112.334L449.075 104.509V120.16L462.635 112.334Z" fill="white"/>
<path d="M559.509 78.3643H517.764V105.131H559.509V78.3643Z" fill="#263238" stroke="#263238" stroke-miterlimit="10" stroke-linecap="round" stroke-linejoin="round"/>
<path d="M559.509 102.197H517.764V105.22H559.509V102.197Z" fill="white" stroke="#263238" stroke-miterlimit="10" stroke-linecap="round" stroke-linejoin="round"/>
<path d="M559.509 103.264H517.764V104.153H559.509V103.264Z" fill="white" stroke="#263238" stroke-miterlimit="10" stroke-linecap="round" stroke-linejoin="round"/>
<path d="M537.883 97.7502C541.26 97.7502 543.998 95.0031 543.998 91.6143C543.998 88.2255 541.26 85.4784 537.883 85.4784C534.505 85.4784 531.767 88.2255 531.767 91.6143C531.767 95.0031 534.505 97.7502 537.883 97.7502Z" fill="#6A359F"/>
<path d="M541.428 91.7921L536.11 88.6797V94.9045L541.428 91.7921Z" fill="white"/>
<path d="M559.509 107.799H517.764V134.566H559.509V107.799Z" fill="#263238" stroke="#263238" stroke-miterlimit="10" stroke-linecap="round" stroke-linejoin="round"/>
<path d="M559.509 131.631H517.764V134.654H559.509V131.631Z" fill="white" stroke="#263238" stroke-miterlimit="10" stroke-linecap="round" stroke-linejoin="round"/>
<path d="M559.509 132.698H517.764V133.587H559.509V132.698Z" fill="white" stroke="#263238" stroke-miterlimit="10" stroke-linecap="round" stroke-linejoin="round"/>
<path d="M544.087 121.138C544.087 117.759 541.34 115.002 537.972 115.002C534.604 115.002 531.856 117.759 531.856 121.138C531.856 124.517 534.604 127.274 537.972 127.274C541.34 127.274 544.087 124.517 544.087 121.138Z" fill="#6A359F"/>
<path d="M541.428 121.227L536.11 118.114V124.339L541.428 121.227Z" fill="white"/>
<path d="M559.509 137.233H517.764V164H559.509V137.233Z" fill="#263238" stroke="#263238" stroke-miterlimit="10" stroke-linecap="round" stroke-linejoin="round"/>
<path d="M559.509 161.066H517.764V164.089H559.509V161.066Z" fill="white" stroke="#263238" stroke-miterlimit="10" stroke-linecap="round" stroke-linejoin="round"/>
<path d="M559.509 162.133H517.764V163.022H559.509V162.133Z" fill="white" stroke="#263238" stroke-miterlimit="10" stroke-linecap="round" stroke-linejoin="round"/>
<path d="M544.087 150.572C544.087 147.193 541.34 144.436 537.972 144.436C534.604 144.436 531.856 147.193 531.856 150.572C531.856 153.952 534.604 156.708 537.972 156.708C541.34 156.708 544.087 153.952 544.087 150.572Z" fill="#6A359F"/>
<path d="M541.428 150.661L536.11 147.549V153.774L541.428 150.661Z" fill="white"/>
<path d="M559.509 166.757H517.764V193.524H559.509V166.757Z" fill="#263238" stroke="#263238" stroke-miterlimit="10" stroke-linecap="round" stroke-linejoin="round"/>
<path d="M559.509 190.5H517.764V193.524H559.509V190.5Z" fill="white" stroke="#263238" stroke-miterlimit="10" stroke-linecap="round" stroke-linejoin="round"/>
<path d="M559.509 191.567H517.764V192.457H559.509V191.567Z" fill="white" stroke="#263238" stroke-miterlimit="10" stroke-linecap="round" stroke-linejoin="round"/>
<path d="M544.087 180.007C544.087 176.628 541.34 173.871 537.972 173.871C534.604 173.871 531.856 176.628 531.856 180.007C531.856 183.386 534.604 186.143 537.972 186.143C541.34 186.143 544.087 183.386 544.087 180.007Z" fill="#6A359F"/>
<path d="M541.428 180.096L536.11 176.983V183.208L541.428 180.096Z" fill="white"/>
<path d="M403.43 153.418H484.35" stroke="#263238" stroke-miterlimit="10" stroke-linecap="round" stroke-linejoin="round"/>
<path d="M403.43 172.626H451.468" stroke="#263238" stroke-miterlimit="10" stroke-linecap="round" stroke-linejoin="round"/>
<path d="M403.43 180.185H451.468" stroke="#263238" stroke-miterlimit="10" stroke-linecap="round" stroke-linejoin="round"/>
<path d="M403.43 187.743H451.468" stroke="#263238" stroke-miterlimit="10" stroke-linecap="round" stroke-linejoin="round"/>
<path d="M460.685 172.626H508.812" stroke="#263238" stroke-miterlimit="10" stroke-linecap="round" stroke-linejoin="round"/>
<path d="M460.685 180.185H508.812" stroke="#263238" stroke-miterlimit="10" stroke-linecap="round" stroke-linejoin="round"/>
<path d="M460.685 187.743H508.812" stroke="#263238" stroke-miterlimit="10" stroke-linecap="round" stroke-linejoin="round"/>
<path d="M403.43 159.643H505.71" stroke="#263238" stroke-miterlimit="10" stroke-linecap="round" stroke-linejoin="round"/>
<path d="M566.156 78.4532H561.991V194.502H566.156V78.4532Z" fill="#A2A7A9"/>
<path d="M566.156 106.554H561.991V121.405H566.156V106.554Z" fill="#263238"/>
<path d="M523.525 198.415V236.653" stroke="#263238" stroke-miterlimit="10" stroke-linecap="round" stroke-linejoin="round"/>
<path d="M463.167 307.349L463.433 307.616H464.053C463.521 307.527 463.167 307.349 463.167 307.349Z" fill="#263238" stroke="#263238" stroke-miterlimit="10" stroke-linecap="round" stroke-linejoin="round"/>
</svg>
