<svg width="28" height="28" viewBox="0 0 28 28" fill="none" xmlns="http://www.w3.org/2000/svg">
<path d="M25.3842 21.9184L25.1215 21.6866C24.3761 21.0225 23.7237 20.261 23.1819 19.4225C22.5902 18.2654 22.2355 17.0018 22.1388 15.7057V11.8884C22.1439 9.85279 21.4054 7.88532 20.0622 6.3557C18.719 4.82609 16.8635 3.83961 14.8442 3.58163V2.58481C14.8442 2.31122 14.7355 2.04883 14.5421 1.85537C14.3486 1.66191 14.0862 1.55322 13.8126 1.55322C13.539 1.55322 13.2766 1.66191 13.0832 1.85537C12.8897 2.04883 12.781 2.31122 12.781 2.58481V3.59709C10.7799 3.87367 8.94673 4.8661 7.62116 6.39058C6.29559 7.91505 5.56741 9.86827 5.57148 11.8884V15.7057C5.4747 17.0018 5.12003 18.2654 4.5283 19.4225C3.9958 20.2589 3.3539 21.0203 2.61966 21.6866L2.35693 21.9184V24.0975H25.3842V21.9184Z" fill="#303030"/>
<path d="M11.8381 24.9087C11.9059 25.3985 12.1486 25.8473 12.5214 26.1721C12.8943 26.4969 13.3721 26.6758 13.8665 26.6758C14.361 26.6758 14.8388 26.4969 15.2116 26.1721C15.5845 25.8473 15.8272 25.3985 15.895 24.9087H11.8381Z" fill="#303030"/>
</svg>
