<svg width="22" height="22" viewBox="0 0 22 22" fill="none" xmlns="http://www.w3.org/2000/svg">
<path d="M4.125 4.125C3.39565 4.125 2.69618 4.41473 2.18046 4.93046C1.66473 5.44618 1.375 6.14565 1.375 6.875V8.25H20.625V6.875C20.625 6.14565 20.3353 5.44618 19.8195 4.93046C19.3038 4.41473 18.6043 4.125 17.875 4.125H4.125Z" fill="#F58415"/>
<path d="M1.375 15.125V9.625H20.625V15.125C20.625 15.8543 20.3353 16.5538 19.8195 17.0695C19.3038 17.5853 18.6043 17.875 17.875 17.875H4.125C3.39565 17.875 2.69618 17.5853 2.18046 17.0695C1.66473 16.5538 1.375 15.8543 1.375 15.125ZM14.4375 13.75C14.2552 13.75 14.0803 13.8224 13.9514 13.9514C13.8224 14.0803 13.75 14.2552 13.75 14.4375C13.75 14.6198 13.8224 14.7947 13.9514 14.9236C14.0803 15.0526 14.2552 15.125 14.4375 15.125H17.1875C17.3698 15.125 17.5447 15.0526 17.6736 14.9236C17.8026 14.7947 17.875 14.6198 17.875 14.4375C17.875 14.2552 17.8026 14.0803 17.6736 13.9514C17.5447 13.8224 17.3698 13.75 17.1875 13.75H14.4375Z" fill="#F58415"/>
</svg>
