<svg width="90" height="90" viewBox="0 0 90 90" fill="none" xmlns="http://www.w3.org/2000/svg">
<path d="M50.625 29.625V11.25H27C24.9114 11.25 22.9084 12.0797 21.4315 13.5565C19.9547 15.0334 19.125 17.0364 19.125 19.125V40.125C17.7326 40.125 16.3973 40.6781 15.4127 41.6627C14.4281 42.6473 13.875 43.9826 13.875 45.375V69C13.875 70.3924 14.4281 71.7277 15.4127 72.7123C16.3973 73.6969 17.7326 74.25 19.125 74.25V76.875C19.125 78.9636 19.9547 80.9666 21.4315 82.4435C22.9084 83.9203 24.9114 84.75 27 84.75H69C71.0886 84.75 73.0916 83.9203 74.5685 82.4435C76.0453 80.9666 76.875 78.9636 76.875 76.875V74.25C78.2674 74.25 79.6027 73.6969 80.5873 72.7123C81.5719 71.7277 82.125 70.3924 82.125 69V45.375C82.125 43.9826 81.5719 42.6473 80.5873 41.6627C79.6027 40.6781 78.2674 40.125 76.875 40.125V37.5H58.5C56.4114 37.5 54.4084 36.6703 52.9315 35.1935C51.4547 33.7166 50.625 31.7136 50.625 29.625ZM76.875 45.375V69H19.125V45.375H76.875ZM55.875 29.625V11.5571C57.1576 11.9255 58.3255 12.6138 59.2691 13.5574L74.5676 28.8559C75.5112 29.7995 76.1995 30.9674 76.5679 32.25H58.5C57.8038 32.25 57.1361 31.9734 56.6438 31.4812C56.1516 30.9889 55.875 30.3212 55.875 29.625Z" fill="#F58415"/>
<path d="M41.5491 55.774C41.5491 56.278 41.4591 56.764 41.2791 57.232C41.1111 57.688 40.8591 58.084 40.5231 58.42C40.1871 58.756 39.7731 59.026 39.2811 59.23C38.8011 59.434 38.2491 59.536 37.6251 59.536H34.4571V63.046C34.4571 63.346 34.3491 63.598 34.1331 63.802C33.9291 64.006 33.6711 64.108 33.3591 64.108C33.0711 64.108 32.8251 64.006 32.6211 63.802C32.4171 63.598 32.3151 63.346 32.3151 63.046V53.29C32.3151 52.93 32.4411 52.624 32.6931 52.372C32.9451 52.12 33.2511 51.994 33.6111 51.994H37.6251C38.2491 51.994 38.8071 52.096 39.2991 52.3C39.7911 52.492 40.1991 52.762 40.5231 53.11C40.8591 53.458 41.1111 53.86 41.2791 54.316C41.4591 54.772 41.5491 55.258 41.5491 55.774ZM39.3531 55.774C39.3531 55.198 39.1611 54.742 38.7771 54.406C38.4051 54.058 37.9251 53.884 37.3371 53.884H34.4571V57.646H37.3371C37.9251 57.646 38.4051 57.478 38.7771 57.142C39.1611 56.794 39.3531 56.338 39.3531 55.774ZM54.0834 58.006C54.0834 58.882 53.9274 59.692 53.6154 60.436C53.3154 61.168 52.8894 61.798 52.3374 62.326C51.7854 62.854 51.1194 63.268 50.3394 63.568C49.5714 63.856 48.7194 64 47.7834 64H44.5974C44.2374 64 43.9314 63.874 43.6794 63.622C43.4274 63.37 43.3014 63.064 43.3014 62.704V53.29C43.3014 52.93 43.4274 52.624 43.6794 52.372C43.9314 52.12 44.2374 51.994 44.5974 51.994H47.7834C48.7194 51.994 49.5714 52.144 50.3394 52.444C51.1194 52.732 51.7854 53.14 52.3374 53.668C52.8894 54.196 53.3154 54.832 53.6154 55.576C53.9274 56.32 54.0834 57.13 54.0834 58.006ZM51.8694 58.006C51.8694 57.43 51.7794 56.89 51.5994 56.386C51.4314 55.882 51.1734 55.45 50.8254 55.09C50.4894 54.718 50.0634 54.424 49.5474 54.208C49.0314 53.992 48.4434 53.884 47.7834 53.884H45.4434V62.11H47.7834C48.4314 62.11 49.0074 62.002 49.5114 61.786C50.0154 61.57 50.4414 61.276 50.7894 60.904C51.1494 60.532 51.4194 60.1 51.5994 59.608C51.7794 59.104 51.8694 58.57 51.8694 58.006ZM64.4503 52.948C64.4503 53.212 64.3603 53.434 64.1803 53.614C64.0003 53.794 63.7843 53.884 63.5323 53.884H58.2403V56.944H63.4063C63.6583 56.944 63.8743 57.04 64.0543 57.232C64.2343 57.412 64.3243 57.634 64.3243 57.898C64.3243 58.162 64.2343 58.384 64.0543 58.564C63.8743 58.744 63.6583 58.834 63.4063 58.834H58.2403V63.046C58.2403 63.346 58.1323 63.598 57.9163 63.802C57.7123 64.006 57.4543 64.108 57.1423 64.108C56.8543 64.108 56.6083 64.006 56.4043 63.802C56.2003 63.598 56.0983 63.346 56.0983 63.046V53.29C56.0983 52.93 56.2243 52.624 56.4763 52.372C56.7283 52.12 57.0343 51.994 57.3943 51.994H63.5323C63.7843 51.994 64.0003 52.09 64.1803 52.282C64.3603 52.462 64.4503 52.684 64.4503 52.948Z" fill="#6A359F"/>
</svg>
