<svg width="32" height="32" viewBox="0 0 32 32" fill="none" xmlns="http://www.w3.org/2000/svg">
<path d="M7.46657 17.0667H6.3999V14.9333H7.46657C7.74947 14.9333 8.02078 15.0457 8.22082 15.2458C8.42085 15.4458 8.53323 15.7171 8.53323 16C8.53323 16.2829 8.42085 16.5542 8.22082 16.7543C8.02078 16.9543 7.74947 17.0667 7.46657 17.0667Z" fill="#F58415"/>
<path d="M14.9333 21.3334V14.9333H16C16.2829 14.9333 16.5542 15.0457 16.7543 15.2458C16.9543 15.4458 17.0667 15.7171 17.0667 16V20.2667C17.0667 20.5496 16.9543 20.8209 16.7543 21.0209C16.5542 21.221 16.2829 21.3334 16 21.3334H14.9333Z" fill="#F58415"/>
<path fill-rule="evenodd" clip-rule="evenodd" d="M2.1333 3.2C2.1333 2.35131 2.47044 1.53737 3.07056 0.937258C3.67068 0.337142 4.48461 0 5.3333 0L22.8416 0L29.8666 7.02507V28.8C29.8666 29.6487 29.5295 30.4626 28.9294 31.0627C28.3293 31.6629 27.5153 32 26.6666 32H5.3333C4.48461 32 3.67068 31.6629 3.07056 31.0627C2.47044 30.4626 2.1333 29.6487 2.1333 28.8V3.2ZM7.46663 12.8H4.26663V23.4667H6.39997V19.2H7.46663C8.31533 19.2 9.12926 18.8629 9.72938 18.2627C10.3295 17.6626 10.6666 16.8487 10.6666 16C10.6666 15.1513 10.3295 14.3374 9.72938 13.7373C9.12926 13.1371 8.31533 12.8 7.46663 12.8ZM16 12.8H12.8V23.4667H16C16.8487 23.4667 17.6626 23.1295 18.2627 22.5294C18.8628 21.9293 19.2 21.1154 19.2 20.2667V16C19.2 15.1513 18.8628 14.3374 18.2627 13.7373C17.6626 13.1371 16.8487 12.8 16 12.8ZM21.3333 23.4667V12.8H27.7333V14.9333H23.4666V17.0667H25.6V19.2H23.4666V23.4667H21.3333Z" fill="#F58415"/>
</svg>
