<svg width="84" height="84" viewBox="0 0 84 84" fill="none" xmlns="http://www.w3.org/2000/svg">
<path d="M42 0C18.8063 0 0 18.8063 0 42C0 65.1937 18.8063 84 42 84C65.1937 84 84 65.1937 84 42C84 18.8063 65.1937 0 42 0ZM55.5094 42.6469L35.0344 57.5437C34.9221 57.6244 34.7898 57.6726 34.652 57.6829C34.5141 57.6933 34.3761 57.6654 34.2531 57.6025C34.13 57.5395 34.0267 57.4438 33.9545 57.326C33.8823 57.2081 33.844 57.0726 33.8438 56.9344V27.1594C33.8433 27.0209 33.8812 26.885 33.9533 26.7667C34.0253 26.6484 34.1287 26.5524 34.252 26.4893C34.3753 26.4262 34.5137 26.3984 34.6518 26.4092C34.7899 26.4199 34.9223 26.4686 35.0344 26.55L55.5094 41.4375C55.6061 41.5059 55.685 41.5965 55.7395 41.7017C55.7939 41.807 55.8224 41.9237 55.8224 42.0422C55.8224 42.1607 55.7939 42.2774 55.7395 42.3826C55.685 42.4878 55.6061 42.5785 55.5094 42.6469Z" fill="white"/>
</svg>
