<svg width="26" height="26" viewBox="0 0 26 26" fill="none" xmlns="http://www.w3.org/2000/svg">
<path d="M21.6774 6.38447C21.6091 6.32956 21.5271 6.29428 21.4402 6.2824C21.3533 6.27052 21.2648 6.28249 21.1842 6.31704L13.3355 9.71572C12.9942 9.86441 12.5669 9.9351 12.1281 9.9351C11.5163 9.93753 10.8834 9.79535 10.4422 9.60197C10.3077 9.54534 10.1797 9.47453 10.0603 9.39072C10.0928 9.37447 10.1334 9.3566 10.1781 9.33872L17.3167 6.24797L18.3811 6.70297V5.37291C18.3827 5.27806 18.3629 5.18407 18.3231 5.09797C18.2832 5.01186 18.2245 4.93587 18.1512 4.87566C18.0831 4.82081 18.0014 4.78555 17.9148 4.77367C17.8282 4.76179 17.74 4.77373 17.6596 4.80822L9.81087 8.20691C9.56875 8.30441 9.36075 8.42466 9.18525 8.59935C8.98202 8.79984 8.8666 9.07275 8.86431 9.35822C8.86431 9.36635 8.86675 9.38016 8.86675 9.38016V21.3483L8.86512 21.3645C8.86512 21.3678 8.86756 21.3694 8.86756 21.3727V21.3857H8.86919C8.88544 21.8041 9.09669 22.0706 9.29819 22.2591C9.93194 22.8181 10.9963 23.1309 12.1289 23.1472C12.6652 23.1472 13.2096 23.0659 13.7133 22.8498L21.5645 19.4503C21.7717 19.3609 21.9074 19.1391 21.9074 18.888V6.88172C21.9086 6.78693 21.8886 6.69305 21.8488 6.60701C21.809 6.52096 21.7505 6.44492 21.6774 6.38447ZM16.6992 4.10947C16.6854 3.93072 16.6115 3.7601 16.4799 3.65772C16.4115 3.60281 16.3295 3.56753 16.2426 3.55565C16.1558 3.54377 16.0673 3.55574 15.9867 3.59029L8.13794 6.98735C7.79669 7.13522 7.3685 7.20672 6.93056 7.20672C6.31875 7.20835 5.68581 7.06616 5.24462 6.87197C5.11004 6.81629 4.98198 6.74599 4.86275 6.66235C4.89525 6.6461 4.93587 6.62822 4.98056 6.61035L12.12 3.5196L13.1844 3.9746V2.64616C13.1858 2.55125 13.1658 2.45724 13.1259 2.37115C13.0859 2.28505 13.027 2.20908 12.9536 2.14891C12.8854 2.09407 12.8035 2.05882 12.7168 2.04694C12.63 2.03507 12.5417 2.047 12.4612 2.08147L4.6125 5.48097C4.37037 5.57847 4.16319 5.69791 3.98687 5.87341C3.78394 6.07404 3.66883 6.34693 3.66675 6.63229C3.66675 6.64204 3.66919 6.65504 3.66919 6.65504V18.6613H3.67081C3.68706 19.0798 3.89831 19.3463 4.09981 19.5348C4.73356 20.0938 5.79794 20.4058 6.93137 20.422C7.23918 20.4202 7.546 20.387 7.84706 20.3229V9.37935C7.83894 8.8106 8.06644 8.2646 8.46619 7.87135C8.74314 7.6027 9.07219 7.39365 9.43306 7.2571L16.6992 4.10947Z" fill="#F58415"/>
</svg>
