<svg width="553" height="503" viewBox="0 0 553 503" fill="none" xmlns="http://www.w3.org/2000/svg">
<path d="M539.327 297.676C523.571 345.435 489.617 397.797 439.639 414.838C364.139 440.604 357.365 502.519 220.37 502.099C200.365 502.126 180.415 499.984 160.872 495.71C151.317 493.586 141.907 490.855 132.7 487.534C51.5239 458.252 7.08147 388.616 0.715866 314.203C-7.63533 216.324 58.964 166.953 102.332 137.835C145.7 108.716 195.223 0.653134 329.94 0.0107339C350.505 -0.173619 371.022 2.01726 391.085 6.53985C436.824 17.0519 483.894 42.3624 512.171 80.9415C514.286 83.8381 516.318 86.7815 518.28 89.8416C556.462 149.211 560.819 232.548 539.327 297.676Z" fill="#E9EAEB"/>
<path d="M548.438 475.054H6.20557V476.222H548.438V475.054Z" fill="#263238"/>
<path d="M30.6042 260.721C34.4119 260.102 41.5718 255.243 41.5834 255.243C41.5951 255.243 36.9114 251.494 36.6194 251.295C32.8702 248.959 24.2737 246.74 20.5361 249.94C19.9282 250.488 19.4421 251.157 19.1094 251.905C18.7767 252.652 18.6047 253.461 18.6047 254.279C18.6047 255.097 18.7767 255.907 19.1094 256.654C19.4421 257.402 19.9282 258.071 20.5361 258.618C23.0823 261.025 27.3572 261.246 30.6042 260.721Z" fill="#263238"/>
<path d="M46.6993 280.145C50.0748 278.603 55.3425 272.541 55.763 272.062C59.225 275.083 62.8851 277.869 66.7188 280.402C68.938 281.885 71.2273 283.322 73.5399 284.723C72.3719 284.244 71.3558 283.812 71.2039 283.777C66.9874 282.539 58.099 282.609 55.3308 286.709C54.8919 287.4 54.6032 288.176 54.4835 288.986C54.3639 289.796 54.4158 290.622 54.6361 291.411C54.8564 292.199 55.2401 292.933 55.7622 293.563C56.2843 294.194 56.9332 294.708 57.6668 295.072C60.727 296.73 64.9201 295.819 67.8985 294.453C70.8769 293.086 75.5372 287.982 76.7286 286.627L79.4033 288.216C83.7015 290.75 87.9881 293.25 92.1228 295.831C93.5828 296.742 94.9844 297.688 96.3977 298.634C95.3698 298.214 94.5055 297.852 94.3654 297.817C90.1489 296.578 81.2604 296.649 78.4922 300.76C78.0533 301.451 77.7646 302.227 77.645 303.037C77.5253 303.847 77.5773 304.673 77.7976 305.462C78.0178 306.25 78.4015 306.984 78.9236 307.614C79.4457 308.245 80.0947 308.759 80.8282 309.123C83.8884 310.77 88.0698 309.859 91.0599 308.492C94.05 307.125 98.2431 302.524 99.6798 300.912C101.093 301.916 102.506 302.932 103.826 303.972C104.714 304.708 105.613 305.35 106.466 306.133L108.989 308.352C110.554 309.847 112.177 311.377 113.661 312.872C114.7 313.912 115.681 314.904 116.662 315.921C115.226 314.998 112.364 313.246 112.119 313.129C108.124 311.272 99.271 310.022 95.9772 313.631C95.438 314.247 95.0342 314.969 94.7921 315.751C94.55 316.533 94.475 317.357 94.5719 318.17C94.6688 318.983 94.9355 319.766 95.3547 320.469C95.7738 321.172 96.3361 321.779 97.005 322.251C99.7849 324.342 104.013 324.085 107.213 323.185C110.717 322.193 116.557 317.229 117.34 316.598C118.975 318.28 120.54 319.927 122.012 321.492C125.236 324.996 128.015 328.138 130.328 330.836L133.05 329.084C130.585 326.316 127.607 323.057 124.138 319.483C122.491 317.766 120.704 315.979 118.847 314.157C120.278 312.127 121.593 310.018 122.783 307.838C126.38 308.772 133.54 307.955 134.463 307.838C134.895 310.174 135.292 312.37 135.631 314.484C136.367 318.911 136.916 322.893 137.336 326.304L140.279 324.412C139.801 321.317 139.228 317.813 138.516 313.982C138.084 311.646 137.57 309.158 137.032 306.623C137.908 306.285 145.115 303.458 147.65 300.877C149.986 298.541 152.228 294.897 151.726 291.451C151.631 290.638 151.367 289.854 150.949 289.15C150.532 288.446 149.972 287.838 149.305 287.364C148.637 286.891 147.878 286.563 147.076 286.402C146.273 286.24 145.446 286.25 144.648 286.429C139.871 287.597 136.764 295.971 136.472 300.363C136.472 300.62 136.589 303.446 136.705 305.233C136.483 304.194 136.273 303.189 136.028 302.115C135.549 300.012 135.012 297.91 134.439 295.667L133.493 292.397C133.201 291.299 132.746 290.178 132.325 289.045C131.414 286.464 130.363 283.894 129.242 281.313C131.087 280.892 137.628 279.304 140.268 277.33C142.907 275.356 145.699 272.109 145.711 268.64C145.742 267.822 145.601 267.007 145.297 266.247C144.993 265.487 144.532 264.799 143.945 264.229C143.358 263.658 142.658 263.217 141.889 262.935C141.121 262.653 140.302 262.535 139.485 262.59C134.58 263.069 130.246 270.824 129.3 275.122C129.3 275.391 128.926 278.556 128.775 280.297C128.097 278.755 127.42 277.213 126.672 275.683C124.535 271.245 122.234 266.829 119.956 262.403C119.255 261.048 118.578 259.693 117.889 258.338C118.543 258.198 126.357 256.469 129.324 254.25C131.952 252.288 134.755 249.041 134.766 245.56C134.796 244.742 134.654 243.927 134.348 243.168C134.042 242.408 133.581 241.721 132.993 241.152C132.404 240.583 131.703 240.143 130.934 239.862C130.165 239.582 129.346 239.465 128.529 239.522C123.635 240.001 119.29 247.756 118.356 252.054C118.286 252.381 117.819 256.925 117.76 258.093C116.254 255.103 114.77 252.113 113.439 249.111C111.617 245.057 110.056 240.89 108.767 236.637C109.07 236.567 117.235 234.803 120.272 232.537C122.9 230.563 125.703 227.316 125.714 223.847C125.744 223.029 125.602 222.214 125.296 221.454C124.99 220.695 124.529 220.008 123.941 219.439C123.352 218.87 122.651 218.43 121.882 218.149C121.113 217.868 120.294 217.752 119.477 217.809C114.583 218.287 110.238 226.043 109.304 230.341C109.234 230.668 108.732 235.562 108.708 236.461C108.638 236.216 108.533 235.971 108.463 235.714C107.299 231.411 106.517 227.014 106.127 222.574C105.882 220.133 105.777 217.773 105.742 215.473C107.295 215.309 114.385 214.445 117.34 212.704C120.295 210.964 123.308 208.114 123.706 204.657C123.824 203.847 123.771 203.022 123.55 202.235C123.33 201.447 122.946 200.714 122.424 200.085C121.902 199.455 121.253 198.942 120.521 198.578C119.788 198.215 118.987 198.01 118.169 197.976C113.252 197.906 108.089 205.136 106.676 209.305C106.606 209.539 106.08 211.922 105.73 213.674C105.73 212.634 105.73 211.571 105.73 210.579C105.73 206.853 106.045 203.442 106.314 200.429C106.478 198.712 106.664 197.17 106.851 195.757C108.288 194.787 114.034 190.828 115.822 187.978C117.609 185.128 118.998 181.157 117.76 177.91C117.493 177.136 117.067 176.428 116.509 175.83C115.95 175.232 115.273 174.758 114.52 174.438C113.766 174.119 112.954 173.961 112.136 173.976C111.319 173.99 110.513 174.177 109.771 174.522C105.368 176.73 104.118 185.525 104.796 189.882C104.796 190.255 106.442 196.025 106.524 195.979L106.606 195.92C106.396 197.31 106.197 198.793 105.999 200.429C105.66 203.442 105.321 206.853 105.193 210.59C105.007 214.619 105.058 218.656 105.345 222.679C105.639 227.187 106.338 231.659 107.435 236.041C107.435 236.041 107.435 236.134 107.435 236.193C106.676 234.966 104.422 231.603 104.223 231.369C101.385 228.005 93.9215 223.193 89.3663 225.062C88.6189 225.395 87.95 225.882 87.4029 226.491C86.8558 227.1 86.4428 227.817 86.1906 228.595C85.9384 229.374 85.8527 230.197 85.939 231.011C86.0253 231.824 86.2817 232.611 86.6916 233.32C88.3268 236.391 92.3214 237.992 95.5684 238.447C99.2242 239.019 106.968 236.87 107.587 236.695C108.808 241.128 110.322 245.475 112.119 249.707C113.158 252.171 114.28 254.624 115.436 257.077C114.735 256.037 114.116 255.114 114.011 254.986C111.173 251.634 103.698 246.81 99.1425 248.69C98.4014 249.033 97.7403 249.526 97.2019 250.14C96.6634 250.753 96.2595 251.473 96.0163 252.252C95.7731 253.031 95.6959 253.853 95.7898 254.664C95.8836 255.475 96.1464 256.257 96.5612 256.96C98.2081 260.032 102.203 261.632 105.45 262.099C108.697 262.566 115.378 260.931 117.13 260.429C117.585 261.363 118.017 262.309 118.473 263.244C120.657 267.717 122.865 272.167 124.885 276.606C125.598 278.171 126.252 279.736 126.894 281.278C126.287 280.355 125.726 279.584 125.726 279.479C122.876 276.115 115.413 271.303 110.858 273.172C110.097 273.499 109.415 273.983 108.856 274.594C108.297 275.205 107.874 275.927 107.616 276.714C107.358 277.5 107.269 278.332 107.357 279.155C107.445 279.979 107.706 280.774 108.124 281.488C109.771 284.548 113.766 286.101 117.013 286.615C120.26 287.129 126.287 285.588 128.378 285.039C128.997 286.65 129.616 288.286 130.141 289.886C130.48 290.984 130.877 292.012 131.157 293.145L132.033 296.427C132.512 298.541 133.026 300.713 133.447 302.781C133.739 304.229 134.007 305.595 134.276 306.985C133.575 305.42 132.162 302.383 132.01 302.15C129.866 298.924 126.93 296.302 123.484 294.534C123.258 294.169 123.004 293.821 122.724 293.495C122.197 292.869 121.543 292.361 120.806 292.004C120.07 291.647 119.266 291.448 118.448 291.422C117.629 291.395 116.815 291.541 116.056 291.85C115.298 292.159 114.613 292.624 114.046 293.215C110.729 296.859 112.726 305.514 114.922 309.333C115.051 309.555 116.733 311.844 117.807 313.269C117.048 312.522 116.312 311.797 115.471 311.05C113.918 309.543 112.306 308.095 110.589 306.53L107.996 304.334C107.143 303.575 106.15 302.886 105.228 302.15C103.032 300.503 100.743 298.938 98.3833 297.408C99.7031 296.029 104.223 291.101 105.391 287.994C106.559 284.887 107.05 280.647 105.146 277.739C104.72 277.041 104.152 276.44 103.479 275.975C102.806 275.511 102.043 275.193 101.239 275.042C100.435 274.891 99.6084 274.911 98.8127 275.1C98.017 275.289 97.2698 275.642 96.6196 276.138C92.7886 279.245 93.4426 288.11 95.0428 292.21C95.1362 292.467 96.6079 295.282 97.4489 296.812C96.0239 295.901 94.6223 294.99 93.1506 294.114C88.9225 291.603 84.5542 289.185 80.2209 286.756L76.2497 284.501C76.7286 284.022 82.2882 278.276 83.538 274.795C84.706 271.7 85.1849 267.449 83.281 264.54C82.8549 263.842 82.2869 263.241 81.6138 262.777C80.9407 262.312 80.1776 261.994 79.3738 261.844C78.57 261.693 77.7435 261.712 76.9478 261.901C76.1521 262.09 75.4049 262.444 74.7546 262.94C70.9236 266.047 71.5894 274.9 73.1778 279C73.2946 279.315 75.4204 283.357 76.0161 284.361C73.1078 282.703 70.1761 281.032 67.4546 279.257C63.6957 276.884 60.0946 274.27 56.674 271.431C56.8959 271.209 62.7359 265.229 64.009 261.667C65.107 258.572 65.6559 254.32 63.7521 251.412C63.3259 250.714 62.7579 250.113 62.0848 249.649C61.4118 249.184 60.6486 248.866 59.8448 248.715C59.041 248.564 58.2145 248.584 57.4188 248.773C56.6231 248.962 55.8759 249.316 55.2257 249.812C51.3946 252.919 52.0604 261.784 53.6489 265.883C53.7774 266.199 56.055 270.555 56.5339 271.315L55.9148 270.836C52.5653 267.892 49.4851 264.656 46.711 261.165C45.1459 259.261 43.7676 257.357 42.4595 255.465C43.6275 254.46 49.1054 249.823 50.6354 246.752C52.1655 243.68 53.0766 239.627 51.4998 236.532C51.1535 235.791 50.6556 235.132 50.0384 234.596C49.4212 234.06 48.6984 233.66 47.9168 233.421C47.1351 233.182 46.312 233.11 45.5007 233.209C44.6894 233.308 43.908 233.577 43.207 233.997C39.0606 236.66 38.7452 245.549 39.8665 249.8C39.9366 250.034 40.8126 252.311 41.49 253.958C40.906 253.105 40.322 252.229 39.7614 251.389C37.7524 248.258 36.0939 245.257 34.6572 242.593C33.8513 241.075 33.1505 239.685 32.5081 238.377C33.1739 236.777 35.7785 230.306 35.6967 226.942C35.615 223.578 34.5871 219.49 31.7606 217.47C31.1115 216.971 30.3648 216.614 29.5688 216.422C28.7729 216.23 27.9455 216.208 27.1404 216.357C26.3352 216.505 25.5704 216.822 24.8954 217.285C24.2205 217.748 23.6505 218.349 23.2225 219.047C20.7814 223.321 24.5891 231.357 27.5558 234.604C27.8127 234.885 32.3212 238.821 32.3562 238.739C32.3599 238.708 32.3599 238.677 32.3562 238.646C32.9519 239.919 33.5943 241.274 34.3419 242.745C35.7201 245.443 37.3202 248.48 39.2708 251.669C41.3547 255.121 43.6401 258.448 46.1153 261.632C48.8523 265.222 51.9009 268.564 55.2257 271.618L55.3542 271.723C54.0343 271.116 50.3201 269.551 50.0164 269.469C45.7883 268.231 36.9114 268.301 34.1433 272.413C33.7044 273.104 33.4157 273.88 33.296 274.69C33.1763 275.5 33.2283 276.326 33.4486 277.114C33.6689 277.903 34.0525 278.636 34.5747 279.267C35.0968 279.898 35.7457 280.412 36.4793 280.775C39.5278 282.422 43.7092 281.488 46.6993 280.145Z" fill="#263238"/>
<path d="M105.134 214.912C105.216 214.912 103.336 209.224 103.172 208.885C101.315 204.89 95.3932 198.268 90.4993 198.875C89.6915 199 88.919 199.294 88.2318 199.737C87.5446 200.179 86.958 200.761 86.5099 201.445C86.0618 202.129 85.7622 202.899 85.6306 203.706C85.4989 204.512 85.5381 205.338 85.7456 206.129C86.5164 209.527 89.962 212.074 92.9521 213.429C96.4444 214.97 105.123 214.912 105.134 214.912Z" fill="#263238"/>
<path d="M473.791 89.2515H92.6025V454.508H473.791V89.2515Z" fill="#263238"/>
<path d="M473.791 455.092H92.6026C92.4477 455.092 92.2991 455.031 92.1896 454.921C92.0801 454.812 92.0186 454.663 92.0186 454.508V89.2515C92.0186 89.0966 92.0801 88.9481 92.1896 88.8385C92.2991 88.729 92.4477 88.6675 92.6026 88.6675H473.791C473.946 88.6675 474.094 88.729 474.204 88.8385C474.313 88.9481 474.375 89.0966 474.375 89.2515V454.508C474.375 454.663 474.313 454.812 474.204 454.921C474.094 455.031 473.946 455.092 473.791 455.092ZM93.1866 453.924H473.207V89.8355H93.1866V453.924Z" fill="#263238"/>
<path d="M480.122 84.3342H98.9331V449.591H480.122V84.3342Z" fill="white"/>
<path d="M480.122 450.175H98.9331C98.7782 450.175 98.6297 450.114 98.5202 450.004C98.4106 449.895 98.3491 449.746 98.3491 449.591V84.3342C98.3491 84.1794 98.4106 84.0308 98.5202 83.9213C98.6297 83.8118 98.7782 83.7502 98.9331 83.7502H480.122C480.277 83.7502 480.425 83.8118 480.535 83.9213C480.644 84.0308 480.706 84.1794 480.706 84.3342V449.591C480.703 449.745 480.64 449.892 480.531 450.001C480.422 450.11 480.276 450.172 480.122 450.175V450.175ZM99.5171 449.007H479.538V84.9182H99.5171V449.007Z" fill="#263238"/>
<path d="M286.187 430.786C286.033 430.783 285.886 430.721 285.777 430.612C285.668 430.503 285.606 430.356 285.603 430.202V101.994C285.606 101.84 285.668 101.694 285.777 101.585C285.886 101.476 286.033 101.413 286.187 101.41C286.342 101.41 286.49 101.472 286.6 101.581C286.709 101.691 286.771 101.84 286.771 101.994V430.202C286.771 430.357 286.709 430.506 286.6 430.615C286.49 430.725 286.342 430.786 286.187 430.786Z" fill="#263238"/>
<g opacity="0.2">
<path opacity="0.2" d="M331.564 152.861H306.709V164.155H331.564V152.861Z" fill="black"/>
<path opacity="0.2" d="M345.463 138.821H320.608V150.116H345.463V138.821Z" fill="black"/>
<path opacity="0.2" d="M360.589 152.861H335.734V164.155H360.589V152.861Z" fill="black"/>
<path opacity="0.2" d="M403.851 113.99H378.996V125.284H403.851V113.99Z" fill="black"/>
<path opacity="0.2" d="M417.751 99.9387H392.896V111.233H417.751V99.9387Z" fill="black"/>
<path opacity="0.2" d="M432.876 113.99H408.021V125.284H432.876V113.99Z" fill="black"/>
<path opacity="0.2" d="M360.589 188.917H335.734V200.212H360.589V188.917Z" fill="black"/>
<path opacity="0.2" d="M374.488 174.866H349.633V186.161H374.488V174.866Z" fill="black"/>
<path opacity="0.2" d="M389.613 188.917H364.758V200.212H389.613V188.917Z" fill="black"/>
<path opacity="0.2" d="M438.307 295.193H413.452V306.488H438.307V295.193Z" fill="black"/>
<path opacity="0.2" d="M452.206 281.142H427.351V292.437H452.206V281.142Z" fill="black"/>
<path opacity="0.2" d="M467.332 295.193H442.477V306.488H467.332V295.193Z" fill="black"/>
<path opacity="0.2" d="M438.307 412.239H413.452V423.533H438.307V412.239Z" fill="black"/>
<path opacity="0.2" d="M452.206 398.188H427.351V409.482H452.206V398.188Z" fill="black"/>
<path opacity="0.2" d="M467.332 412.239H442.477V423.533H467.332V412.239Z" fill="black"/>
<path opacity="0.2" d="M338.116 320.936H313.261V332.231H338.116V320.936Z" fill="black"/>
<path opacity="0.2" d="M352.015 306.897H327.16V318.191H352.015V306.897Z" fill="black"/>
<path opacity="0.2" d="M367.141 320.936H342.286V332.231H367.141V320.936Z" fill="black"/>
<path opacity="0.2" d="M338.116 361.676H313.261V372.97H338.116V361.676Z" fill="black"/>
<path opacity="0.2" d="M352.015 347.625H327.16V358.919H352.015V347.625Z" fill="black"/>
<path opacity="0.2" d="M367.141 361.676H342.286V372.97H367.141V361.676Z" fill="black"/>
<path opacity="0.2" d="M396.633 361.676H371.778V372.97H396.633V361.676Z" fill="black"/>
<path opacity="0.2" d="M410.532 347.625H385.677V358.919H410.532V347.625Z" fill="black"/>
<path opacity="0.2" d="M425.658 361.676H400.803V372.97H425.658V361.676Z" fill="black"/>
</g>
<path d="M255.363 313.519H130.749V334.648H255.363V313.519Z" fill="white"/>
<path d="M255.363 233.584H130.749V254.713H255.363V233.584Z" fill="white"/>
<path d="M255.363 335.232H130.773C130.618 335.232 130.469 335.17 130.36 335.061C130.25 334.951 130.189 334.803 130.189 334.648V313.519C130.189 313.364 130.25 313.215 130.36 313.106C130.469 312.996 130.618 312.935 130.773 312.935H255.363C255.518 312.935 255.667 312.996 255.776 313.106C255.886 313.215 255.947 313.364 255.947 313.519V334.648C255.947 334.803 255.886 334.951 255.776 335.061C255.667 335.17 255.518 335.232 255.363 335.232ZM131.333 334.064H254.779V314.103H131.333V334.064Z" fill="#263238"/>
<path d="M255.363 255.297H130.773C130.618 255.297 130.469 255.236 130.36 255.126C130.25 255.017 130.189 254.868 130.189 254.713V233.584C130.189 233.429 130.25 233.281 130.36 233.171C130.469 233.062 130.618 233 130.773 233H255.363C255.518 233 255.667 233.062 255.776 233.171C255.886 233.281 255.947 233.429 255.947 233.584V254.713C255.947 254.868 255.886 255.017 255.776 255.126C255.667 255.236 255.518 255.297 255.363 255.297ZM131.333 254.129H254.779V234.168H131.333V254.129Z" fill="#263238"/>
<path d="M255.363 352.868H130.749V373.998H255.363V352.868Z" fill="white"/>
<path d="M255.363 272.934H130.749V294.063H255.363V272.934Z" fill="white"/>
<path d="M255.363 374.64H130.773C130.618 374.64 130.469 374.578 130.36 374.469C130.25 374.359 130.189 374.211 130.189 374.056V352.868C130.189 352.714 130.25 352.565 130.36 352.455C130.469 352.346 130.618 352.284 130.773 352.284H255.363C255.518 352.284 255.667 352.346 255.776 352.455C255.886 352.565 255.947 352.714 255.947 352.868V373.998C255.955 374.079 255.946 374.161 255.921 374.239C255.895 374.317 255.853 374.388 255.798 374.449C255.743 374.509 255.676 374.558 255.601 374.591C255.526 374.624 255.445 374.64 255.363 374.64ZM131.333 373.472H254.779V353.452H131.333V373.472Z" fill="#263238"/>
<path d="M255.363 294.705H130.773C130.618 294.705 130.469 294.644 130.36 294.534C130.25 294.425 130.189 294.276 130.189 294.121V272.934C130.189 272.779 130.25 272.63 130.36 272.521C130.469 272.411 130.618 272.35 130.773 272.35H255.363C255.518 272.35 255.667 272.411 255.776 272.521C255.886 272.63 255.947 272.779 255.947 272.934V294.063C255.955 294.144 255.946 294.227 255.921 294.304C255.895 294.382 255.853 294.454 255.798 294.514C255.743 294.575 255.676 294.623 255.601 294.656C255.526 294.689 255.445 294.706 255.363 294.705ZM131.333 293.537H254.779V273.518H131.333V293.537Z" fill="#263238"/>
<path d="M227.623 394.665H158.501C155.379 394.665 152.848 397.196 152.848 400.318V414.077C152.848 417.199 155.379 419.73 158.501 419.73H227.623C230.745 419.73 233.276 417.199 233.276 414.077V400.318C233.276 397.196 230.745 394.665 227.623 394.665Z" fill="#263238"/>
<path d="M227.612 420.302H158.501C156.847 420.302 155.26 419.645 154.091 418.476C152.921 417.306 152.264 415.719 152.264 414.065V400.318C152.264 398.664 152.921 397.077 154.091 395.908C155.26 394.738 156.847 394.081 158.501 394.081H227.612C229.267 394.081 230.854 394.738 232.026 395.907C233.198 397.076 233.857 398.663 233.86 400.318V414.065C233.857 415.721 233.198 417.307 232.026 418.476C230.854 419.646 229.267 420.302 227.612 420.302V420.302ZM158.501 395.249C157.157 395.249 155.867 395.783 154.917 396.734C153.966 397.684 153.432 398.974 153.432 400.318V414.065C153.432 415.41 153.966 416.699 154.917 417.65C155.867 418.6 157.157 419.134 158.501 419.134H227.612C228.278 419.136 228.939 419.006 229.555 418.752C230.171 418.498 230.732 418.125 231.204 417.654C231.676 417.183 232.05 416.624 232.305 416.008C232.561 415.392 232.692 414.732 232.692 414.065V400.318C232.692 399.651 232.561 398.991 232.305 398.375C232.05 397.76 231.676 397.2 231.204 396.729C230.732 396.259 230.171 395.885 229.555 395.631C228.939 395.377 228.278 395.247 227.612 395.249H158.501Z" fill="#263238"/>
<path d="M363.999 274.216C363.999 274.216 360.156 295.17 359.572 301.372C358.988 307.574 358.404 332.803 362.819 349.914C365.458 360.189 369.109 370.178 373.717 379.733C373.717 379.733 376.66 391.834 378.389 395.081C380.117 398.328 394.916 423.416 394.916 423.416C394.916 423.416 394.028 433.741 393.444 435.517C392.86 437.292 390.781 448.201 391.377 451.448C391.972 454.695 392.848 456.763 391.961 460.897C391.073 465.032 389.893 469.155 391.961 472.706C394.028 476.257 399.051 476.537 400.522 474.47C401.846 472.773 402.815 470.827 403.372 468.749C403.93 466.67 404.065 464.501 403.769 462.369C402.882 456.529 399.927 448.797 400.522 445.55C401.123 442.997 402.013 440.52 403.174 438.168C403.174 438.168 414.398 461.189 414.982 462.965C415.566 464.74 416.757 472.11 417.318 474.47C417.879 476.829 421.161 473.582 422.34 472.134C423.52 470.685 427.947 464.46 427.012 460.325C426.078 456.19 423.508 448.82 423.508 448.82L427.912 454.66C427.998 454.797 428.131 454.897 428.287 454.941C428.442 454.985 428.608 454.97 428.753 454.899C428.898 454.828 429.011 454.706 429.072 454.556C429.132 454.406 429.135 454.24 429.08 454.088C428.251 451.25 427.129 447.489 426.744 446.776C426.148 445.608 425.856 441.754 423.497 438.519C421.137 435.283 414.643 438.215 414.643 438.215L409.621 422.283C409.621 422.283 418.778 392.184 417.003 382.139C415.227 372.094 414.351 364.736 414.935 362.669C415.519 360.601 426.744 329.462 426.744 322.957C426.744 316.451 427.036 300.823 423.497 292.262C421.088 286.589 418.326 281.073 415.227 275.746L363.999 274.216Z" fill="white"/>
<path d="M397.474 476.35H397.17C396.029 476.296 394.918 475.963 393.935 475.38C392.951 474.798 392.125 473.984 391.529 473.01C389.531 469.576 390.361 465.651 391.225 461.855L391.459 460.781C392.001 458.345 391.929 455.812 391.248 453.411C391.12 452.827 390.991 452.243 390.863 451.565C390.255 448.178 392.358 437.14 392.954 435.342C393.629 431.444 394.108 427.514 394.39 423.568C393.117 421.407 379.627 398.456 377.945 395.373C376.263 392.289 373.448 381.018 373.191 379.955C368.584 370.394 364.919 360.407 362.247 350.136C357.902 333.305 358.346 308.158 358.988 301.384C359.572 295.228 363.38 274.391 363.427 274.181L363.508 273.69H364.011L415.683 275.174L415.846 275.454C418.953 280.811 421.727 286.353 424.151 292.051C427.503 300.157 427.468 314.617 427.445 321.567V322.968C427.445 328.341 420.063 349.832 416.933 358.966C416.232 360.987 415.765 362.47 415.624 362.832C415.321 363.883 415.192 367.796 417.703 382.046C419.432 391.81 411.186 419.562 410.368 422.283L415.134 437.467C416.886 436.79 421.908 435.202 424.092 438.203C425.466 440.248 426.426 442.541 426.919 444.954C427.035 445.5 427.195 446.035 427.398 446.554C427.69 447.15 428.484 449.638 429.734 453.96C429.819 454.237 429.803 454.535 429.69 454.801C429.576 455.068 429.371 455.286 429.112 455.416C428.854 455.546 428.557 455.58 428.275 455.512C427.993 455.445 427.745 455.279 427.573 455.046L425.366 452.138C426.195 454.625 427.234 457.978 427.702 460.314C428.741 465.184 423.1 472.309 422.866 472.601C422.632 472.893 419.782 476.385 417.949 475.988C417.65 475.924 417.377 475.77 417.168 475.547C416.959 475.323 416.824 475.041 416.781 474.738C416.524 473.71 416.162 471.772 415.776 469.716C415.297 467.146 414.748 464.25 414.433 463.28C413.989 461.96 407.168 447.839 403.185 439.652C402.266 441.613 401.564 443.669 401.095 445.784C400.767 447.594 401.667 451.086 402.625 454.789C403.329 457.3 403.902 459.845 404.342 462.416C404.656 464.62 404.522 466.865 403.948 469.017C403.374 471.168 402.371 473.182 401.001 474.937C400.559 475.425 400.012 475.806 399.401 476.051C398.789 476.296 398.13 476.398 397.474 476.35V476.35ZM364.478 274.823C363.894 278.024 360.682 295.847 360.156 301.442C359.514 308.158 359.07 333.095 363.38 349.786C366.03 360.013 369.672 369.957 374.254 379.476V379.593C374.254 379.722 377.209 391.658 378.926 394.777C380.643 397.896 395.278 422.809 395.441 423.101L395.535 423.253V423.44C395.535 423.872 394.635 433.858 394.028 435.68C393.421 437.502 391.412 448.166 391.984 451.32C392.101 451.962 392.229 452.558 392.346 453.13C393.065 455.693 393.141 458.392 392.568 460.991L392.335 462.066C391.505 465.815 390.734 469.342 392.498 472.379C392.99 473.188 393.673 473.864 394.488 474.347C395.303 474.83 396.224 475.105 397.17 475.147C397.701 475.219 398.241 475.162 398.745 474.981C399.249 474.8 399.703 474.5 400.067 474.108C401.352 472.474 402.294 470.597 402.836 468.59C403.378 466.582 403.509 464.487 403.22 462.428C402.858 460.092 402.181 457.452 401.527 454.917C400.534 451.086 399.599 447.477 399.973 445.41C400.574 442.8 401.483 440.271 402.683 437.876L403.209 436.813L403.723 437.876C404.19 438.822 414.97 460.956 415.566 462.743C415.905 463.782 416.43 466.609 416.944 469.342C417.33 471.374 417.68 473.29 417.937 474.294C417.995 474.528 418.077 474.657 418.171 474.68C418.79 474.808 420.577 473.395 421.932 471.713C423.847 469.307 427.281 463.864 426.534 460.395C425.669 456.342 423.03 449.031 423.03 448.961L421.733 445.363L428.449 454.228L429.127 454.006L428.566 454.17C426.942 448.598 426.452 447.255 426.3 446.952C426.053 446.36 425.865 445.746 425.739 445.118C425.278 442.853 424.382 440.699 423.1 438.776C421.056 435.949 415.029 438.635 414.924 438.67L414.328 438.939L409.06 422.202V422.026C409.154 421.734 418.159 391.95 416.43 382.163C414.48 371.125 413.791 364.479 414.375 362.423C414.491 362.026 414.97 360.625 415.695 358.511C418.556 350.183 426.207 328.061 426.207 322.887V321.485C426.207 314.617 426.265 300.309 423.006 292.425C420.65 286.872 417.955 281.47 414.935 276.248L364.478 274.823Z" fill="#263238"/>
<path d="M413.697 434.781L409.738 422.237C409.738 422.237 418.895 392.137 417.12 382.093C415.344 372.048 414.468 364.689 415.052 362.622C415.636 360.555 425.821 329.334 426.861 322.91C428.704 312.577 427.578 301.933 423.614 292.215C421.205 286.542 418.443 281.026 415.344 275.699L363.952 274.216C363.952 274.216 360.109 295.17 359.525 301.372C358.941 307.574 358.357 332.803 362.772 349.914C365.427 360.191 369.093 370.179 373.717 379.733C373.717 379.733 376.66 391.834 378.389 395.081C380.117 398.328 394.916 423.416 394.916 423.416C394.916 423.416 394.402 429.35 393.9 432.994C395.941 434.481 398.315 435.447 400.814 435.809L403.15 438.145C403.15 438.145 409.925 441.123 413.697 434.781Z" fill="#263238"/>
<path d="M406.841 439.43C405.531 439.424 404.232 439.179 403.01 438.705L402.835 438.589L400.627 436.369C398.097 435.966 395.696 434.974 393.619 433.473L393.304 433.274L393.362 432.912C393.806 429.689 394.262 424.584 394.355 423.568C393.082 421.407 379.592 398.456 377.91 395.373C376.228 392.289 373.413 381.018 373.156 379.955C368.561 370.393 364.907 360.406 362.247 350.136C357.902 333.305 358.346 308.158 358.988 301.384C359.572 295.228 363.38 274.391 363.427 274.181L363.508 273.69H364.011L415.683 275.174L415.846 275.454C418.953 280.811 421.727 286.353 424.151 292.051C428.136 301.858 429.277 312.589 427.445 323.015C426.615 328.166 420.133 348.536 417.026 358.335C416.267 360.73 415.741 362.365 415.624 362.785C415.321 363.837 415.192 367.749 417.703 381.999C419.432 391.764 411.186 419.515 410.368 422.237L414.34 434.863L414.211 435.085C413.504 436.419 412.441 437.531 411.14 438.298C409.839 439.065 408.351 439.457 406.841 439.43V439.43ZM403.582 437.678C404.4 438.005 409.808 439.909 413.055 434.711L409.13 422.237V422.061C409.224 421.769 418.229 391.986 416.5 382.198C414.55 371.16 413.861 364.514 414.445 362.458C414.562 362.038 415.087 360.391 415.858 357.985C418.72 348.98 425.412 327.886 426.242 322.828C428.047 312.605 426.933 302.08 423.03 292.46C420.676 286.906 417.981 281.504 414.959 276.283L364.431 274.823C363.847 278.024 360.635 295.847 360.109 301.442C359.467 308.158 359.023 333.095 363.333 349.786C365.983 360.013 369.625 369.957 374.207 379.476V379.593C374.207 379.721 377.162 391.658 378.879 394.777C380.596 397.896 395.231 422.809 395.395 423.101L395.488 423.253V423.44C395.488 423.498 394.998 429.046 394.519 432.679C396.396 434.015 398.567 434.88 400.849 435.201H401.059L403.582 437.678Z" fill="#263238"/>
<path d="M406.07 410.452C405.942 410.453 405.817 410.411 405.715 410.332C405.613 410.254 405.541 410.144 405.51 410.019C404.166 404.857 402.333 397.907 401.211 394.064C399.179 387.056 392.732 369.198 392.662 369.011C392.656 368.964 392.656 368.917 392.662 368.871L387.371 315.295L377.571 308.952C377.441 308.869 377.35 308.737 377.317 308.586C377.284 308.434 377.312 308.277 377.396 308.146C377.484 308.018 377.618 307.928 377.77 307.896C377.922 307.863 378.081 307.89 378.213 307.971L388.247 314.465C388.319 314.514 388.379 314.578 388.424 314.652C388.468 314.727 388.496 314.811 388.503 314.897L393.806 368.684C394.25 369.91 400.37 386.94 402.356 393.737C403.524 397.592 405.311 404.553 406.654 409.727C406.694 409.876 406.673 410.034 406.596 410.168C406.52 410.301 406.394 410.399 406.245 410.44L406.07 410.452Z" fill="white"/>
<path d="M408.266 418.978C408.137 418.978 408.011 418.936 407.908 418.858C407.804 418.78 407.729 418.67 407.694 418.546C407.694 418.546 407.262 416.817 406.596 414.224C406.557 414.069 406.582 413.905 406.664 413.768C406.746 413.632 406.879 413.533 407.034 413.494C407.189 413.455 407.353 413.48 407.49 413.562C407.626 413.644 407.725 413.777 407.764 413.932C408.43 416.525 408.862 418.254 408.862 418.254C408.881 418.328 408.886 418.406 408.875 418.482C408.864 418.558 408.839 418.631 408.8 418.697C408.76 418.763 408.709 418.821 408.647 418.867C408.586 418.914 408.516 418.947 408.441 418.966L408.266 418.978Z" fill="white"/>
<path d="M390.851 316.72H390.664C390.591 316.695 390.524 316.655 390.466 316.604C390.408 316.553 390.361 316.491 390.327 316.421C390.294 316.352 390.274 316.276 390.27 316.199C390.265 316.122 390.276 316.045 390.302 315.972C391.47 312.62 393.911 307.889 397.719 301.956C397.755 301.882 397.806 301.816 397.868 301.762C397.931 301.709 398.005 301.67 398.084 301.647C398.163 301.624 398.246 301.618 398.328 301.63C398.409 301.642 398.488 301.67 398.557 301.714C398.627 301.758 398.687 301.816 398.732 301.885C398.778 301.954 398.808 302.031 398.822 302.113C398.835 302.194 398.832 302.277 398.811 302.357C398.79 302.437 398.752 302.511 398.7 302.575C395.771 306.895 393.327 311.525 391.412 316.381C391.363 316.487 391.283 316.576 391.183 316.636C391.084 316.697 390.968 316.726 390.851 316.72Z" fill="white"/>
<path d="M400.674 299.036C400.557 299.037 400.442 299 400.347 298.931C400.219 298.845 400.13 298.713 400.099 298.562C400.069 298.411 400.099 298.254 400.183 298.125C401.854 295.649 403.057 293.979 403.068 293.955C403.16 293.83 403.297 293.746 403.451 293.722C403.604 293.698 403.761 293.735 403.886 293.827C404.011 293.918 404.095 294.056 404.12 294.209C404.144 294.362 404.106 294.519 404.015 294.644C404.015 294.644 402.846 296.315 401.153 298.779C401.1 298.858 401.029 298.922 400.945 298.967C400.862 299.011 400.769 299.035 400.674 299.036V299.036Z" fill="white"/>
<path d="M426.861 446.73C426.265 445.562 425.973 441.707 423.614 438.472C423.263 438.021 422.818 437.654 422.309 437.395C421.8 437.137 421.241 436.994 420.67 436.977C422.679 442.058 420.81 446.122 421.838 449.977C423.006 454.403 423.906 458.234 422.142 461.481C420.378 464.728 415.94 466.504 415.94 466.504H415.858C416.407 469.354 417.026 472.94 417.411 474.458C418.007 476.794 421.254 473.57 422.434 472.122C423.614 470.674 428.04 464.448 427.106 460.313C426.171 456.179 423.602 448.809 423.602 448.809L428.718 455.56C428.779 455.638 428.865 455.693 428.962 455.715C429.059 455.737 429.16 455.725 429.249 455.682C429.338 455.638 429.41 455.564 429.451 455.474C429.493 455.384 429.502 455.282 429.477 455.186C428.613 452.313 427.269 447.547 426.861 446.73Z" fill="#263238"/>
<path d="M418.287 475.895C418.183 475.906 418.077 475.906 417.972 475.895C417.673 475.831 417.401 475.677 417.192 475.453C416.983 475.23 416.848 474.948 416.804 474.645C416.547 473.617 416.185 471.678 415.8 469.634C415.613 468.63 415.426 467.602 415.239 466.667L415.122 466.083L415.706 465.978C415.706 465.978 419.934 464.261 421.546 461.236C423.158 458.211 422.422 454.765 421.196 450.164C420.827 448.441 420.732 446.671 420.915 444.919C421.217 442.324 420.918 439.694 420.039 437.234L419.689 436.346L420.635 436.428C421.289 436.45 421.929 436.616 422.511 436.915C423.093 437.214 423.601 437.638 423.999 438.156C425.373 440.201 426.333 442.494 426.826 444.908C426.941 445.453 427.102 445.988 427.304 446.508V446.508C427.62 447.162 428.472 450.012 429.967 455.046C430.03 455.273 430.012 455.516 429.916 455.731C429.82 455.947 429.652 456.122 429.44 456.227C429.229 456.332 428.987 456.36 428.758 456.307C428.528 456.253 428.324 456.121 428.18 455.933L425.272 452.091C426.101 454.579 427.141 457.931 427.608 460.267C428.648 465.137 423.006 472.262 422.773 472.554C422.539 472.846 420.098 475.895 418.287 475.895ZM416.524 466.936C416.676 467.742 416.839 468.595 416.991 469.436C417.376 471.456 417.727 473.383 417.984 474.376C418.042 474.61 418.124 474.738 418.217 474.762C418.836 474.89 420.623 473.477 421.978 471.795C423.894 469.389 427.328 463.946 426.58 460.477C425.716 456.424 423.076 449.112 423.076 449.042L422.119 446.368C422.047 447.544 422.149 448.725 422.422 449.872C423.672 454.544 424.49 458.456 422.656 461.808C421.079 464.6 417.657 466.375 416.524 466.936ZM422.119 445.912L428.683 454.567C427.456 450.304 426.604 447.559 426.347 447.033C426.1 446.442 425.912 445.828 425.786 445.2C425.325 442.934 424.429 440.78 423.146 438.857C422.776 438.318 422.232 437.922 421.605 437.736C422.25 440.08 422.456 442.523 422.212 444.943C422.142 445.246 422.13 445.562 422.119 445.912Z" fill="#263238"/>
<path d="M403.909 463.012C403.477 464.413 402.917 466.142 402.368 467.684C401.2 470.931 397.345 471.187 394.694 468.279C393.026 466.174 392.091 463.582 392.031 460.897C391.143 465.032 389.964 469.155 392.031 472.706C394.098 476.257 399.121 476.537 400.592 474.47C403.118 471.213 404.305 467.114 403.909 463.012V463.012Z" fill="#263238"/>
<path d="M397.474 476.35H397.17C396.029 476.295 394.918 475.962 393.935 475.38C392.951 474.798 392.125 473.984 391.529 473.01C389.531 469.576 390.361 465.651 391.225 461.855L392.603 455.455V460.909C392.663 463.455 393.544 465.913 395.114 467.917C395.611 468.563 396.268 469.068 397.02 469.381C397.772 469.694 398.593 469.806 399.401 469.704C399.959 469.585 400.476 469.32 400.898 468.936C401.321 468.553 401.634 468.064 401.807 467.52C402.274 466.235 402.788 464.67 403.349 462.848L404.178 460.162L404.482 462.965C404.897 467.209 403.673 471.451 401.06 474.82C400.623 475.337 400.071 475.745 399.448 476.011C398.826 476.277 398.149 476.393 397.474 476.35V476.35ZM391.926 464.168C391.342 467.135 391.096 469.938 392.533 472.402C393.025 473.212 393.708 473.888 394.523 474.37C395.338 474.853 396.259 475.128 397.205 475.17C397.736 475.242 398.276 475.185 398.78 475.004C399.284 474.823 399.738 474.524 400.102 474.131C401.707 472.008 402.783 469.534 403.244 466.913L402.905 467.882C402.663 468.616 402.233 469.273 401.656 469.787C401.08 470.302 400.379 470.656 399.623 470.814C398.616 470.955 397.59 470.831 396.645 470.455C395.701 470.078 394.871 469.461 394.238 468.665C393.131 467.364 392.34 465.825 391.926 464.168V464.168Z" fill="#263238"/>
<path d="M359.595 201.648C359.595 201.648 355.11 203.213 355.297 203.797C355.484 204.381 348.137 241.173 348.137 241.173C348.137 241.173 342.916 254.722 343.465 259.558C344.014 264.393 348.137 270.198 352.751 270.198C354.247 270.23 355.724 269.85 357.019 269.1C358.315 268.351 359.38 267.26 360.098 265.947C361.067 264.592 364.361 258.203 364.361 258.203C364.361 258.203 363.193 270.397 362.807 271.553C362.422 272.709 360.471 275.805 361.453 276.774C362.942 278.038 364.648 279.023 366.487 279.682C376.218 281.689 386.153 282.532 396.084 282.193C409.247 281.423 417.178 277.942 417.178 277.942C417.613 276.492 418.132 275.069 418.731 273.679C419.117 273.095 419.899 272.137 419.899 272.137C419.899 272.137 432.28 270.782 433.051 270C433.822 269.217 435.959 265.947 435.761 260.714C435.562 255.481 437.501 210.221 436.543 209.252C434.801 208.015 432.961 206.921 431.042 205.981L408.628 193.449L375.2 197.841L359.595 201.648Z" fill="white"/>
<path d="M391.47 282.871C383.034 282.791 374.624 281.899 366.358 280.208C364.427 279.522 362.638 278.489 361.079 277.159C360.063 276.143 361.079 274.088 361.803 272.487C361.987 272.107 362.151 271.717 362.294 271.319C362.504 270.665 363.064 265.585 363.462 261.088C362.434 263.027 361.126 265.433 360.553 266.239L360.378 266.484C359.6 267.813 358.48 268.908 357.134 269.656C355.789 270.404 354.267 270.777 352.728 270.735C347.845 270.735 343.489 264.895 342.858 259.581C342.262 254.652 347.32 241.477 347.53 240.893C350.322 226.877 354.538 205.491 354.643 203.856C354.515 203.4 354.643 202.688 359.315 201.064H359.374L375.001 197.221L408.488 192.83C408.613 192.81 408.741 192.835 408.85 192.9L431.264 205.421C433.235 206.38 435.119 207.509 436.894 208.796C437.489 209.392 437.548 214.134 436.695 242.61C436.438 251.253 436.216 258.728 436.286 260.644C436.497 266.063 434.277 269.497 433.413 270.373C432.549 271.249 424.875 272.114 420.145 272.639C419.911 272.943 419.432 273.55 419.164 273.959C418.592 275.299 418.1 276.672 417.692 278.07C417.664 278.148 417.621 278.219 417.564 278.279C417.508 278.339 417.44 278.388 417.365 278.421C417.038 278.573 409.189 281.925 396.072 282.731C394.612 282.836 393.047 282.871 391.47 282.871ZM364.373 257.584H364.536C364.666 257.623 364.779 257.706 364.856 257.819C364.932 257.932 364.968 258.067 364.957 258.203C364.828 259.453 363.789 270.49 363.38 271.681C363.263 271.997 363.064 272.429 362.843 272.92C362.422 273.796 361.441 275.875 361.885 276.307C363.302 277.5 364.92 278.433 366.662 279.063C376.332 281.055 386.205 281.89 396.072 281.551C403.126 281.246 410.09 279.86 416.722 277.44C417.134 276.023 417.645 274.638 418.252 273.293C418.65 272.709 419.42 271.752 419.42 271.705C419.469 271.644 419.529 271.594 419.597 271.558C419.665 271.522 419.74 271.5 419.818 271.495C425.588 270.864 431.965 269.941 432.666 269.509C433.355 268.82 435.352 265.655 435.165 260.679C435.095 258.717 435.317 251.23 435.574 242.563C435.948 230.101 436.508 211.354 436.041 209.532C434.36 208.371 432.596 207.337 430.762 206.437L408.5 193.998L375.27 198.354L359.724 202.185C358.364 202.617 357.056 203.197 355.823 203.914C355.706 205.082 354.76 210.805 348.675 241.232C348.593 241.465 343.489 254.792 344.003 259.429C344.517 264.066 348.5 269.556 352.716 269.556C354.066 269.595 355.402 269.267 356.581 268.607C357.76 267.946 358.737 266.979 359.409 265.806L359.596 265.538C360.518 264.241 363.777 257.934 363.8 257.876C363.857 257.776 363.941 257.696 364.043 257.644C364.144 257.592 364.259 257.571 364.373 257.584ZM355.835 203.622C355.849 203.711 355.849 203.802 355.835 203.891C355.872 203.806 355.88 203.712 355.858 203.622H355.835Z" fill="#263238"/>
<path d="M364.373 223.56C363.391 218.97 359.409 211.635 359.374 211.553L360.401 211.004C360.565 211.308 364.501 218.561 365.517 223.315L364.373 223.56Z" fill="#263238"/>
<path d="M358.533 248.1C358.44 248.099 358.35 248.077 358.267 248.037C358.184 247.997 358.111 247.938 358.054 247.866C356.208 245.285 351.198 244.619 351.139 244.607C351.063 244.597 350.989 244.572 350.922 244.534C350.854 244.495 350.796 244.444 350.749 244.383C350.701 244.321 350.667 244.251 350.647 244.177C350.626 244.102 350.621 244.024 350.631 243.947C350.641 243.871 350.666 243.797 350.705 243.73C350.743 243.663 350.795 243.604 350.856 243.557C350.917 243.509 350.987 243.475 351.062 243.455C351.136 243.435 351.214 243.429 351.291 243.439C351.513 243.439 356.862 244.175 359.012 247.165C359.056 247.228 359.088 247.299 359.105 247.374C359.123 247.449 359.125 247.527 359.112 247.603C359.099 247.679 359.071 247.752 359.03 247.817C358.988 247.882 358.935 247.939 358.871 247.983C358.773 248.055 358.655 248.096 358.533 248.1V248.1Z" fill="#263238"/>
<path d="M360.051 246.861C359.938 246.863 359.828 246.832 359.732 246.772C359.637 246.711 359.561 246.625 359.514 246.523C358.754 245.523 357.765 244.722 356.629 244.187C356.491 244.116 356.387 243.992 356.34 243.845C356.293 243.697 356.306 243.536 356.378 243.398C356.449 243.26 356.572 243.157 356.72 243.11C356.868 243.062 357.028 243.076 357.166 243.147C357.458 243.299 359.958 244.631 360.588 246.021C360.648 246.162 360.652 246.321 360.597 246.465C360.543 246.608 360.435 246.725 360.296 246.791C360.22 246.832 360.137 246.856 360.051 246.861V246.861Z" fill="#263238"/>
<path d="M364.373 258.752C364.307 258.763 364.24 258.763 364.174 258.752C364.101 258.727 364.034 258.688 363.976 258.636C363.919 258.585 363.872 258.522 363.84 258.453C363.807 258.383 363.789 258.307 363.786 258.23C363.783 258.153 363.796 258.076 363.824 258.004L364.898 254.944L361.756 248.485L359.537 249.268C359.451 249.302 359.359 249.314 359.267 249.304C359.175 249.294 359.088 249.261 359.011 249.209C359.011 249.209 354.526 246.254 351.513 246.78C348.499 247.305 346.526 251.265 346.514 251.3C346.446 251.439 346.325 251.546 346.178 251.596C346.031 251.647 345.871 251.637 345.731 251.568C345.592 251.5 345.485 251.38 345.435 251.233C345.385 251.086 345.395 250.925 345.463 250.786C345.556 250.599 347.799 246.254 351.303 245.635C354.375 245.086 358.369 247.422 359.409 248.076L361.85 247.2C361.987 247.154 362.136 247.16 362.269 247.216C362.402 247.272 362.511 247.374 362.574 247.504L366.078 254.652C366.11 254.724 366.126 254.801 366.126 254.88C366.126 254.958 366.11 255.036 366.078 255.108L364.91 258.401C364.863 258.505 364.788 258.593 364.692 258.655C364.597 258.717 364.486 258.751 364.373 258.752V258.752Z" fill="#263238"/>
<path d="M423.871 222.964C423.797 222.981 423.722 222.981 423.649 222.964C423.506 222.902 423.393 222.787 423.334 222.643C423.275 222.499 423.275 222.338 423.333 222.193C424.256 220.044 427.164 213.457 427.164 213.457L428.239 213.936C428.239 213.936 425.331 220.511 424.408 222.661C424.357 222.757 424.279 222.837 424.184 222.891C424.088 222.945 423.98 222.97 423.871 222.964V222.964Z" fill="#263238"/>
<path d="M419.923 272.686C419.774 272.685 419.632 272.626 419.525 272.522L408.266 261.894C408.211 261.839 408.168 261.775 408.138 261.704C408.109 261.632 408.093 261.556 408.093 261.479C408.093 261.402 408.109 261.326 408.138 261.254C408.168 261.183 408.211 261.119 408.266 261.064C408.319 261.01 408.383 260.967 408.453 260.937C408.523 260.908 408.599 260.893 408.675 260.893C408.751 260.893 408.826 260.908 408.897 260.937C408.967 260.967 409.03 261.01 409.084 261.064L420.343 271.693C420.431 271.773 420.492 271.877 420.519 271.992C420.546 272.107 420.537 272.228 420.494 272.338C420.451 272.448 420.376 272.542 420.278 272.609C420.18 272.675 420.064 272.71 419.946 272.709L419.923 272.686Z" fill="#263238"/>
<path d="M415.508 271.109C415.419 271.13 415.327 271.13 415.239 271.109L403.968 265.269C403.83 265.198 403.726 265.075 403.679 264.927C403.632 264.779 403.645 264.619 403.717 264.481C403.788 264.343 403.911 264.239 404.059 264.192C404.207 264.145 404.367 264.158 404.505 264.23L415.776 270.07C415.89 270.131 415.98 270.228 416.033 270.347C416.085 270.465 416.097 270.597 416.066 270.722C416.036 270.848 415.964 270.96 415.863 271.04C415.762 271.121 415.637 271.166 415.508 271.168V271.109Z" fill="#263238"/>
<path d="M372 280.78C371.856 280.781 371.717 280.727 371.611 280.629C371.505 280.532 371.439 280.398 371.427 280.255C371.411 280.101 371.456 279.948 371.552 279.828C371.648 279.707 371.788 279.63 371.941 279.612L401.749 276.4C401.825 276.39 401.902 276.396 401.976 276.417C402.05 276.438 402.119 276.473 402.179 276.521C402.239 276.569 402.288 276.628 402.325 276.696C402.361 276.763 402.384 276.838 402.391 276.914C402.407 277.067 402.363 277.221 402.266 277.341C402.17 277.461 402.03 277.539 401.877 277.556L372.07 280.78H372Z" fill="#263238"/>
<path d="M393.152 245.728H393.094C393.017 245.721 392.942 245.699 392.874 245.662C392.806 245.626 392.746 245.577 392.697 245.517C392.648 245.457 392.611 245.388 392.589 245.314C392.567 245.24 392.56 245.163 392.568 245.086C392.767 243.299 396.166 209.976 396.201 209.637C396.208 209.561 396.231 209.486 396.267 209.418C396.304 209.35 396.353 209.29 396.413 209.241C396.473 209.193 396.541 209.156 396.615 209.134C396.689 209.112 396.766 209.104 396.843 209.112C396.92 209.119 396.994 209.142 397.062 209.178C397.13 209.215 397.19 209.264 397.239 209.324C397.288 209.384 397.324 209.452 397.347 209.526C397.369 209.6 397.376 209.677 397.369 209.754C397.369 210.093 393.946 243.416 393.748 245.215C393.728 245.358 393.657 245.489 393.547 245.584C393.437 245.678 393.297 245.73 393.152 245.728V245.728Z" fill="#263238"/>
<path d="M390.337 269.906H390.279C390.202 269.899 390.127 269.876 390.059 269.84C389.991 269.804 389.931 269.754 389.882 269.694C389.833 269.635 389.797 269.566 389.774 269.492C389.752 269.418 389.745 269.34 389.753 269.264L390.758 258.191C390.775 258.039 390.851 257.9 390.968 257.802C391.085 257.704 391.236 257.655 391.388 257.665C391.465 257.671 391.54 257.692 391.609 257.727C391.677 257.762 391.738 257.81 391.788 257.869C391.838 257.928 391.876 257.995 391.9 258.069C391.923 258.142 391.932 258.219 391.926 258.296L390.91 269.369C390.898 269.513 390.833 269.649 390.727 269.748C390.621 269.847 390.482 269.904 390.337 269.906V269.906Z" fill="#263238"/>
<path d="M410.742 187.831L407.776 195.341L397.999 206.507L389.274 194.991L389.987 180.437L400.966 190.447L410.742 187.831Z" fill="white"/>
<path d="M397.964 207.441L388.679 195.177V194.967L389.461 179.176L401.141 189.805L411.723 186.966L408.219 195.726L397.964 207.441ZM389.87 194.792L398.046 205.573L407.285 195.061L409.785 188.73L400.826 191.136L390.524 181.792L389.87 194.792Z" fill="#263238"/>
<path d="M401.854 141.742C401.854 141.742 384.649 147.967 382.278 152.861C380.273 157.489 378.735 162.305 377.688 167.239C377.688 167.835 369.512 171.105 367.9 173.616C366.288 176.127 368.04 183.556 367.9 185.635C367.76 187.714 360.191 190.085 359.444 194.675C358.938 196.99 358.99 199.392 359.596 201.683L372.794 199.604C372.794 199.604 381.39 203.015 385.992 201.239C390.594 199.464 391.026 190.564 390.734 187.597C390.442 184.63 389.987 180.472 389.987 180.472L396.072 163.256L409.855 159.098L418.603 167.274L410.567 188.391C410.567 188.391 408.032 193.519 408.476 194.85C408.92 196.182 412.973 197.525 412.973 197.525L431.065 205.982C431.528 204.599 431.68 203.131 431.509 201.683C431.217 199.347 427.351 194.266 427.351 192.783C427.351 191.3 432.397 185.518 430.026 180.332C427.655 175.146 425.132 172.32 423.8 169.657C422.469 166.994 424.968 161.936 422.317 155.419C419.666 148.901 410.894 143.26 408.523 141.928C406.152 140.597 401.854 141.742 401.854 141.742Z" fill="#263238"/>
<path d="M431.381 206.741L412.693 198.027C412.027 197.805 408.394 196.532 407.892 195.002C407.39 193.472 409.387 189.349 410.018 188.099L417.89 167.402L409.714 159.74L396.528 163.712L390.594 180.507C390.676 181.243 391.061 184.841 391.318 187.515C391.575 190.003 391.435 199.733 386.214 201.753C381.741 203.482 373.962 200.644 372.735 200.176L359.222 202.302L359.058 201.858C358.421 199.485 358.361 196.994 358.883 194.593C359.362 191.638 362.282 189.618 364.641 187.994C365.879 187.142 367.281 186.172 367.328 185.658C367.313 184.626 367.227 183.595 367.071 182.575C366.674 179.328 366.183 175.286 367.421 173.371C368.519 171.666 372.093 169.773 374.779 168.395C375.58 168 376.36 167.563 377.115 167.087C378.191 162.14 379.756 157.312 381.787 152.674C384.24 147.628 400.978 141.52 401.643 141.263C401.819 141.263 406.199 140.024 408.757 141.461C408.862 141.461 419.712 147.687 422.773 155.244C423.984 158.452 424.385 161.911 423.941 165.312C423.699 166.688 423.791 168.102 424.209 169.435C424.839 170.527 425.53 171.584 426.277 172.6C427.897 174.958 429.319 177.447 430.528 180.04C432.362 184.035 430.108 188.298 428.764 190.844C428.404 191.438 428.118 192.073 427.912 192.736C428.325 193.978 428.906 195.157 429.64 196.24C430.733 197.863 431.55 199.654 432.058 201.543C432.249 203.086 432.085 204.652 431.579 206.122L431.381 206.741ZM410.018 158.432L419.292 167.087L411.116 188.567C409.948 190.973 408.78 193.951 409.025 194.628C409.27 195.306 411.361 196.334 413.16 196.964L430.68 205.14C430.961 204.027 431.037 202.871 430.902 201.73C430.37 200.003 429.583 198.365 428.566 196.871C427.398 194.85 426.685 193.577 426.685 192.76C426.848 191.891 427.186 191.064 427.678 190.33C428.998 187.819 430.995 184.023 429.407 180.542C428.223 178.007 426.832 175.573 425.249 173.266C424.501 172.18 423.814 171.053 423.193 169.89C422.681 168.388 422.553 166.782 422.819 165.218C423.215 161.99 422.814 158.714 421.651 155.676C418.708 148.492 408.219 142.524 408.114 142.466C406.058 141.298 402.216 142.29 401.9 142.372C401.188 142.629 384.883 148.644 382.675 153.188C380.7 157.741 379.182 162.479 378.143 167.332C378.143 167.87 377.676 168.138 375.177 169.435C372.677 170.731 369.196 172.553 368.262 174.013C367.328 175.473 367.76 179.701 368.087 182.435C368.259 183.528 368.348 184.633 368.355 185.74C368.274 186.908 366.895 187.819 365.155 189.022C362.994 190.517 360.296 192.374 359.887 194.862C359.499 196.915 359.499 199.023 359.887 201.076L372.735 199.055L372.887 199.114C372.969 199.114 381.332 202.419 385.665 200.749C389.998 199.079 390.337 190.622 390.034 187.714C389.73 184.806 389.298 180.601 389.298 180.601V180.461V180.344L395.476 162.824L410.018 158.432Z" fill="#263238"/>
<path d="M408.079 153.749C408.079 153.749 394.741 159.682 393.701 162.497C392.662 165.312 389.847 178.37 389.987 180.437C390.127 182.505 399.039 193.192 400.814 193.496C402.59 193.799 411.735 188.497 413.37 187.305C415.005 186.114 420.378 168.278 420.238 165.464C420.098 162.649 409.563 153.912 408.079 153.749Z" fill="white"/>
<path d="M400.931 194.079H400.721C398.665 193.741 389.578 182.82 389.403 180.496C389.228 178.171 392.148 165.02 393.152 162.31C394.238 159.343 406.456 153.842 407.846 153.235L407.986 153.164H408.138C409.796 153.328 420.647 162.135 420.822 165.428C420.974 168.337 415.566 186.452 413.709 187.772C412.529 188.648 403.442 194.079 400.931 194.079ZM408.138 154.367C403.045 156.703 394.927 160.838 394.25 162.707C393.187 165.569 390.431 178.428 390.571 180.402C390.699 182.189 399.296 192.596 400.908 192.911C402.263 193.145 410.929 188.356 413.02 186.838C414.351 185.833 419.806 168.278 419.654 165.499C419.526 163.057 409.749 154.987 408.138 154.367Z" fill="#263238"/>
<path d="M420.658 168.091C415.321 166.491 409.691 157.579 408.044 154.846C406.444 157.066 401.398 163.326 393.713 165.358L393.409 164.19C402.181 161.854 407.53 153.468 407.589 153.386L408.114 152.545L408.593 153.41C408.651 153.527 415.239 165.195 420.997 166.923L420.658 168.091Z" fill="#263238"/>
<path d="M390.337 166.293L390.115 165.125C394.46 164.249 407.577 153.386 407.705 153.281L408.453 154.181C407.904 154.659 394.974 165.358 390.337 166.293Z" fill="#263238"/>
<path d="M405.171 182.049C404.806 182.063 404.44 182.027 404.085 181.944C403.93 181.901 403.798 181.798 403.72 181.657C403.641 181.517 403.621 181.351 403.664 181.196C403.708 181.042 403.811 180.91 403.951 180.831C404.091 180.753 404.257 180.733 404.412 180.776C405.049 180.88 405.701 180.85 406.326 180.689C406.951 180.529 407.536 180.24 408.044 179.842C408.167 179.758 408.317 179.725 408.464 179.748C408.611 179.772 408.743 179.85 408.834 179.968C408.925 180.086 408.968 180.234 408.953 180.382C408.939 180.53 408.869 180.666 408.757 180.764C407.718 181.545 406.468 181.992 405.171 182.049V182.049Z" fill="#263238"/>
<path d="M404.353 185.331C403.284 185.318 402.23 185.079 401.26 184.63C400.29 184.181 399.426 183.533 398.723 182.727C398.64 182.604 398.607 182.453 398.63 182.307C398.654 182.16 398.732 182.027 398.85 181.937C398.968 181.846 399.115 181.803 399.263 181.818C399.411 181.832 399.548 181.902 399.646 182.014C400.585 183.096 401.863 183.828 403.271 184.091C404.68 184.354 406.135 184.132 407.402 183.462C407.472 183.432 407.548 183.415 407.625 183.414C407.702 183.413 407.778 183.426 407.85 183.455C407.922 183.483 407.987 183.525 408.042 183.578C408.098 183.632 408.142 183.696 408.173 183.766C408.203 183.837 408.22 183.913 408.221 183.989C408.222 184.066 408.209 184.143 408.18 184.214C408.152 184.286 408.11 184.351 408.057 184.407C408.003 184.462 407.939 184.506 407.869 184.537C406.766 185.047 405.568 185.318 404.353 185.331V185.331Z" fill="#263238"/>
<path d="M404.225 168.722C404.108 168.722 403.993 168.685 403.898 168.617C403.898 168.617 400.394 166.281 397.205 167.776C397.064 167.841 396.903 167.848 396.757 167.794C396.612 167.74 396.493 167.631 396.428 167.49C396.363 167.349 396.357 167.188 396.411 167.042C396.464 166.897 396.574 166.778 396.715 166.713C400.534 164.973 404.388 167.543 404.552 167.648C404.616 167.691 404.671 167.747 404.713 167.811C404.756 167.876 404.785 167.949 404.799 168.025C404.813 168.101 404.812 168.179 404.795 168.255C404.779 168.33 404.748 168.402 404.704 168.465C404.651 168.545 404.58 168.609 404.497 168.654C404.413 168.699 404.32 168.723 404.225 168.722V168.722Z" fill="#263238"/>
<path d="M417.131 169.902C416.976 169.901 416.826 169.843 416.711 169.738C415.076 168.103 411.303 169.551 411.256 169.563C411.115 169.606 410.963 169.594 410.831 169.529C410.698 169.465 410.595 169.353 410.542 169.215C410.488 169.078 410.489 168.925 410.544 168.788C410.598 168.651 410.703 168.54 410.836 168.477C411.011 168.407 415.368 166.737 417.54 168.909C417.648 169.02 417.708 169.169 417.708 169.324C417.708 169.479 417.648 169.627 417.54 169.738C417.428 169.84 417.283 169.898 417.131 169.902V169.902Z" fill="#263238"/>
<path d="M401.55 172.6C401.457 173.499 400.814 174.165 400.125 174.095C399.751 173.998 399.43 173.761 399.227 173.432C399.025 173.103 398.957 172.709 399.039 172.331C399.144 171.444 399.775 170.778 400.476 170.848C400.846 170.945 401.165 171.181 401.365 171.508C401.566 171.834 401.632 172.226 401.55 172.6V172.6Z" fill="#263238"/>
<path d="M413.265 174.352C413.297 174.55 413.282 174.753 413.223 174.945C413.163 175.137 413.06 175.313 412.922 175.458C412.783 175.604 412.613 175.716 412.424 175.785C412.236 175.855 412.034 175.879 411.834 175.858C411.634 175.837 411.442 175.77 411.272 175.662C411.103 175.554 410.96 175.409 410.856 175.237C410.751 175.066 410.688 174.872 410.67 174.672C410.652 174.472 410.681 174.271 410.754 174.083C410.847 173.184 411.49 172.518 412.179 172.588C412.553 172.685 412.874 172.923 413.077 173.252C413.279 173.58 413.347 173.975 413.265 174.352V174.352Z" fill="#263238"/>
<path d="M384.38 201.45L389.625 210.7L396.259 204.066L389.274 194.991L384.38 201.45Z" fill="white"/>
<path d="M389.625 211.284H389.543C389.454 211.27 389.369 211.236 389.295 211.186C389.22 211.135 389.157 211.069 389.111 210.992L383.878 201.8C383.815 201.705 383.782 201.593 383.782 201.479C383.782 201.365 383.815 201.253 383.878 201.158L388.772 194.699C388.829 194.629 388.9 194.571 388.98 194.531C389.061 194.491 389.149 194.468 389.239 194.465C389.329 194.464 389.417 194.485 389.496 194.525C389.575 194.566 389.644 194.626 389.695 194.699L396.703 203.774C396.799 203.879 396.852 204.017 396.852 204.159C396.852 204.302 396.799 204.439 396.703 204.545L390.069 211.144C390.008 211.197 389.938 211.236 389.861 211.26C389.785 211.284 389.704 211.292 389.625 211.284ZM385.081 201.496L389.753 209.742L395.477 204.019L389.274 195.96L385.081 201.496Z" fill="#263238"/>
<path d="M400.44 204.416L405.159 211.226L412.973 197.49L408.651 193.414L400.44 204.416Z" fill="white"/>
<path d="M405.159 211.81C405.066 211.809 404.974 211.787 404.89 211.744C404.807 211.702 404.735 211.64 404.68 211.564L400.008 204.755C399.94 204.653 399.904 204.533 399.904 204.41C399.904 204.288 399.94 204.168 400.008 204.066L408.184 193.075C408.231 193.006 408.294 192.949 408.367 192.909C408.44 192.868 408.521 192.845 408.605 192.841C408.685 192.831 408.768 192.839 408.845 192.865C408.922 192.891 408.991 192.935 409.049 192.993L413.429 197.128C413.525 197.216 413.589 197.335 413.61 197.464C413.631 197.593 413.609 197.726 413.545 197.84L405.72 211.576C405.672 211.662 405.602 211.734 405.519 211.785C405.435 211.836 405.339 211.865 405.241 211.868L405.159 211.81ZM401.165 204.428L405.112 210.128L412.237 197.607L408.733 194.29L401.165 204.428Z" fill="#263238"/>
<path d="M378.354 250.564H368.087L366.802 226.807H379.638L378.354 250.564Z" fill="white"/>
<path d="M378.903 251.148H367.538L366.183 226.223H380.199L378.903 251.148ZM368.636 249.98H377.793L379.019 227.391H367.421L368.636 249.98Z" fill="#263238"/>
<path d="M380.76 224.786H365.447V228.384H380.76V224.786Z" fill="#263238"/>
<path d="M381.344 228.968H364.863V224.202H381.344V228.968ZM366.031 227.8H380.176V225.37H366.031V227.8Z" fill="#263238"/>
<path d="M378.856 223.093H367.596V224.786H378.856V223.093Z" fill="#263238"/>
<path d="M379.428 225.37H367.012V222.509H379.428V225.37ZM368.18 224.202H378.26V223.677H368.18V224.202Z" fill="#263238"/>
<path d="M366.311 252.69C366.311 252.748 366.311 252.807 366.311 252.83C366.005 253.713 365.447 254.488 364.706 255.058C363.965 255.629 363.074 255.971 362.142 256.042C361.635 256.094 361.123 256.04 360.638 255.883C360.154 255.726 359.707 255.47 359.327 255.131C358.628 254.371 358.215 253.393 358.159 252.363C357.967 251.411 358.018 250.426 358.308 249.499C358.598 248.572 359.117 247.733 359.817 247.06C360.308 246.476 362.153 244.969 362.293 244.222L363.333 236.046C363.333 236.046 373.518 233.71 374.394 233.838C374.575 233.864 374.748 233.933 374.898 234.038C375.048 234.143 375.171 234.282 375.257 234.443C375.343 234.605 375.391 234.784 375.395 234.967C375.399 235.15 375.36 235.332 375.282 235.497C375.06 236.163 373.518 236.49 373.179 236.595C372.841 236.7 367.865 237.926 367.865 237.926L366.101 240.029C366.959 239.601 367.845 239.23 368.753 238.919C369.091 238.919 374.593 238.148 375.282 238.043C375.482 238.034 375.681 238.078 375.86 238.168C376.039 238.259 376.191 238.394 376.303 238.561C376.414 238.727 376.481 238.92 376.496 239.119C376.512 239.319 376.476 239.52 376.391 239.702C375.947 240.589 375.62 240.8 375.282 240.8C374.943 240.8 369.442 241.804 369.442 241.804L366.346 244.455C366.346 244.455 370.551 243.124 371.018 243.124C371.486 243.124 375.328 243.019 375.445 243.684C375.532 244.022 375.489 244.38 375.325 244.687C375.16 244.994 374.886 245.228 374.557 245.343C373.787 245.565 370.797 246.009 370.797 246.009L367.468 247.772H370.68C370.68 247.772 373.787 248.777 374.441 248.94C375.095 249.104 375.609 249.384 374.663 250.377C373.717 251.37 366.895 250.576 366.895 250.576C366.895 250.576 366.428 252.153 366.311 252.69Z" fill="white"/>
<path d="M361.745 256.696C360.686 256.718 359.66 256.329 358.883 255.61C358.069 254.763 357.584 253.652 357.516 252.48C357.316 251.448 357.375 250.382 357.689 249.379C358.003 248.375 358.562 247.466 359.315 246.733C359.467 246.558 359.747 246.277 360.074 245.974C360.682 245.465 361.213 244.871 361.651 244.21L362.749 235.602L363.146 235.508C365.552 234.96 373.483 233.172 374.417 233.289C374.655 233.316 374.883 233.396 375.086 233.524C375.288 233.651 375.459 233.822 375.585 234.025C375.735 234.278 375.829 234.56 375.859 234.853C375.889 235.145 375.856 235.441 375.761 235.719C375.469 236.571 374.172 236.887 373.425 237.132L373.238 237.19C372.922 237.296 369.208 238.207 368.063 238.487C368.251 238.401 368.453 238.349 368.659 238.335C369.056 238.335 374.394 237.576 375.095 237.459C375.401 237.437 375.708 237.495 375.984 237.627C376.261 237.76 376.499 237.962 376.673 238.215C376.848 238.467 376.954 238.761 376.98 239.067C377.006 239.373 376.952 239.68 376.823 239.959C376.461 240.671 375.994 241.395 375.188 241.395C374.885 241.395 371.684 241.979 369.582 242.353L368.729 243.077C369.432 242.849 370.15 242.674 370.878 242.552H371.054C374.966 242.552 375.726 242.879 375.877 243.603C375.999 244.084 375.933 244.593 375.692 245.028C375.451 245.462 375.054 245.787 374.581 245.939C373.845 246.149 371.381 246.523 370.843 246.604L369.675 247.224H370.738C371.906 247.621 373.962 248.228 374.417 248.31C374.665 248.316 374.905 248.391 375.112 248.528C375.319 248.664 375.483 248.856 375.585 249.081C375.807 249.7 375.352 250.307 375.001 250.716C374.02 251.814 368.893 251.347 367.223 251.16C367.223 251.358 367.141 251.604 367.082 251.849C367.024 252.094 366.931 252.631 366.872 252.842C366.861 252.914 366.841 252.984 366.814 253.052C366.469 254.041 365.844 254.908 365.014 255.547C364.184 256.186 363.186 256.569 362.142 256.649L361.745 256.696ZM363.8 236.56L362.807 244.362C362.726 245.039 361.955 245.81 360.88 246.826C360.643 247.037 360.417 247.259 360.203 247.492C359.553 248.103 359.072 248.871 358.806 249.722C358.54 250.574 358.498 251.479 358.684 252.351C358.727 253.249 359.082 254.105 359.689 254.769C360.007 255.045 360.378 255.254 360.78 255.383C361.182 255.511 361.605 255.557 362.025 255.516C362.845 255.454 363.63 255.154 364.281 254.652C364.933 254.149 365.424 253.467 365.692 252.69L366.288 252.748L365.716 252.608C365.716 252.409 365.844 252.024 365.914 251.65C366.23 250.108 366.276 249.922 366.825 249.98C369.862 250.33 373.6 250.412 374.102 249.98C374.223 249.848 374.329 249.704 374.417 249.548H374.219C373.576 249.431 371.042 248.625 370.458 248.38H365.015L370.575 245.448C371.404 245.331 373.658 244.981 374.266 244.806C374.431 244.746 374.57 244.63 374.659 244.479C374.749 244.328 374.783 244.15 374.756 243.976C373.547 243.724 372.309 243.641 371.077 243.731H370.89C370.575 243.731 368.367 244.409 366.417 245.028L363.683 245.892L369.08 241.22H369.231C371.322 240.835 374.873 240.216 375.2 240.216C375.27 240.216 375.48 240.04 375.784 239.421C375.83 239.332 375.849 239.232 375.838 239.132C375.828 239.033 375.789 238.938 375.726 238.861C375.679 238.786 375.616 238.724 375.541 238.68C375.465 238.635 375.381 238.609 375.293 238.604C374.955 238.662 369.115 239.491 368.671 239.491C368.472 239.491 367.258 240.075 366.265 240.543L363.835 241.711L367.468 237.389H367.643C369.547 236.922 372.665 236.151 372.922 236.069L373.156 235.999C374.394 235.649 374.616 235.415 374.651 235.333C374.698 235.225 374.723 235.107 374.723 234.989C374.723 234.87 374.698 234.753 374.651 234.644C374.613 234.582 374.559 234.53 374.496 234.494C374.433 234.457 374.362 234.436 374.289 234.434C373.717 234.376 368.496 235.438 363.8 236.501V236.56Z" fill="#263238"/>
<path d="M419.993 247.924L417.797 250.856C417.797 250.856 417.797 268.376 418.486 269.836C419.175 271.296 424.536 275.337 427.421 275.337C430.306 275.337 435.959 268.738 436.228 267.64C436.497 266.542 429.08 245.215 429.22 244.666C429.36 244.117 428.542 243.427 427.573 243.427C426.604 243.427 419.993 247.924 419.993 247.924Z" fill="white"/>
<path d="M427.445 275.886C424.268 275.886 418.743 271.74 417.972 270.046C417.201 268.353 417.236 253.753 417.236 250.821C417.232 250.694 417.273 250.569 417.353 250.471L419.549 247.574L419.689 247.446C422.212 245.717 426.592 242.773 427.585 242.773C427.954 242.768 428.32 242.843 428.657 242.995C428.995 243.146 429.294 243.37 429.535 243.649C429.647 243.785 429.73 243.942 429.78 244.111C429.831 244.279 429.846 244.456 429.827 244.631C429.944 245.273 431.206 249.127 432.432 252.865C436.123 264.148 436.987 267.056 436.824 267.71C436.45 269.147 430.622 275.886 427.445 275.886ZM418.404 251.02C418.404 259.371 418.626 268.656 419.035 269.567C419.666 270.946 424.875 274.718 427.445 274.718C430.014 274.718 435.387 268.54 435.691 267.465C435.691 266.624 433.063 258.588 431.322 253.262C428.659 245.156 428.589 244.806 428.671 244.49C428.548 244.32 428.384 244.184 428.194 244.094C428.004 244.005 427.794 243.964 427.585 243.977C425.08 245.233 422.684 246.698 420.425 248.357L418.404 251.02Z" fill="#263238"/>
<path d="M427.62 237.494L427.97 244.899C427.97 244.899 427.561 247.924 425.634 249.162C424.246 249.945 422.684 250.371 421.091 250.401L419.853 247.924L417.937 245.997L427.62 237.494Z" fill="white"/>
<path d="M421.091 250.984H420.74L419.374 248.275L417.038 245.939L428.099 236.221L428.508 244.841C428.508 245.074 428.029 248.251 425.903 249.63C424.437 250.476 422.783 250.942 421.091 250.984V250.984ZM418.755 246.032L420.343 247.667L421.418 249.805C422.781 249.727 424.106 249.327 425.284 248.637C426.966 247.562 427.363 244.817 427.363 244.782L427.059 238.697L418.755 246.032Z" fill="#263238"/>
<path d="M429.851 227.426L415.916 224.518L407.192 247.796L418.977 249.933L429.851 227.426Z" fill="#263238"/>
<path d="M419.269 250.587L406.421 248.251L415.566 223.864L430.75 227.029L419.269 250.587ZM407.986 247.352L418.638 249.291L428.998 227.858L416.29 225.16L407.986 247.352Z" fill="#263238"/>
<path d="M427.935 233.336C427.935 233.336 418.591 233.756 418.486 234.504C418.381 235.251 418.696 236.163 419.012 236.268C419.327 236.373 427.62 237.517 427.62 237.517C427.62 237.517 429.956 236.992 429.792 235.123C429.798 234.881 429.753 234.64 429.66 234.416C429.568 234.193 429.43 233.99 429.256 233.822C429.081 233.654 428.874 233.524 428.646 233.441C428.419 233.357 428.177 233.321 427.935 233.336Z" fill="white"/>
<path d="M427.643 238.09H427.538C424.419 237.669 419.14 236.922 418.825 236.828C418.089 236.583 417.797 235.24 417.914 234.422C417.984 233.92 418.089 233.254 427.9 232.787C428.529 232.759 429.146 232.968 429.629 233.371C429.863 233.594 430.05 233.862 430.179 234.159C430.307 234.456 430.374 234.776 430.376 235.1C430.353 235.824 430.077 236.518 429.598 237.061C429.118 237.605 428.464 237.965 427.748 238.078L427.643 238.09ZM419.269 235.672C419.981 235.801 424.618 236.455 427.585 236.84C427.959 236.735 429.278 236.256 429.22 235.076C429.22 234.915 429.187 234.755 429.123 234.607C429.059 234.459 428.964 234.325 428.845 234.216C428.727 234.106 428.587 234.022 428.434 233.969C428.282 233.916 428.12 233.895 427.959 233.908V233.324V233.908C424.974 233.971 421.998 234.264 419.058 234.784C419.061 235.092 419.133 235.396 419.269 235.672V235.672Z" fill="#263238"/>
<path d="M422.644 236.969C422.644 236.969 414.468 236.034 414.036 236.56C413.604 237.085 413.207 237.798 414.445 238.323C417.514 239.345 420.632 240.211 423.789 240.916C424.357 240.884 424.912 240.728 425.414 240.46C425.916 240.192 426.354 239.817 426.697 239.363C426.851 239.116 426.949 238.839 426.986 238.551C427.022 238.262 426.995 237.97 426.907 237.693L422.644 236.969Z" fill="white"/>
<path d="M423.777 241.512C420.545 240.812 417.355 239.931 414.223 238.872C413.949 238.786 413.699 238.635 413.496 238.431C413.292 238.228 413.141 237.979 413.055 237.704C413.014 237.423 413.04 237.137 413.129 236.867C413.218 236.598 413.369 236.352 413.569 236.151C413.779 235.882 414.176 235.38 422.691 236.349L427.234 237.132L427.363 237.389C427.5 237.744 427.553 238.125 427.519 238.504C427.484 238.883 427.363 239.249 427.164 239.573C426.782 240.13 426.278 240.594 425.692 240.929C425.106 241.265 424.451 241.464 423.777 241.512V241.512ZM414.433 237.039C414.211 237.342 414.223 237.447 414.223 237.471C414.223 237.494 414.351 237.646 414.69 237.798C415.998 238.335 423.193 240.297 423.812 240.344C424.265 240.306 424.705 240.177 425.107 239.964C425.508 239.751 425.863 239.459 426.148 239.106C426.3 238.834 426.384 238.529 426.393 238.218L422.551 237.564C419.854 237.18 417.133 237 414.41 237.027L414.433 237.039Z" fill="#263238"/>
<path d="M418.393 239.667C418.393 239.667 412.167 238.429 411.852 239.048C411.536 239.667 411.443 240.706 412.062 241.127C412.681 241.547 420.986 243.813 421.499 244.023C422.013 244.233 423.263 243.614 423.672 242.785C423.916 242.192 423.953 241.533 423.777 240.916L418.393 239.667Z" fill="white"/>
<path d="M421.733 244.654C421.578 244.651 421.424 244.624 421.278 244.572C421.126 244.502 419.958 244.163 418.813 243.836C416.409 243.242 414.045 242.497 411.735 241.605C411.348 241.258 411.095 240.786 411.02 240.272C410.946 239.758 411.054 239.233 411.326 238.791C411.525 238.405 411.84 237.763 418.498 239.094L424.221 240.426L424.314 240.741C424.548 241.512 424.498 242.34 424.174 243.077C423.926 243.518 423.574 243.892 423.149 244.167C422.723 244.442 422.237 244.609 421.733 244.654V244.654ZM412.261 239.468C412.097 239.9 412.085 240.472 412.331 240.636C412.786 240.893 416.898 242.084 419.093 242.715C420.694 243.182 421.429 243.404 421.675 243.486C421.922 243.47 422.164 243.401 422.382 243.282C422.6 243.164 422.791 243 422.939 242.801C423.088 242.603 423.192 242.374 423.244 242.131C423.296 241.888 423.294 241.637 423.24 241.395L418.217 240.227C416.262 239.776 414.267 239.522 412.261 239.468V239.468Z" fill="#263238"/>
<path d="M418.591 243.299C418.591 243.299 413.919 242.365 413.721 242.89C413.522 243.416 413.405 244.549 414.34 244.852C415.274 245.156 420.67 247.34 421.605 246.721C422.539 246.102 422.224 244.444 422.224 244.444L418.591 243.299Z" fill="white"/>
<path d="M421.056 247.41C418.924 247.128 416.843 246.542 414.877 245.67L414.153 245.413C413.94 245.344 413.744 245.232 413.577 245.083C413.41 244.934 413.276 244.752 413.183 244.549C412.937 243.946 412.937 243.271 413.183 242.668C413.335 242.259 413.569 241.699 418.708 242.727H418.766L422.737 243.976V244.327C422.737 244.525 423.088 246.383 421.873 247.2C421.624 247.34 421.342 247.412 421.056 247.41V247.41ZM414.199 243.311C414.129 243.551 414.129 243.806 414.199 244.047C414.226 244.108 414.266 244.163 414.317 244.208C414.367 244.252 414.427 244.285 414.491 244.304L415.251 244.572C419.607 246.184 420.927 246.359 421.266 246.231C421.604 246.102 421.675 245.331 421.651 244.887L418.451 243.848C417.052 243.545 415.63 243.365 414.199 243.311V243.311Z" fill="#263238"/>
<path d="M446.46 106.807H488.823C490.725 106.807 492.549 107.562 493.894 108.907C495.239 110.252 495.995 112.076 495.995 113.978V142.687C495.995 144.59 495.239 146.414 493.894 147.759C492.549 149.103 490.725 149.859 488.823 149.859H463.945L452.568 165.884V149.859H446.46C445.517 149.861 444.583 149.676 443.712 149.316C442.84 148.957 442.048 148.429 441.381 147.763C440.714 147.097 440.185 146.305 439.824 145.435C439.462 144.564 439.277 143.63 439.277 142.687V113.978C439.277 113.035 439.462 112.102 439.824 111.231C440.185 110.36 440.714 109.569 441.381 108.903C442.048 108.237 442.84 107.709 443.712 107.349C444.583 106.989 445.517 106.805 446.46 106.807V106.807Z" fill="#6A359F"/>
<path d="M452.568 166.468C452.511 166.479 452.451 166.479 452.393 166.468C452.275 166.433 452.171 166.36 452.098 166.261C452.024 166.162 451.984 166.042 451.984 165.919V150.408H446.46C444.402 150.408 442.428 149.591 440.972 148.137C439.515 146.683 438.696 144.71 438.693 142.652V113.978C438.696 111.92 439.515 109.947 440.972 108.493C442.428 107.039 444.402 106.223 446.46 106.223H488.823C490.879 106.226 492.85 107.044 494.304 108.497C495.758 109.951 496.576 111.922 496.579 113.978V142.687C496.576 144.743 495.758 146.714 494.304 148.168C492.85 149.622 490.879 150.44 488.823 150.443H464.295L453.094 166.223C453.034 166.304 452.954 166.369 452.862 166.412C452.771 166.455 452.67 166.474 452.568 166.468V166.468ZM446.46 107.391C444.712 107.391 443.035 108.084 441.798 109.319C440.56 110.554 439.864 112.23 439.861 113.978V142.687C439.864 144.436 440.56 146.111 441.798 147.346C443.035 148.581 444.712 149.275 446.46 149.275H452.568C452.723 149.275 452.872 149.337 452.981 149.446C453.091 149.556 453.152 149.704 453.152 149.859V164.05L463.478 149.52C463.53 149.445 463.6 149.383 463.681 149.341C463.763 149.298 463.853 149.275 463.945 149.275H488.823C490.569 149.272 492.243 148.577 493.478 147.342C494.713 146.107 495.408 144.434 495.411 142.687V113.978C495.408 112.232 494.713 110.558 493.478 109.323C492.243 108.089 490.569 107.394 488.823 107.391H446.46Z" fill="#6A359F"/>
<path d="M464.961 142.734H464.821C464.19 142.708 463.574 142.536 463.021 142.232C462.468 141.929 461.992 141.501 461.632 140.982L453.935 129.945C453.607 129.505 453.371 129.005 453.24 128.472C453.11 127.94 453.088 127.387 453.175 126.846C453.263 126.305 453.458 125.787 453.75 125.323C454.042 124.859 454.424 124.458 454.874 124.145C455.323 123.832 455.831 123.612 456.368 123.499C456.904 123.386 457.458 123.382 457.995 123.487C458.533 123.592 459.045 123.804 459.499 124.111C459.953 124.418 460.341 124.813 460.639 125.273L465.311 131.895L481.5 112.214C482.195 111.4 483.182 110.891 484.248 110.796C485.314 110.702 486.375 111.029 487.203 111.708C488.03 112.388 488.558 113.364 488.673 114.428C488.789 115.493 488.482 116.56 487.819 117.4L468.208 141.251C467.814 141.727 467.317 142.108 466.754 142.365C466.192 142.621 465.579 142.748 464.961 142.734V142.734Z" fill="white"/>
<path d="M484.572 110.696C485.519 110.692 486.437 111.023 487.165 111.63C487.58 111.97 487.925 112.387 488.179 112.86C488.433 113.333 488.591 113.851 488.644 114.385C488.697 114.919 488.644 115.458 488.489 115.971C488.333 116.485 488.078 116.962 487.737 117.377L468.126 141.228C467.742 141.695 467.258 142.071 466.711 142.33C466.164 142.588 465.566 142.722 464.961 142.723H464.821C464.19 142.697 463.574 142.525 463.021 142.221C462.468 141.917 461.992 141.489 461.632 140.971L453.935 129.933C453.607 129.494 453.371 128.993 453.24 128.461C453.11 127.928 453.088 127.375 453.175 126.834C453.263 126.293 453.458 125.775 453.75 125.311C454.042 124.847 454.424 124.447 454.873 124.133C455.323 123.82 455.831 123.6 456.368 123.487C456.904 123.374 457.457 123.37 457.995 123.475C458.533 123.58 459.045 123.793 459.499 124.1C459.953 124.406 460.341 124.801 460.639 125.261L465.311 131.884L481.5 112.203C481.88 111.734 482.361 111.356 482.907 111.097C483.453 110.839 484.049 110.705 484.653 110.708L484.572 110.696ZM484.653 108.372C483.705 108.369 482.767 108.577 481.908 108.981C481.05 109.385 480.292 109.975 479.689 110.708L465.463 128.006L462.613 123.918C461.597 122.635 460.129 121.788 458.509 121.551C456.889 121.314 455.24 121.704 453.898 122.642C452.556 123.579 451.623 124.994 451.289 126.597C450.955 128.199 451.246 129.869 452.101 131.264L459.798 142.314C460.368 143.124 461.116 143.793 461.984 144.269C462.853 144.745 463.819 145.015 464.809 145.059H465.066C466.015 145.06 466.952 144.851 467.81 144.447C468.668 144.043 469.426 143.454 470.03 142.723L489.536 118.872C490.311 117.932 490.804 116.79 490.955 115.58C491.106 114.371 490.91 113.143 490.389 112.041C489.869 110.939 489.045 110.007 488.015 109.355C486.985 108.704 485.791 108.358 484.572 108.36L484.653 108.372Z" fill="#6A359F"/>
<path d="M195.259 206.381C204.41 206.389 213.268 203.154 220.259 197.249C227.251 191.345 231.923 183.153 233.446 174.13C234.969 165.106 233.244 155.835 228.578 147.962C223.912 140.09 216.607 134.127 207.959 131.131C199.312 128.136 189.883 128.303 181.348 131.601C172.812 134.9 165.721 141.118 161.336 149.15C156.951 157.182 155.555 166.509 157.396 175.473C159.236 184.437 164.195 192.458 171.39 198.113C178.195 203.465 186.601 206.377 195.259 206.381V206.381ZM195.259 130.184C203.066 130.18 210.681 132.612 217.042 137.14C223.402 141.667 228.192 148.066 230.745 155.445C233.297 162.824 233.484 170.815 231.28 178.305C229.077 185.795 224.592 192.412 218.45 197.233C211.855 202.462 203.676 205.29 195.259 205.253C185.417 205.082 176.036 201.053 169.136 194.032C162.236 187.012 158.37 177.562 158.37 167.719C158.37 157.875 162.236 148.425 169.136 141.405C176.036 134.385 185.417 130.355 195.259 130.184V130.184Z" fill="#263238"/>
<path d="M179.355 161.757C179.352 158.608 180.284 155.529 182.032 152.91C183.78 150.291 186.266 148.249 189.175 147.043C192.083 145.837 195.285 145.521 198.373 146.135C201.461 146.749 204.298 148.265 206.525 150.491C208.752 152.718 210.268 155.555 210.881 158.643C211.495 161.732 211.179 164.933 209.973 167.842C208.767 170.751 206.725 173.236 204.106 174.984C201.487 176.732 198.408 177.664 195.259 177.662C191.041 177.662 186.996 175.986 184.013 173.003C181.03 170.021 179.355 165.975 179.355 161.757Z" fill="#F58415"/>
<path d="M171.729 197.673C178.437 202.949 186.724 205.818 195.259 205.818C203.794 205.818 212.081 202.949 218.789 197.673C217.608 192.311 214.632 187.514 210.353 184.075C206.074 180.636 200.749 178.761 195.259 178.761C189.769 178.761 184.444 180.636 180.165 184.075C175.886 187.514 172.91 192.311 171.729 197.673V197.673Z" fill="#F58415"/>
</svg>
