<svg width="38" height="38" viewBox="0 0 38 38" fill="none" xmlns="http://www.w3.org/2000/svg">
<path d="M24.0144 13.2209L23.8928 12.9517L19.9868 4.30512L19.9859 4.3032C19.9009 4.11283 19.7625 3.95114 19.5876 3.83764C19.4127 3.72414 19.2087 3.66369 19.0002 3.66357C18.7917 3.66346 18.5877 3.72369 18.4126 3.837C18.2376 3.9503 18.0991 4.11184 18.0139 4.30212L18.0133 4.3035L14.1072 12.9517L13.9856 13.2209L13.6911 13.2443L4.66452 13.9615L4.6644 13.9615C4.4569 13.978 4.25852 14.0539 4.09301 14.1801C3.92749 14.3063 3.80185 14.4776 3.73111 14.6733C3.66036 14.8691 3.64752 15.0811 3.69411 15.284C3.7407 15.4868 3.84476 15.672 3.99382 15.8173L3.99386 15.8173L10.6644 22.3201L10.8659 22.5165L10.8026 22.7906L8.44343 33.0063L8.44335 33.0066C8.39434 33.2182 8.41005 33.4396 8.48844 33.6421C8.56683 33.8447 8.70429 34.019 8.88297 34.1424C9.06165 34.2659 9.27331 34.3328 9.49049 34.3344C9.70765 34.3361 9.92031 34.2724 10.1009 34.1517L10.1014 34.1513L18.7227 28.4038L19 28.2189L19.2774 28.4038L27.8978 34.1508C27.898 34.1509 27.8982 34.1511 27.8984 34.1512C28.0829 34.2735 28.3004 34.3365 28.5217 34.3316C28.7433 34.3268 28.958 34.2542 29.1371 34.1236C29.3161 33.9931 29.4509 33.8108 29.5233 33.6014C29.5956 33.3922 29.6022 33.1659 29.5422 32.9528C29.5421 32.9526 29.5421 32.9523 29.542 32.9521L26.6465 22.8202L26.5607 22.52L26.7928 22.3112L33.9743 15.8485C33.9744 15.8484 33.9744 15.8483 33.9745 15.8483C34.2964 15.5577 34.4146 15.1048 34.2758 14.6936C34.2076 14.4932 34.0823 14.3171 33.9153 14.187C33.7481 14.0569 33.5466 13.9785 33.3355 13.9615L24.0144 13.2209ZM24.0144 13.2209L24.3089 13.2443L33.3352 13.9615L24.0144 13.2209Z" stroke="black" stroke-opacity="0.6"/>
</svg>
