<svg width="32" height="32" viewBox="0 0 32 32" fill="none" xmlns="http://www.w3.org/2000/svg">
<path d="M31.7494 11.5334C31.6499 11.2403 31.4667 10.9827 31.2225 10.7925C30.9782 10.6023 30.6837 10.4878 30.3751 10.4631L21.3485 9.74586L17.4424 1.09927C17.318 0.820784 17.1157 0.584249 16.8598 0.418214C16.604 0.252179 16.3055 0.163742 16.0005 0.163574C15.6955 0.163407 15.397 0.251517 15.1409 0.417271C14.8849 0.583024 14.6823 0.819338 14.5576 1.09769L10.6515 9.74586L1.62492 10.4631C1.32164 10.4871 1.0317 10.598 0.789796 10.7825C0.54789 10.967 0.364256 11.2173 0.260865 11.5034C0.157474 11.7895 0.138702 12.0994 0.206797 12.3959C0.274892 12.6924 0.426969 12.963 0.644834 13.1754L7.31542 19.6781L4.95625 29.8938C4.88462 30.203 4.90758 30.5266 5.02215 30.8226C5.13672 31.1186 5.33762 31.3734 5.59877 31.5538C5.85992 31.7342 6.16927 31.832 6.48668 31.8344C6.80408 31.8368 7.11488 31.7438 7.37875 31.5674L16 25.8199L24.6212 31.5674C24.8909 31.7464 25.209 31.8386 25.5327 31.8315C25.8563 31.8244 26.17 31.7184 26.4316 31.5277C26.6932 31.3369 26.8901 31.0707 26.9959 30.7647C27.1016 30.4588 27.1112 30.1277 27.0232 29.8162L24.1272 19.6829L31.3093 13.2197C31.7795 12.7954 31.9521 12.1335 31.7494 11.5334V11.5334Z" fill="#F58415"/>
</svg>
