<svg width="107" height="107" viewBox="0 0 107 107" fill="none" xmlns="http://www.w3.org/2000/svg">
<path d="M53.5 0C24.0013 0 0 24.0013 0 53.5C0 82.9987 24.0013 107 53.5 107C82.9987 107 107 82.9987 107 53.5C107 24.0013 82.9987 0 53.5 0ZM83.401 39.4211L49.2093 73.3446C47.198 75.3559 43.98 75.49 41.8346 73.4787L23.7331 56.9862C21.5877 54.9749 21.4536 51.6228 23.3308 49.4774C25.3421 47.3321 28.6942 47.198 30.8396 49.2093L45.1867 62.3496L75.7581 31.7782C77.9035 29.6328 81.2556 29.6328 83.401 31.7782C85.5464 33.9236 85.5464 37.2757 83.401 39.4211Z" fill="#F58415"/>
</svg>
