<svg width="30" height="30" viewBox="0 0 30 30" fill="none" xmlns="http://www.w3.org/2000/svg">
<path fill-rule="evenodd" clip-rule="evenodd" d="M16.25 7.285V21.25H13.75V7.285L9.69625 11.3388L7.92875 9.57125L15 2.5L22.0712 9.57125L20.3037 11.3388L16.25 7.285ZM6.25 23.75H23.75C24.0815 23.75 24.3995 23.8817 24.6339 24.1161C24.8683 24.3505 25 24.6685 25 25C25 25.3315 24.8683 25.6495 24.6339 25.8839C24.3995 26.1183 24.0815 26.25 23.75 26.25H6.25C5.91848 26.25 5.60054 26.1183 5.36612 25.8839C5.1317 25.6495 5 25.3315 5 25C5 24.6685 5.1317 24.3505 5.36612 24.1161C5.60054 23.8817 5.91848 23.75 6.25 23.75Z" fill="black" fill-opacity="0.25"/>
</svg>
