<svg width="90" height="90" viewBox="0 0 90 90" fill="none" xmlns="http://www.w3.org/2000/svg">
<g clip-path="url(#clip0_1095_6797)">
<path d="M56.3333 59.2292C56.3333 62.3178 55.1063 65.28 52.9223 67.464C50.7383 69.648 47.7761 70.875 44.6875 70.875H44.4617C46.0607 65.9376 45.9649 60.6076 44.1895 55.7309C42.4141 50.8542 39.0608 46.7101 34.6618 43.9563C30.2628 41.2026 25.0701 39.9969 19.9077 40.5306C14.7454 41.0644 9.9092 43.307 6.16665 46.9025V28.7708C6.16665 25.6822 7.39361 22.72 9.57763 20.536C11.7616 18.352 14.7238 17.125 17.8125 17.125H44.6875C47.7761 17.125 50.7383 18.352 52.9223 20.536C55.1063 22.72 56.3333 25.6822 56.3333 28.7708V59.2292ZM76.9805 22.1166C77.5314 22.7648 77.8337 23.5879 77.8333 24.4386V63.5614C77.8336 64.2457 77.6379 64.9158 77.2694 65.4924C76.9009 66.069 76.375 66.528 75.7539 66.8152C75.1327 67.1024 74.4424 67.2057 73.7644 67.113C73.0864 67.0203 72.4492 66.7353 71.928 66.2919L59.9166 56.0758V31.917L71.928 21.7081C72.2865 21.403 72.7016 21.1716 73.1496 21.027C73.5976 20.8825 74.0697 20.8276 74.5389 20.8655C75.0081 20.9035 75.4652 21.0335 75.8841 21.2481C76.3031 21.4628 76.6756 21.7579 76.9805 22.1166Z" fill="#F58415"/>
<path fill-rule="evenodd" clip-rule="evenodd" d="M22 44.75C11.3688 44.75 2.75 53.3688 2.75 64C2.75 74.6313 11.3688 83.25 22 83.25C32.6313 83.25 41.25 74.6313 41.25 64C41.25 53.3688 32.6313 44.75 22 44.75ZM23.75 71C23.75 71.4641 23.5656 71.9093 23.2374 72.2374C22.9092 72.5656 22.4641 72.75 22 72.75C21.5359 72.75 21.0908 72.5656 20.7626 72.2374C20.4344 71.9093 20.25 71.4641 20.25 71V65.75H15C14.5359 65.75 14.0908 65.5656 13.7626 65.2374C13.4344 64.9092 13.25 64.4641 13.25 64C13.25 63.5359 13.4344 63.0908 13.7626 62.7626C14.0908 62.4344 14.5359 62.25 15 62.25H20.25V57C20.25 56.5359 20.4344 56.0908 20.7626 55.7626C21.0908 55.4344 21.5359 55.25 22 55.25C22.4641 55.25 22.9092 55.4344 23.2374 55.7626C23.5656 56.0908 23.75 56.5359 23.75 57V62.25H29C29.4641 62.25 29.9093 62.4344 30.2374 62.7626C30.5656 63.0908 30.75 63.5359 30.75 64C30.75 64.4641 30.5656 64.9092 30.2374 65.2374C29.9093 65.5656 29.4641 65.75 29 65.75H23.75V71Z" fill="#6A359F"/>
</g>
<defs>
<clipPath id="clip0_1095_6797">
<rect width="90" height="90" fill="white"/>
</clipPath>
</defs>
</svg>
