<svg width="26" height="26" viewBox="0 0 26 26" fill="none" xmlns="http://www.w3.org/2000/svg">
<path d="M13 0C5.82098 0 0 5.82098 0 13C0 20.179 5.82098 26 13 26C20.179 26 26 20.179 26 13C26 5.82098 20.179 0 13 0ZM17.1815 13.2002L10.844 17.8112C10.8092 17.8361 10.7683 17.851 10.7256 17.8542C10.6829 17.8574 10.6402 17.8488 10.6021 17.8293C10.5641 17.8098 10.5321 17.7802 10.5097 17.7437C10.4874 17.7073 10.4755 17.6653 10.4754 17.6225V8.40647C10.4753 8.3636 10.487 8.32153 10.5093 8.28492C10.5317 8.24831 10.5637 8.21859 10.6018 8.19906C10.64 8.17953 10.6828 8.17095 10.7256 8.17426C10.7683 8.17758 10.8093 8.19267 10.844 8.21786L17.1815 12.8259C17.2114 12.8471 17.2358 12.8751 17.2527 12.9077C17.2696 12.9402 17.2783 12.9764 17.2783 13.0131C17.2783 13.0497 17.2696 13.0859 17.2527 13.1184C17.2358 13.151 17.2114 13.179 17.1815 13.2002Z" fill="#F58415"/>
</svg>
